<mxfile host="app.diagrams.net" agent="Mozilla/5.0 (Windows NT 10.0; Win64; x64) AppleWebKit/537.36 (KHTML, like Gecko) Chrome/135.0.0.0 Safari/537.36" version="26.2.9">
  <diagram name="Trang-1" id="nYcITbg5vJLGoWtLoJf6">
    <mxGraphModel grid="1" page="1" gridSize="10" guides="1" tooltips="1" connect="1" arrows="1" fold="1" pageScale="1" pageWidth="827" pageHeight="1169" math="0" shadow="0">
      <root>
        <mxCell id="0" />
        <mxCell id="1" parent="0" />
        <mxCell id="J-SNaFfVXZyWY1gnFb7C-5" value="" style="shape=image;verticalLabelPosition=bottom;labelBackgroundColor=default;verticalAlign=top;aspect=fixed;imageAspect=0;image=data:image/png,iVBORw0KGgoAAAANSUhEUgAAAOcAAANiCAYAAACaYd7WAAAAAXNSR0IArs4c6QAAAARnQU1BAACxjwv8YQUAAAAJcEhZcwAADsMAAA7DAcdvqGQAAP+lSURBVHhe7L13fJRV2v//mT6ZTJJJmTQSQgIhBULvgqCCXSxYsGHb1dXFfex9Xdzi7qq7qDyuPvaGBUFWkG4IJUASSAJJSCG9TNpMpve7/f743vf9m5lMGqRMcN6v17wgdy/nc59zrnOd6xIwDMMgSJAgAYfQd0GQIEECA0Gw5hx+7HY7urq64HK5fFcFucgRi8VQqVSIiYnxXTVkguIcAU6fPo3Ozk5kZ2dDIBD4rg54KIqCSCTyXTwuoSgKQqFw1N6DTqfDzp078eqrr/quGjJBcY4Ahw8fxty5c6FUKn1XDRqGYWC1WmGz2cAwDEJDQyEUCmG32yESiRAdHe27y6AhCAImkwkkSUKlUqG7uxsxMTEICQmBxWJBaWkpZs6cifDwcAiFg+/50DQNs9kMs9mMCRMmjJrAKYqCy+WCRCKBRCLhl9M0jeLiYqSnpyMsLMzv9VgsFpjNZkRFRSEkJMR39ZBxOBx46aWXsHHjRt9VQ2bwTz7IoGEYZkiF2h+tra345z//iSeeeALPPvss3n33XRgMBrzyyivYv38/KIqCw+GAzWaD0+kE942laRp2ux12ux0URXkdk6ZpOJ1OmM1mvPHGG9iwYQPcbjcef/xxaDQaMAyD3bt3Y8eOHfjmm2/4Qu92u+FwOOByuUDTtN9j2mw2uFwubNu2DX/4wx9gt9vhcDhA0zQoioLb7QZFUSAIAhaLBTabDSRJwul0wm6389fFLXM6nfz+AOByufjlbrebX84wDHp6evDmm2+ivr4ebrebP4bb7UZDQwM+++wzEAQBt9sNl8sFh8MBp9MJmqZRVlaGBx98ECaTye8zGyoCgWDYamnRhg0bNvguDHJhNDU1YcKECV5f8aFAURRefvll7NixA3fddRdmzZoFs9mMjIwM6HQ6JCcnQ61WY9euXSgsLERzczMSExMhl8tx9uxZ7N69G6WlpQgPD0dYWBjEYjEAoLu7Gz///DMqKytx7NgxmEwm3Hjjjaiursb8+fMhEolw5MgRREdHQygUYtq0adi/fz8aGhpw8uRJ1NfXY8KECXwNQ5IktFotfvrpJ5SUlEAgEKCqqgq//PILJk+ejCNHjiA1NRU2mw379++HWq1GQ0MDcnNzcfLkSajVauzcuRPFxcWwWq344YcfEBERgfz8fLS2tuLo0aNIS0sDSZI4fPgwjh07Bq1Wi+rqaiQnJ0Mmk4EgCOzfvx8bNmyAUqmEQqGAXq/H4cOH0dLSArPZjO7ubsyfPx/Hjh1DVVUVysvLUVlZicTERLS0tODTTz9FTk4Ojh49ivDwcKjVap83MnhIkkRubi6uuuoq31VDJijOEeBCxWm1WvHwww/jtttuw+9+9zuYzWZEREQgJCQEGzduRGRkJNLS0vD1119Dp9Ph/fffR0JCAtLT03HzzTejs7MTDQ0N+Pjjj3H77bcjNDQUJEniww8/xKZNm0DTNEpLSxEdHY0bbrgBjz/+OK699lrs2bMH77zzDsLDw/HJJ59g2bJlePXVV7Fnzx5YLBZ8+eWXyM7ORkZGBgDAbDbjpZdewpYtWxAbGwsAsNls2LNnD8RiMT777DOIRCIkJyfj0UcfxVVXXYVDhw7h9ddfx+TJk7Ft2zbk5eWBIAj84x//QFRUFHp6evDaa69BLBbjo48+glKphFKpxG9/+1sAwPbt23HkyBH+viiKwvbt23HixAkoFApMmDABJSUl+OMf/wi73Y6mpibs2rULDz74IP7yl7/gm2++gdFoxHfffYe4uDiEh4djy5Yt6OnpQV5eHsrLy3Hbbbd5vY+hMJzivLC2V5ARgWEYSCQSvo/54Ycf4vHHH0dlZSXfNHS5XGhvb0ddXR0IgkBpaSmamppw5swZvPzyy3juueeg0Whgs9kAtjY+efIk5s2bh1deeQVTp04F2GYpQRCgKAoHDhyARCIBQRBQqVTYu3cv3G43cnJy8Je//AXR0dFoa2vjr9NkMuHQoUN47LHHsGHDBqxZswYAoFar8e6772L27NkoKSnhr5lrqk6YMAGXXXYZSkpKsH79emzYsAEKhQLXX389aJpGdHQ03n33XUyfPh2nT59GQUEBSJLE888/j1WrVoGiKL5ZK5VKsW7dOoSHh+P3v/89brjhBtA0DaVSiY8//hj33Xcf/0xJksTUqVPx17/+FRMnTkRtbS0AQKlU4o033sD111+PkpIS/v7GmqA4A5Dw8HBcddVV+Omnn1BbW4sHH3wQcrmcN3gIhUIcPnwYZ86cwR//+EckJCRAKBQiJiYGMTExKCsrQ1NTE1QqFeRyOQBAJBJBrVZDq9VCo9FAo9Hwx5JKpRCLxUhOTkZ6ejoeeeQRfPDBB7j77rshl8sRHR0NqVQKmUzm1ZcODQ2FSqXCqVOn0NjYiPb2dn4oQSQSQaFQQCgUIiQkBGKxGM3NzaisrIRYLEZMTAzCwsJQWVmJtrY2iEQixMXFQSwWIzIy0mv/zMxMiMVi1NbWoqysDAzDePXrpFIp5HI5uru7YTQa+XuVSqX8TyAQQCKRIDIyEjKZjL8X7jxyuRwymYzvAgQCQXEGIAKBAO+++y5uuOEGPP3003juueewcuVKzJgxA2q1Gmq1GitXrkRsbCxeeeUVxMbGIi4uDvHx8Xj77bfxn//8B2+++SZeeeUV3qorFovxP//zP3C73diwYQOmTZuGuLg4yOVyJCcnIzw8HK+99hqEQiHuvvtuPPfcc7BYLJgwYQKioqIQGhqK+Ph4qFQq/jojIyPx5ZdforKyEvfeey927dqFiIgIJCcnQyQSIT4+HtHR0YiLi8PChQvxr3/9C1KpFAkJCUhJScHGjRuxd+9erF+/Hg8++CAWLlzI7y8UCpGQkICoqCjMnTsX11xzDf785z8DAC92z+u46aab8NZbbyEvLw8qlYo/hlKpxIQJEyCXyxEXF4fo6GiEhoYiNjYW0dHRUCqVSExMRGhoKH/ugIEJMuzk5eUxNpvNd/F54XK5GLfb7buYYRiGIQiCIUnSdzHjdrsZl8vlu5hh2H0IgvBdzDAMw9A0zWg0Gmbx4sVMQ0MDQ9O07yZ+oSiKcTgc/W5PUZTf85IkyTidTt/FXphMJuaRRx5hnn76aWb27NnMn/70pz7vb6xxOBzMk08+6bv4vAjWnAGOVCrt07AkFov9jt1JJBJIpVLfxQC7T19NN4FAgMjISLz22muIjY0d9JCAUCiEXC7vd3uhUOj3vCKRCDKZzHexF6GhoXjooYdw1VVX4aOPPsLzzz/f5/1dTATFGcSLkJAQrFq1CqGhob6rxgyRSIT58+dj1apVmDt37rA4C4wHguIMEiRACYozSJAAJSjOIEEClKA4gwQJUILiDBIkQAmKM0iQACUoziD9wjAMaJoGSZL8tCtu6tWF/NxuNwiC4P16aZrmp70F+X8EJ1uPAIcOHcKCBQugUCh8V40pnNA8hcAwTJ/LwU7M5gTJzRt1Op1exz0fRCIRJBIJRCIR7xvLOTJwzgzc/4VCIYQ+0Qy4ZZ6+voGA0+nESy+9hH//+9++q4ZMUJwjwFiK01NkvqLznKBNEAS/DTdbxOl08pONGda5XCqVIiQkBCEhIXw0huFwUOAmRHMzbKxWK+x2Oz/bBKw4PYXLObALBAKEhITwDuvctiKRiBerP0GPBkFxBjijIU5/wmMYBgRBwGaz8dO0urq6oNPpQFEUJBIJYmJiEB8fz3vZeNZMY1GYB4K7R99avaenB11dXTCZTAAAuVyO+Ph4REZGQiAQQC6X87NaPO9tpGvboDgDnJEQp6cYuZ/L5QJBEOju7kZVVRXcbjeioqKQmZkJhULB1yYikSjgRDfc0Gw4FK7mb29vR21tLUiShFqtxsyZMyEWiyGRSCAWi3uJdrieT1CcAc5widOzxiBJEiRJorOzE6dOnYJQKER2djYiIyMhFoshl8tHtEYYz5AkCRcb/6ihoQEajQbx8fGYOXMmP7FguIQaFGeAcyHi5PqBXM1oMplQWFgIhUKBlJQUyOVyRERE+J2NEmTwuFwumM1mWK1WtLS0ICYmBtOnT+cnnnNN4KESFGeAcz7i5ETpdruh0+lQUlKC2NhYhIWFISEhwe90K0+413ghX/1fM3a7Hd3d3TAYDJDL5cjOzub7rEN5psMpzqF/GoIMOwzDwOFwoLi4GMePH4dWq8Wll16K7OxsJCcnDyhMmqZhsVhgtVp9V10UcMaukUShUGDSpEmYPXs2UlJSUFlZiRMnTqCrqwskSfpuPioExTmGcDVlTU0NCgsLERUVhTlz5iAtLY1vUnV3d8NutwNsVD6dTgetVouamhqAbZ6VlpYiPz8fW7Zs6bcQc4P/TqcTlZWV/HHB9stOnjzptf1oQpIkampqoNPpvJa3trZi//79IAjCa7lGo0FjY6PXMpoNau3vI2UymfhgaAOhUCiQmZmJ6dOno6WlBSdPnoTZbOaNTaNFUJxjBMOOL5aWloKmacyePRsxMTG9mlEff/wxzp07BwBoaGjAe++9B7PZjLa2NtA0DZ1Oh+rqapjNZtx88838+KHJZILL5eLFSlEUfvrpJ/zyyy8wmUz45ptvYDKZ+EInEAjQ0NDAnxcehhSz2cyPhVqtVrjdbv76zWYzfx5O+EajkR9H5QwxFEWBJEnQHuOYJEnyEdfdbjd27dqF+vp6fn8AKCwsxNKlS8EwDGw2G3/+M2fO4NixY7BYLHA4HADrMPHJJ5+gq6sLDoeDb03QNA2bzYZdu3bBaDTy46kkSfL3QpKkl/i4PmdGRgamTp2Ko0ePor29fVDiHi6CcWtHgMHErXW5XDh06BAyMjL4IM7++ja5ubmIj49HaGgoWltbUV1djaysLLS3tyM5ORl79uxBcXExlEolZs2aheLiYuzduxc7duxAW1sbMjIyIJVKQZIkvvjiC5w+fRoEQaClpQWtra3YtWsXH4jryJEjWLhwIX/upqYmbN++Hf/9739x7tw5tLW14fPPP0dkZCTkcjm2bNmCrVu3wuVyISkpCfv27cORI0ewa9cumEwmTJ06FZs2bUJOTg6cTid27dqFtLQ0SCQSuFwuVFVVYdOmTSgtLUVWVhZOnz6NhoYG/PLLL7BarUhPT0deXh7mzJmDTz/9FGfPnsV3332HiIgI6PV6nD17Fr/88gs6OzuRlZUFmqaxZcsW3HHHHXjjjTdQVlaGnTt3IicnByQbmLqgoABlZWVIT09HTU0NGhsbER8fj61btyIuLq5XCg1uOCopKQn19fW8U0ZfxiIyGLd2fEOSJPR6PWbMmMGPR/YFwzB4/fXX8dhjj+HVV1/l+5ctLS3Q6/Woq6vD7373O7jdbhQUFPDN4FdeeQUlJSVwsq52YrEY06dPx3XXXYdrr70WDMPglltuwdNPP43vv/8eNE2jrq7O69w2mw0VFRV47rnnUFdXh8jISDz11FPYvXs38vPz4XQ68dvf/hanT59GU1MT2traoFar8cc//hEHDx4ETdMoLy8HyfrlNjY28rWT2WzGe++9h+effx7PPvssVCoVhGyU+T/+8Y84cOAAf000TaO2thazZs3Cc889h8OHD8PpdCIkJAQvvPACzp07B71eD7fbjezsbAiFQhw/fhwPPvggHnjgAbz55ptwuVwwGAx44oknEB4ejjNnzvCODDRNo76+nn9W/hCJRMjKykJhYSHcbrfv6hEhKM4xgCRJFBQUDChMsG5or776Kj755BO8/vrrvHGIYRhoNBqYTCYUFxcjPDycj7o+efJkhIaGIjIykm/WCtkYrdy4XlhYGJRKJZ+8CGyfzROGYZCVlQWlUsnHxFUoFBCLxdBoNOju7kZpaSnS0tIQHh4OAJgwYQJCQ0MhlUrBsBZorslLkiR/PVarlQ/uxY3RCgQCJCQkIDQ0lB8q4q5JKBQiMjISoaGh/DNLTU3lw1za7Xbs378fCxYsANhwmSEhIYiMjERnZycYhkFmZiYfa9fhcPDXxjXfB0IkEmHOnDnQarW+q0aEoDjHAIFAAIYdyxwIuVyO8PBwhIeHIyIiAnK5nHc6mDJlCkiSxJw5czB37lzExcXxkfcErAubZ/NLpVKhq6sLPT09fBQ+oVAImUwGAeuv6onnsWQyGe9dI5VKMW3aNDAMgwULFmDOnDlQKpV80GuwgcIEAgHS0tKg0WhQWloKm83GX49arUZ4eDiqq6v5yPSekQa5/bl74O5bKBRCIpFAJpPx1yaRSMAwDPbv34/MzEyANaSVlZXh9OnTWLJkCRQKBaRSKYQeQbSjoqJQW1uL1tZWVFZWDmrsWCQS8R+YkSbY5xwBBupzcgXK89++UCgUSE5OhkKhgEgkQkxMDFJSUhATE4OkpCQkJCTg9OnTsFqtmDJlCiIiIhAXFweVSgWlUomkpCS+to2Pj4fJZILT6URWVha/LiIiAklJSXC5XHzhBtsUjoyMhFqthlKpRHJyMh98eebMmQgNDUVZWRncbjfS09MRERGBCRMm8PlNJk6ciKysLJw4cQIqlQqzZ89GUlISRCIRxGIxcnJycPLkSWg0GmRkZCAyMpKvebn9w8LCMHHiRISHhyMlJQUhISEICwvDpEmT+KDTXO3Z3d2NZcuWgWEYHDlyBAkJCbBYLLjrrrsQEhKC8PBwxMXFISQkBPHx8Zg0aRKMRiOqq6uxevVqpKamQtpPyE2CIFBdXY20tLQ+w3kOZ58z6IQwAgzGCcHlcuHIkSOYNm0aQkJCBvXV7gvuFfYn8oGgKAqbN2/GunXrfFf1iWfR6e/c/V0f17Tsy8AyWCiKgslkQlRUFGiaxl/+8he8/PLLA/oV63Q6fP3113jiiSd8V3nhdruh1WohlUoxadKkPt9X0AnhIkAqlWL58uWora2FyWSC2yPn5FARXKA/KNg+3Z133um7uF+48w507v62EZynm5wvIpEIUVFRAHsvzz333IDCBICoqCisX7/edzEPRVFwOp1ob28HRVH9CnO4ufCnEuS8ELBzFS+55BJ0dXWhubkZdrudjwww2nBN7IsFrs86EEI/keg9jURGoxFlZWVIS0tDdnb2qAkTQXGOPWKxGAsWLOC9UWpqauBkJyFTwfAdowbDzonlJn9bLBbk5eVBLBbjsssug1KpHJYafiiM7tmC+EXAWkMXLVqEOXPmgCAI5OfnQ6vV8kMQQaEOL5y1nPNc4rybioqKUFxcjLCwMKxZs4bPmDYWBMUZYMjlckycOBGrV69GVFQUbDYbTp06hfLycthsNjidTrjZ4FgUO7mYE26QvuEMT5wgCTaZr06nQ15eHioqKkDTNFasWIFrrrkGUVFRYyZKjqC1dgQYjLV2qFitVj7kSENDA0g2S3NERAQErIuZb4EaTJ/rYsNfceY8lGiaRnt7O7q7u6FQKPgpeYmJicMmxOG01gbFOQKMhDjBesvU1dXh559/xtatW9Ha2gqKoiCVSjFz5kz89re/RUxMDBISErwG6MXs5OGLGZqmQRAESHZ6l9FohFarBcXGTuKcGBITE/kJBiNBUJwBzkiJkyAIGAwGlJeX49SpUzh27BgqKipw1VVX4R//+AeUSiXMZjOam5vhcDhA0zQ/nMAwDERsivWwsDCvwXYRG2doMEMPow3XDPVsujMMA7vdDqvV6uUPyzVbhUIh1Go1kpKSeAu0532N5D0GxRngDKc4uYLY3t6Os2fPory8HLNnz8asWbNw//33Y+LEidi4cSMiIiL47T1fqeffBEFAq9Wio6MDNpuNXydlw09ybnyeiFhvHjEbHIsbevDdbqjQ7JQt7l+CDTDtee0CgYDvX7tcLpAkCQE7LspFEVSpVF7bc9fl+f/RJCjOAGc4xElRFCwWCzo7O3Hs2DF0d3dj7dq1SEhIgEgkQn19Pf7+979j06ZNCAsLG3RB5ATZl4B9iwM3h9NiscBkMoGiKBiNxj637w/Pa5TJZLyDPOeMzs1M8d3Hn9D6Wj7WBMUZ4FyIOEmShMlkgk6nwxdffIH58+fjsssu42eDCIVCUBSFEydOYMaMGUMS5vngK0Lff88XzxqO+3ck72O0GE5xjkyvOMiQYNhg0Fxgr/feew86nQ7PPPMMbrjhBkRERPAzKsB6tSxatGjEhQkP0QjZ0JFc35Rr6p7vjzsOd9yRvo/xSFCcYwjDznPU6/UoKCjA5s2b4XA48Ic//AGLFi1CVFQUxH76dwKBwO/yIBcXQXGOAVxNaTQacebMGWzduhUOhwP3338/li1bBpVKNWzjbkHGL0FxjjIkScJqtaK+vh7btm1DU1MT7rjjDqxatQoRERG9DCJBfr0ES8II4WswoWkadrsdnZ2d2L9/Pw4cOIDbb78da9asgUqlCjZRg/QiaK0dAQoKCpCamorw8HAIhULQNA2r1YozZ84gLy8PDz30EOLj44NN14sMhg0X+ve//x3//Oc/fVcPmaA4R4C2tjZs3boVN954I+9W9r//+79YsWIF5s6de1HNmwziTVlZGSiKwg033OC7asgExTkCMAyD9vZ2aLVa7N69GyEhIbj++uuDNeWvAC5P6HDYDoLiHGY4S2x7ezs+/PBDrF27FtnZ2RAPkO8kSBBfguIcRhg2IdHOnTths9lw2223ISwszHezIEEGRVCcwwTDMGhra8MPP/yAOXPmYOnSpcHaMsgFERTnMEAQBEpLS3HkyBHcddddw9bnCPLrJijOC4Bhp3MdOXIELS0tuO+++/xOuwoS5HwIivM84aZ0bdmyBWlpabj00kv7jRYeJMhQCYrzPCBJEkajEe+88w7uvvtuTJkyJdi/DDLsBMU5RNxuN3Q6HTZt2oRHHnkEEydODPYvg4wIQXEOAZfLhfb2dnz//fd44IEHEBsbG+xfBhkxguIcJE6nE83Nzdi7dy/uvvtuREdHB4UZZEQJinMQuFwuNDQ0IDc3F3fffTciIiJAkiQfhjFIkMEiZPOLDsaVMyjOAXC73WhpacHu3buxbt06qFQq2O12Pi9lkLGHYRMPcWFPAhmpVIrJkycjMjJyQCNiUJz9QBAEOjs78e233+K3v/0tIiMjAQCNjY04c+YMli9f7rvLmMB4RM8bqHDSNA232w2GYSCTyQa1PcMwfBwhsNZqhmEGNbvG6XSCpmnIZLJB1Rb+4K7BN9YQd99OpxMdHR1QqVSIjo722jfQ6OrqwpYtW/DEE08gPDzcd7UXQXH2AUVR0Ov12LRpE5544gk+9yMA1NXVQSAQYPLkyV77jAUURcFms8Fut0MgEEChUCA0NLRP0bndbrz99tsQCoV4/PHH+8zQzGGz2WCxWBAeHg6FQgGSJNHV1QW9Xo/p06cP2O9+5513oNFo8PLLL/OxdYeK7zVwEAQBu93O55A5cuQI7r//fq99A5GXXnoJTz31FGJiYnxXeeH/Df7KYRgGZrMZ//rXv/DII4/wNWagwX1Afve73+Gqq67CVVddhddeew02mw0EQfAJebmAzRSb9/Oqq66CwWDgaySSJOF0OuF0OuFwOPhaGOyX/uqrr0ZNTQ3cbjfMZjPefvttSKVSrz43wzBwuVxwOBxwOp1g2OBlt956K/R6PV/bkmzeS+583DVx+F4LzeY3ufLKK1FVVQUnmx6Rpml0dnbi97//PZ599lkUFBTgpptugtPphMvl4nOdcsfiosWPJ0QbNmzY4Lvw147NZsPGjRvxwAMPYOLEib1qB71eD4FA4FWbjgV2ux0vvfQSdu/ejW+++QZLly7FM888g7i4OCiVSmzevBnTp0/HwYMHcfz4cSQnJ2Pbtm3YunUrhEIhMjIyEBoaip9++glHjhzBsWPHcODAASxYsIDPtaLT6fDpp5/i2muvxd69eyEUCnHNNdfg6NGj0Gg0yMjIANjg05999hm+/PJLlJaWYt68efjxxx+xefNmMAyDrKwsREVFIS8vD3v27EFZWRl27tyJ7OxsvnlHkiQOHTqEnTt34syZM/jxxx8xZ84cWK1WfPLJJ0hMTMTWrVuhUqkQGRmJPXv2oLW1FREREbjyyisRGxuLN954A11dXfjoo48QFRWFbdu24eDBg5gzZ07AuFbm5uZi8eLFA8Y1DtacPpAkiW3btuGWW25BampqQLzMvnC5XDh+/DiuvvpqLFy4EKtWrUJOTg4OHz6MxsZG/N///R9sNhvy8vLw7bffwuVyQSKRYPHixWhpacG6detgs9mwY8cOvPbaa5BIJPjPf/6D7777rleNJpPJUFxcjK+++grNzc146623+GYqTdNoaGjAc889hwULFiA6Ohokm2Jh8eLFoCgK69atQ3d3N/Lz8/Hmm2/yCZk8w3nQNI2jR4/iT3/6E8RiMQ4ePIinnnoKDocDbrcblZWVqKqqwmuvvQaTyQSxWIxly5bBarXitttug8FgwKZNm7Bjxw5oNBrccsstoCgKb7/9NvLy8kAQhMcdBT5BcXrAMAwOHz4MhUKB7OzsPvttgYJIJIJEIoHFYgHFJoG1WCxQKpUQiUS8wYRr3up0OuzevRtfffUVNBoN9Ho9CIKASCRCTk4OHn30UaSmpkKj0Xg1bblzrVu3DidPnsQPP/yA6OhozJkzB2CNUBMmTMDll1+Od999Fz/99BPa2tqwZ88efP7556irq4PBYIDVagUATJkyBb///e8xc+ZM1NfXe51HIBAgKSkJDz30ENasWYO6ujpQFAW5XI6HH34YV199NfR6PXQ6HQ4ePIhPP/0UTU1NMJlMsNlsEIlEuPvuu7FixQokJCRg/fr1kMvlqK2tHXdN28AufaNMZWUlzpw5g9WrVw9o5g4EQkNDcddddyE/Px//+te/8Kc//Qk6nQ733HMP1Go1bDYbtm/fjoMHD4KiKGg0GhQVFeGmm27CpEmTAI8ogXK5HEI2+rqvMDnmzZuHSZMmYfPmzVi2bBnfLGPY6A+33HILnn/+eVRUVODQoUM4cOAAbrrpJkybNo3/UADgx/n8nYthGHR0dODbb7/Fvn37MHHiREgkEgjYHKScxVer1eLo0aNYvXo137TmjiWVSvkPF/eB9T3PeCDY52RfnMlkwnfffYfHHnsMcrm83+ZsoPQ5hUIh5syZg5iYGBQUFCA3Nxd33nkn7r33XqjVavT09KC+vh4rV65EUlISbrvtNpAkierqaixfvhwqlQrXXnsturq6MHHiRFxyySXQaDSYMWMGpk2bxguira0NV111FcLCwtDd3Y2zZ8/iH//4h5e10eVy4auvvkJFRQWWLFnCDxWUlJRg1apVkMlkuPbaa+FyuaBUKnHZZZehp6cHCQkJWLp0KcAauPLz89He3o7IyEjIZDL8/e9/R0xMDDQaDa6++moI2HSGt99+OyQSCcrLy7Fq1SrI5XKsXr0anZ2dWLlyJWQyGSQSCVauXImGhgZccsklyMzMDIjW0GD7nGCCMG63m3n//feZqqoqhqIo39W9qK2tZerq6nwXjwk0TTMEQTA2m43ZvXs3s3btWsZqtTI0TTMul4txOp2My+ViCIJgKIpi3G43v8ztdjMURTEkSTJut5th2GdBkiR/fG4fiqKYI0eOMNdddx3zxBNPMA6Hw+Mq/t91OJ1Oxm63My6Xi6FpmnG73YzD4fA6F0EQ/LVw/+dwu93MG2+8waxatYqx2+2M0+lkKIryugaSJBmCIPhr5u7F5XIxFEXx/3LruedAkiRD07TXNY8VL774IqPVan0X9+JXP85JkiQKCgrQ1taG2267bVAD5YE0zukJRVFwu90D1vzni9FohNlshkqlGpEkSlwLxmazITExcdiPHygExzkHARfsubCwEDfddNOghBnIiEQihISEjFihVqlUmDhxIsLDw0fkHAKBACqVChMmTBiR4483ftXidLvd+Oqrr3DDDTdALpf7rg4SZEz51YqTIAg0NjYiPj4e6enpvquDBBlzfpXiZFhXs2+//RZXXnllsAkVJCD5VYrT7XajoqIC11577Xk7YwcJMtL86sTJMAysViu+/fZbzJ0713d1kCABw69OnC6XCyUlJXj66acHNR8xSJCx4lclToZhoNfrcfDgQUyYMMF39a8ezsWOpmm/P4qihv3new6ancb2Kx9+B35tk60dDgdyc3Mxffp03rf0fAhUJ4TB4O91c8u4uEicQLh1ZrOZn9RstVphsVh6OZH7Oy7Y5b4uc3K5HKGhoVAqlQgPD0dYWBjEYjFvmBMIBBCLxRCLxfy+/ox2/paNBwbrhPCrEmdrayu+/PJLvPjii70KzFAYr+L0nHTtcrnQ0dGB7u5u0DTNC0Imk3lFrmcYBnK5HFKpFDKZDDKZjHeSP1/cbjfcbjc/EZqbDM2JjWZDqbhcLlDs1DUu76VarYZYLIZIJOId3McbQXH64HK5kJeXh5SUFGRlZfmuHhLjQZxcJAS73Y7W1la4XC6+yQp2ZoharfZy3h+oJhpo/fnQX/HzXEcQBHQ6HR/BQSAQQMDGNVIqlUhOToZEIoFUKg34GUVBcfrQ0dGB7777Dr///e8vOKdJIIqTpmk4nU6YTCbodDo4HA6YTCYoFApMnjyZjxXk2XT0/Hc84NnU9vzXbDajoaEBFEUhKioKUqmUjwYxmCBmo01QnB6QJInc3FxERERg4cKFF1wgA0WcXPPPaDTCYDCgsbERarUaaWlpXn017jdeYdjof33BsAYk7kfTNKqrq2G1WjF58mSoVCqEh4d7ze8cSwYrzrG/0lHAbDajtbUVOTk5/b7k8QLDejjp9XocOHAAWq0WsbGxWLx4MdLT0/khIq6gUhQFgiB4Y48nJJuUievbnS8kScJgMJxXLF+GDfzl7xrcbje6u7vR3t4Ol8vluxpgP0BCoRAikQhisRhSqRTTp0/HwoULERUVhZaWFuTm5sJgMPDN+/HARS9OmqZRU1ODuLg4hISE+K4OSDhB+StENE3D4XAgPz8fVqsVixcv5vtbntEFioqKcPToURw8eBBHjx7F6dOnsXfvXq8CzrAxX1966SU0Nzd7nWeo9PT04PDhw6isrPRdNSAEQWDv3r3o7u72Wu5yuXDw4EEYDAZ8/fXXQ/qwcmKVSCSYPHkyFixYAIPBgMLCQtjtdr8fgkDjohen3W5HRUUFFi9eHBBNmsFgs9lw6tQptLe3Q6/X8197hmFgs9mQn5+P7OxsqFQqSKVSv/cll8tB0zTefPNNCIVC0DSNU6dOobOzE93d3XA4HCAIAhUVFXjggQfQ3NwMmp1Cp9Vq0dbWBr1ej+7ubnR0dMBut/PH5mpJjUaDnp4evraUSqWIiYnhr1Or1XrFKuKwWq3o7OxER0cHenp6QBAETp48iZaWFmg0GpjNZjAMg5aWFkgkEpw+fRqPPPIIbDYbv59Wq4VWq0V3dzecTid/bH8IhUL+2tLT01FQUAC73e734xdIXPRhStrb29HT04NZs2YNm9l9pMOUSCQS2Gw2/POf/0RBQQGsVitCQkJAEARqa2v5kJZ91SQCgQAJCQkICwvDvn378MgjjyA8PBy7d++GVqtFfn4+1Go1ZDIZNm3aBJIkUVxcjBkzZuD48ePYtm0bOjs78cMPP6C9vR2HDx+GWq2GWq2GUCiEyWTCpk2b0NXVhbq6OmRnZ2P79u180K1LL70UJSUl+OKLL9DT04PNmzdj6dKlfMvlwIED+Pbbb6HT6bB3717MmDEDRUVFqK2thUajQWlpKebPn4/Dhw+jo6MDJ0+exOLFi/H111+jsLAQZ8+eRWFhIRobG3HkyBGkpKQM6l0IBAJIpVJERkaioaEBMTExY2LZHWyYkt6f3IsIgiBw+PBh5OTkBLyrHs0Gf3Y4HLDb7YiPj8dTTz2Fzs5O/PGPf8S6devw3nvvoaen57znniqVStx1111YsWIFDh06hMbGRoSFhSE9PR1hYWGorKyE2WzGlClTsG7dOrS1tWHt2rW47777UFJSApINIk1RFLRaLZKTk7Fy5UqQJInk5GSoVCpUVVWho6MDVqsVsbGxWLt2LUJDQ2E0GvnrsFgsSE5Oxtq1azF58mT09PRAKBTiuuuuw/3334/y8nIwDIPJkycjIiICMTExqKiogE6nw7Jly3D33XdDq9VizZo1uO6665Cfn+9xlwMjl8v5fnggc1GL02KxwO12Y+LEib6rxhTOAOJwOGCxWGA0GtHR0YGqqioUFBTgwIED2LlzJ3766Sc0NzdDqVTyAbjkcvl5F6qoqCjI5XLIZDLeCUAul8PpdGL27NlITU0FAMTGxkImkyEqKop3PCAIgm8GhoWF4fHHH0dNTQ1efPFF9PT04MCBA8jIyEBkZCRsNhsAICEhATKZDEql0qsJKRAIeIEolUrQNA2hUIiIiAg+0h5JknjrrbeQlJSEzMxMmEwmCIVChIWFQSaTQa1W884RDoeDP/Zg4O5lLGrNoXDRipNhGL7JNdaGIIZheK8cq9UKg8GA5uZmlJeXY9euXfjwww/x5ZdfoqmpCYmJibjiiitwyy234JJLLoFSqcS9996LDz74ACtXrkRycjK6u7u9xNIXYrEYISEhEIvFkEgkkMlkvDUzNDQUGRkZaG1thVKp5LcJCQnho71zbnWcQLm+rd1uR21tLWbMmIHw8HDe8GI2m6HX6yEWi/mPgEAgQGhoqFfLhWEYFBYWori4GPn5+UhMTIRcLueFGRERAQGb94UgCBw/fpy/Zs7JQC6X89ccGhrqcdd9w7AhPLVaLVQqFT/2G6hctOOcbrcbb7zxBn7zm98gPj7ed/UFMdhxTooN9EySJKxWK3Q6HQoKCnDmzBnMmzcPK1as4Gsn32a30+nEs88+ixdeeAFxcXH8V54kST5AcmxsLO9/6q//yTXdJBIJGHZYRSQS8dZgqVQKp9OJxsZGxMTEIDo6GhRFQSgUQiwWw+FwQCaTgWZ9bblzEQQBs9mM7u5uJCcnQy6XQ6/Xw263Izo6mk94JBAIIJFI4HQ6IZFI+HvYvn07HA4H5s+fj/j4eISGhoIgCP68NpsNoaGhMJvN6OjoQEJCAkJCQkBRFMSsDy53L5zg+vsAc/dOkiQ6OjogEomQmZk5bDaIoTLYcc6LVpxdXV3Izc3FmjVrhv0L2Z84uSYrySbkOXfuHLZs2YL4+HisXr0aiYmJUCgUAxYMrnD7246maZhMJuzcuROXX3455HI5RCIRBB5p+gKZvLw8CAQCrFixwnfVsMJ9VCiKgtPpxNGjR3HNNdcgPDx8TJ/Tr1qcDMNg//79SElJQWZmpu/qC8afOGl2upPT6URrayu+++47xMbG4oorrkBSUlK/1tXzhaIodHd3o7CwEBMmTEBycjI/tMKda7jPGchwRZmrKd1uN58KYv78+VCr1X4/dqPNr1qcbrcbL7zwAl555ZVBmdiHiqc4uYJgtVqRm5uL8vJyXHLJJZgzZw4iIyNHRRwMw6Cnpwfd3d2or69HeHg40tPT+f7lxSxUrvhyYnS73aiqqgJFUUhLS0NcXBzfhw0UftXibGlpQVFREVavXn3BTu7+4MQ5adIkGI1G7N69Gz09PVi6dCk/njpWhYFhGBiNRmg0GlitVpjNZohEIqSkpCA0NJQ33gRCDXK+kGwGM4qi0NPTg/b2dgiFQkRGRkKhUGDixIkj0lIZLn7V4ty9ezdmz56N+Pj4EXlB586dg9VqhUajQW1tLVauXIns7OwxFaUvjIcjuNvtRkNDA6xWK+8WyA1fREVFQaVS8dct9pnkPNpwfUTSww+YIAjo9XpYLBYwHunnRSIR1Go1kpOT+Y+NYBw4+f9qxck1af/0pz8Ne2Q9hmFgt9tx5MgRHDp0CDfeeCPmzZs3poV5sHiKlfuRJInW1lZ0dnbyvqZSqdTLssrBDcVwQxm+1uXBQntk2uaaoZxzg4BNUkQQBFwuF2h23qZMJkNycrJXn5ET4XgQoy+/WnHW1dWhoKAAt99++7A2abnxsYMHD6K+vh5r167FlClTxnXzEB4WTQ5P8XpuYzKZYDKZvEKWcNsPFq62CwsL40OUhIeH8ykkOJH5is737/HOr1ac+/fvx4IFC4bNCMCwTtzNzc34/vvvsX79evT09EAqlfodSrlY8RSsr3iHgq/gPJf9WhisOAO7LTZEKIpCYWGhl4XyQqBpGgaDAT///DMqKyvxzDPPICYm5rybdOMZATuGKvSYN3k+PxGbAJfrNw7He7pYuajEqdFoEB4e3qu/dD4QbMyaTz/9FFOmTMHq1avHfPA6yK+Li6qkVVVV4YYbbrhgcXKR6b766ivceuutmDVr1rB7GQUJMhAXjTgZhkFtbS0SExMvqHZzOp2orq7G1q1b8eCDD2LixIkXLPYgQc6H8y/FAQY32+NC+jBOpxPl5eU4ePAgfve730GlUl2Q0IMEuRAumpJXXl6OxYsXn3ct53a7UVpaimPHjuHRRx8d0QzRQYIMhotCnAzDoLy8HEuWLDmvcUe3240zZ86goKAAjz32GORyeVCYQcaci0KcNE3DbDaf1xAHSZKoqanBkSNHsH79+mF1XAgS5EIY9+JkGAbd3d0ICwsbcm1HURQ6OzuxZ88ePP744+cl7iBBRopxL06apnH8+HEsW7ZsSE1amqZhsVjw8ccf49FHHw3WmEECjnEvToZhUF9fj4yMjCHVnHa7He+88w4efvhhhIWF+a4OEmTMuSjEybmDDRaHw4H9+/fj2muvRUJCgu/qIEECgsGX6ACEpmloNBokJSX5ruoTgiDQ1tYGnU6H2bNnD6m2DRJkNBnX4qQoCkePHsXcuXMHJTKGYWAymfDBBx/g7rvvPu8x0SBBRoNxLU6GYdDQ0IC0tLRBiZObKP30008PGAo/SJCxZlyLk6ZpREdHD6q/SZIkmpqaoNfroVarByXmIEHGkoFLdYBC0zS0Wi1SUlJ8V/nFarUiLy8Pt956a3A8cwgwHgGZudAiLpfrgn5utxsEmy+Uoqhe0RiC/D/GbSQEt9uNH3/8EXPmzMHUqVN9V3vhcrlw+PBhyGQyLFu2bFA1bX/4i1s7nqB98n9yAuR+HAwbZ8jlcsFms/FpA11sjs/zKTrcpG0uz4lUKoVCoYBCofCafO05udtzObfsQt/hWDLYSAjjVpwOhwN//etf8eqrr/Y715JhGHR1deGnn37CvffeOyx9zfEgTk5ovsJjGAYWi4XPQs14BPsiSZL/G+yzE7O5UkJCQvi8K/0978FAs8G3uZrY4XD0SkYkYOMNidngaZwYQ0NDERkZyadf4CIzcAIOpAiIfXHRi9Nut+ODDz7AU0895bvKC6fTiR07diAjIwMzZ870XX1eBJo4GTacpOe/DocDer0eNJsJmxOjQCBAZGQk4uLivFIJcmPFgVIj+X5UuGUmkwldXV2w2+0QCAQICQlBVFQUxGwA7aioKEgkEq8alqt9A4WLWpzcSzp69ChuuOEG39U8DMNAo9EgNzcXd9xxx3nntfRlrMXJ1W5c85RLLORyuVBfXw+r1YrIyEhMnTqVFx1XA11scDFuGTYQW01NDZxOJ6Kjo5GSkgKpVMqHrgmUJvFFLU6CIHDkyBHExcVh+vTpvqt5XC4XPv/8c1x22WUD9kuHwliJ01OQTqcTNpsNx44dg1wux8yZM/m4smNd+AIB7qNltVpRUlICsVjMZ5OWyWReQcZGm8GKc1y+RYLNWJ2cnOy7yguDwYDw8PBBW3QDFa656nK50NbWhv/+979obm4GAKxcuRKXXnopIiIi+HyYHJ79zPPB337cB8Lfuv7g7mGo+8GjpeALd0wuNYMnIpEIcrkcMTExuPLKK7F8+XJQFIXq6mrs2LEDnZ2dcLlc531No8G4FCdN03C5XP1GdCdJElu3bsXcuXMv2IAxljAMA5fLhZKSEhQWFoJhGFx55ZV87hOhUAiGNejY7Xa42EjpAGCz2dDa2griPDNh2+32XoXe5XJBo9HA4XAMSahOpxOnT5/mg1EPBc5wxN0XB0mSaGtrw7fffouuri6vdb6IRCIolUpkZGTgiiuugNvtRkFBAU6fPg2XyzWoexhtxqU4GYbptzkLADqdbtzXmgzDQKvVoqioCHFxcZg1axaioqK8mq0Ma/zZuHEjXnzxRbzwwgv45ZdfQJIkfv75Z2zZsgU9PT1exx0sf/nLX3qJ6ezZs/jqq69w+PBhOJ1O7N69G0aj0Wsbf1AUhfLycmg0Gt9VA9LZ2Ylvv/2WH8IBO5SWm5uLHTt2QKFQIDIy0muf/hCJRIiOjsbs2bMRExODwsJC9PT0BJxARRs2bNjguzCQodiclEqlss8ZJQzDYOfOnVi0aNGIeAPp9XoIBIIRSS/oSWdnJ+rr6zFt2jR+HNAXt9uN77//HgzD4KWXXsIVV1wBAJDL5Thx4gSkUikSExOhUqlQXV2NM2fO4ODBg2AYBnFxcRAKhSBJEmfOnEFNTQ3279/PW0C3bNmCkJAQHD16FImJiRCLxThz5gxcLhcUCgUiIiLw73//G06nEyqVCpGRkWAYBjqdDtu2bUNxcTH/cTx06BBaW1uRkpICuVyO4uJilJWV4eTJk0hKSuKHRhiGwblz51BeXo79+/cDrJgKCwvR1NQErVaL+Ph4mEwmHD9+HBKJBJdeeilUKhVKSkr4ewgPD8fRo0dx5swZTJ482a/jCWftVavVqK6uhlAoRHh4uO9mw05ubi7f/+2PcVdzcsagvoQJAD09PWhoaEBiYqLfAj0esNlsKCoqQmZmZr8O+gRBYP/+/bj66qshkUggl8t549fMmTORk5ODN954AwaDAfn5+di3bx9ycnLwzTffQKfTAWw34eDBg8jPz8f8+fOxceNGkCQJq9UKu92O+Ph47Ny5E263GzExMZgzZw5Onz6N9vZ2xMTEID09HdHR0QArrs2bNyMiIoKf9SMSiRAREYGFCxfik08+QXNzMzZv3syL/L///S9/PzRNo7i4GNu3b8eiRYvw7rvvwuFwoLKyEpmZmThw4ACff3PmzJlITEzEhg0b4HQ6sW/fPpSWliInJwfr169HZGQkmpubUV9f36t57olYLEZWVhbOnDkDs9nsu3rMGHfidLvdOHHiRL+1VmVlJe66665hGzoZKRg2l6ZOp4PRaITT6eSbVgaDYVDRBAWsJ41n4RMIBNDr9Thx4gTy8vKg0WhgMpkgFAqxZMkSzJgxA3PmzIHBYAA8DD+XX345b/UFgLCwMKxcuRLz5s1DR0cHjEYjampqcODAAXR2dqKpqQnh4eGYPHkyX+MIBALMnTsX+fn5OHHiBAg2fV9xcTFyc3PR3t6Ojo4OqNVqLF++HLNnz0Z5eTl/7WAFumzZMmRnZ2PhwoVwOp2YM2cOZsyYgenTp0Or1cJsNiM3NxfHjh1DZ2cnnE4nBAIBLrvsMsyfPx8TJkzAokWLMH/+fJw7d65Xf9UXkUiE+fPnD9h3HU3GpThVKlWfYUVsNhu2bdsGtVo9LoYU5HI53n//fTzyyCP4xz/+gQMHDuDUqVPQarWwWCwDFiqpVIoVK1bg8OHD6O7uRkdHB5qamlBRUYHFixfjzjvvhFQq5Ydg2traoNVq0d7e7tVPEwgE/OA9h5D1vhGJRGAYBgaDAd3d3bjzzjuRmZnJn99oNHp5+EydOhX/8z//g7i4OOzbtw9dXV2YOHEi7rrrLsTExIBmc4Ny3jz++nqNjY3o6elBV1cX7+rHDX8wDIP8/HwsXboUd9xxB+/pBLYWFAqF/L2IRKJBGa0Y1vAWSB/0wC+9PjidTixYsKDP5mp9fT1uuukmvg8TqDAeSWIffPBB3Hfffdi3bx8effRRPPjgg3j55Zfx3Xff+bVSeiIWi3HPPffA5XLhf/7nf/DCCy9Ao9FgxowZePfdd/Haa68hPj4eYWFhEIlEqKmpwSuvvIKQkBCoVCr+GJGRkVAqlQCAiRMnQiQSITExETKZDAqFAiqVCsnJyTCbzXjttddAkiQmTJiAO+64A2+++SbKysr4azp48CBeeeUV7NixA9dddx0mTZqEvXv34m9/+xvCwsKQkJAAlUqFkJAQKBQKxMXF8ftydHZ24tlnn4VSqURsbCwiIiIgFosRFRWFiIgILF68GB9//DE+/PBDTJo0CQqFAlFRUVAqlRAKhUhJSYFIJEJkZCR/731Bsynrjxw5gvj4eN/VY8a4ckIgSRKVlZWIiIjwa4WlKAr/+c9/8MADD4xo2vHzdULgnMidTidcLheamppQUlICjUaDSZMm4ciRI6isrMS8efPwwgsvICoqCocOHcKiRYsgl8v7LGCMx1CKSCTiA2I3NjaipaUFixYtglQqxXfffYfo6GhccsklvMMCtz9FUXz/0O12QyKRgCRJ/pxcMTGZTPjmm2/wwAMP8OOqBEFAxKazB9sPdjgc/LWA/agyrK+u0MeljqIofl+aprFt2zaEhYVh4cKF/HCRZ/Odq2056y2X7Jdmk+1y9yCVSkGSJL+vv/JAsQ4d+fn5uOqqq0bFIDRYJ4RxJU673Y7t27fjuuuu47/6nrS2tmLLli1Yv379iI5tDlacjEeWZqfTCY1Gg6KiIrjdbqSkpCAxMRFqtRoRERGorKzE66+/jocffhiXXXYZQkNDAXaq25kzZxAdHY3o6GhIJJI+ReqLzWYDRVF82FCNRgOpVAq1Wu276aBxu90wGAyIiYkZ9HUMBYZh0NHRAYlEgpiYGL+CGg5IdgqcXq+HXq/HjBkzoFQqR+x8nlyU4jSZTPjHP/6BP//5z35N4zt27MDs2bMxYcKEEe1vDiROzxqyrq4O5eXlkEqliI+PR0ZGBtRqNaRs+nawBX7Hjh2YO3cu36T0hCAINDc3o6urCxEREXz69YvVX3akoCiK/3V1dcFisSAuLg4pKSl+y9NIMVhxjqs3a7PZEBoa6vdBulwunD17dkwNQW63GyaTCQ0NDdi1axd++OEH6PV63HjjjVi7di1WrVqFlJQUKBQKLyusQCDAjTfeiNTU1F7CBNtsmzx5MubPn4+QkBDU19ejoaEBBoMBTnbqFef8HeT/h2YnibvdbjidTuh0OtTX16O+vh7h4eFYsGBBn2OggcC4qjlrampQXV2NG2+80XcVTp8+jdraWtx8880DDj9cKJ41J8MwcLNzEhsaGlBSUgKSJLF69Wo+C/ZwN5Uo1s+2pqYGWq0WsbGxkEgk/NQprn/VX1/rYoPxcCXk/nW5XDAajXC5XOjp6UFycjImTZrEW37HisHWnONGnBRFobi4GNHR0b2akwzD4KOPPsJdd901ooYgjrq6OoC1ajqdTjQ2NmLnzp2YOXMmLr/8coSEhIxa7c1ZGh0OB06dOgW73Y7ExERERkZCJBJ5GVS4H9ja2vPv8QDDOsBzRdbzb4IgYLfb+T6rTqeDWq3GzJkzIZVKew0TjSUXnTgdDgf27NmD5cuX894oHC6XC2+//TaeeuqpEW+iMGySXoIgoFQq8fbbb+PGG2/E4sWLR9QINVi4mpyiKGi1WpSWlsJqtSI8PBzp6em8NdJfn7U/sXqKejjwFJg//K3nhp64mrGjowP19fUgSRLx8fGYNWsWFAoFJBLJiJeDC+GiE6fRaMQXX3yBRx55xGugmKZpnDhxAlarFStXrhzR5gr3ha6oqMD//d//4YYbbvCyrAYyBEHA6XSCZMORtLe3o7m5GVarFWCdIdRqNeLj4/nxTg7PoQzPWtiTvoqRv+24H+0xpc1XhD09PdBqteju7gbDMBAIBIiNjUVqaioiIiIgEokglUr7HWIKVC46cXZ0dOCzzz7Diy++6PXCSZLE22+/jfXr14+odwdN07DZbMjLy8OxY8dw++23Y+7cub6bjUsYdpzT4XDAbrfzU8w40XA+ttyUNE7knkWnr2LkK06BQAC5XA6JRAKlUgmlUsk3vT2FL5fLIZfL+TFb3+OMZy46cVZWVqKsrAxr1671Wu52u7Fp0yY8+eSTI9anIEkSzc3N2LZtG5YsWYLY2FiIRKJefd8gQQbDYMU5MqV5BOjp6cGUKVO8lnFGolmzZo3Yl9Vut+PQoUPYt28f7r//fixZsmTEPgJBgngyLkoZQRAwGAy9wpJQFMW7t42EOI1GI/773//CYrHgoYceGtMx1CC/PsZFSXM6nTCbzb2c2Wma5vsswwnDWgK/+OILZGdn4/rrr4dUKh2RD0CQIH0xLsTpcrlgsVi8xElRFJqamvipS8MFTdNobm7Gv//9b6xduxbTp08fEUeCIEEGYlyI02KxePmigjXS/Pzzz8MWKBqsMBsaGrBp0ya8/PLLiImJGXFvoyBB+mJciLOrqwtJSUletRfFhkS8kBkWntA0jXPnzuH777/HK6+8gvDw8HE3fhbk4iLgxcmwuU48jUE0m2Jg5syZw9LcpCgK586dw+7du/HYY48hIiIiaPgJMuYEfAkk2KjdnjUkQRA4ePDgsERxpygKzc3N2LNnD+6//36oVKqgMIMEBAFfCp3sDHpP7x+SJHHixAlMnDjRa9uhwrmJ/fjjj7jnnnsQGRk5LDVxkCDDwbgTJ+dqlp2d3WeQr8HAueN98cUXWLNmzYjEtw0S5EIIeHFaLBbIZDLeakqxQaUXLVrku+mgYdi5ftu2bcPKlSuRmprqu0mQIGNOwIuzvb0dsbGxfK3GhfToL6j0QBAEgcbGRkRHR2PWrFm+q4MECQgCXpwajQaxsbH8306nE7W1tf0Gle4PmqZhMBiwefNmXHPNNcGmbJCAJaDFSZIk9Hq91+Rqh8OByy+//LxFZbVa8fHHH+OJJ54I6Am5QYIEtDidTidCQkJ4tz2CINDW1oaFCxf6bjoo3G43Hwl9uJwXggQZKQJenFwmYu7vgoKCAefB+YNzZjh06BCWLl3quzpIkIAjoMXpcDi8QmE6HA50dnaeV8QDLkX7PffcE2zOBhkXBHQkhJMnT8LpdGLZsmUAGxqzsrISN998s++m/ULTNKqqqnD8+HE88MADF+zMPlBQ6fEKw6Z1oCgKtEd+FpqmQbDZpQmCAEEQfOyfoSIQCCAWiyFhUyhwkfE4G4KAjVXkGeLzYmOwkRACWpzbtm1Deno6ZsyYAYIgUFhYiNTUVEyYMMF3034xmUzYsmULbrvtNr9pHIbKeBanZwQ7io1/y8UMcrlc0Gq10Gq1fNYwhs1volQqERERgbCwMCiVyvOONMjFJLJarbDZbLBYLHxOTE6IUVFRiI6O5tMxCAQCSKVSPjeLv8iB44lxL06GYfDOO+9gzZo1SE5OhsViwdatW3HrrbciLCzMd/M+oSgKRUVF6O7uxvXXXz8sM03Gizi5Go8TJMWGyzx37hxvbEtJSeGt4VytJWJT83nCiYT7XQiMn/iznnAfDq72ZhgGGo0Gra2tYBgG4eHhyMzM5LOHicXicSXYwYozYO+EYBMAcVEOnGwioIFSdftisVhQVlaG5cuXD4swAx2SJOF0OmGxWHgD2NGjR9HW1ga9Xg+5XI6FCxfisssuw+LFi5GUlITQ0FCEhoZCoVDwkfHEYrHXT8TmxrxQYcLnI8CJyvMnlUoREhLCX1doaCimTJmCFStWYMWKFZgxYwbvF11fX4+8vDzk5+dDr9fDYrHA6XSC6ieT9XghYMXpdDoRExPD+892d3djypQpQxIYTdMoLy9HWlrakGrb8QbDBpK2Wq2ora1FUVERGhsbYTKZMGfOHMybN4/PaKZSqSCTyXgBCtlktEOF8Yg7O9xQbFo+7ro8m7ISiQQhISGIioqCWq3GpEmTsHDhQkybNg3d3d2or6/n799ms8HtkVh3vBHQ4oyNjYVUKgXFZoUaqqud1WrF6dOnMW/evCGJOpDoz/DCsAYcm82G8vJyVFRUQCKRIDs7m08xyPXTPPuZXER4iqJgt9uh0+l8Dz0gFEWhpaUFRqPRd9WgcLlcsNvtXssYhoHdbkdtbS327ds3qNpPyGaxDgkJQVJSElJTU5GdnQ2KolBRUYGKigrY7fZecXbHAwEtzujoaIjFYrhcLuh0Oi83voFg2LQJ06dPH5WEqCOFxWKBVqvlU7tzhYwTZl1dHU6ePInExERkZWXxHzTP5idBENi7dy8sFgsMBgP27NnDG4M2b97MC4xm8674q224dZyl1ul0orm5GT///DPg8aHgrLm++3IfBe76z549i7y8PBBshjSwTfL9+/ejpqYGdru918eEO35/tTVnPEpISEBGRgYSEhJQVFSE+vp6EATR674CmYAVZ2dnJ59C3OFwwGAwDCnKHpdbZfr06eO21gSbJuHrr7/Gm2++ib1796KqqorvW9XV1YGmacyePbvfBE5isRj19fU4dOgQduzYwdck9fX1vOWVoijYbDZUVFSgvLwcFovFyyCj0+lw+vRpVFdXw263w2QyweVyIScnh+/jnTt3DlVVVSgvL/cSuNPpRFNTE8rLy3Hu3Dk4HA7o9XrU1dWhtLQUTU1NIEkSFosFDJvy4sorr4TZbEZjYyNKS0vR2NiI5uZmlJaWwmg0DkpkQqEQoaGhmD17Nmg2PhT3IRgPBKw4m5ubeTEaDAZIJJIhzd/s6urCokWLhmXoZDRh2L4cV0sAwEMPPYTExET85S9/wd1334177rkH33//Perr6weVKFgikeDee+/Fjz/+iDNnzuC6665Da2srXn/9dURHR+Opp56CyWRCXV0dmpubUVRUhHfffZc/P8Mw+Nvf/oba2lo0NjbCYDCguLgYJEli8+bNaGxshMvlwlNPPYWqqip8/vnnqKio4MVtMpnw/PPPo76+Hu+//z5KS0tBURTy8/PR2dmJJ598Enq9HtXV1RAKhWhtbcU333yD8vJy/OlPf4JOp8Pvfvc7bN26FSdPnsTWrVuHJDKhUIjExERotVp+2GY80P9bHUOampp4n9rW1lakp6f3WTP4QhAEvv32W2RnZwe0N5CvEN1skler1QqTyQSdTofjx49jy5YtqK2thUQi4Zu5DQ0NyMzMHNQz4c5DEAQUCgVomkZdXR0eeeQRLFu2DMuWLUNtbS1iY2NRUlKCoqIiXnwcUVFRKCsrw8SJE6FQKBATE4Ndu3ZBo9GgsLAQADBlyhTcdtttWL16Nc6cOcOLk6ZpzJo1C9dccw3Wrl2L0tJSCIVCrFq1CitXrsSKFSvQ09ODpKQknDhxAmVlZTh58iRIksQVV1yBlStXYurUqbjppptwyy23wGg0wu1289c2GAQCASZNmsSP344HAlKcFDsep1AoQJIkOjo6hjSmqNPpEBcXd97TykYST0G63W5+yOPAgQP45z//iSeffBL/93//hyNHjqCjowOTJk3Ctddei9WrV0Mul+Pmm2/GTz/9hOeeew5tbW399r843G43PvnkE6xbtw5JSUk4cuQIZDIZ9Ho93G43dDodJBIJ3n33Xdx5553YsGGDl+gFAgGeffZZPPbYY9i3bx+2b9+OLVu24KWXXsJjjz0GkiQhEAi8nAR8m509PT1wuVywWq188lqubywSieB2u/G3v/0NDz74IF599VX+vrhjcvtwrQTf4w8ETdNobGzsFZg8kAlIcTocDiQmJkIsFsPhcIBmI7sPlhMnTuCaa645Lx/ckYLrS5lMJlRUVODjjz/Gq6++ii1btqCmpgaTJ0/G+vXr8Z///AfPPvssbr75ZsyZMwcpKSkwGAzIzc3FO++8gzfffBMTJkxAeHg44uLiBiXQ6upqREdHY8WKFbj99ttRXFyMiRMn4sCBA3zWtmnTpmHp0qV488038f7773uFBqUoCm+//Tb+9a9/ob29HUuWLEFkZCT++c9/4siRIwgLC4NQKOQNb1xqPk+BOxwOvPrqq/jxxx9x5ZVXQiaTQaFQQCgUQiaTITQ0FMuXL8ebb76JTz75BJGRkVAoFJBKpRAKhfz/JRIJZDLZkOwIFEWhvb2dH0oaLwSkh5BWq8WRI0dw/fXXw2g0Yv/+/bjzzjshHoRPrMViwYYNG/Daa68NSdBDYbAeQgwbDsVgMKCwsBDnzp1DVFQUUlNTMWXKFL6/yBVif01Ul8uFpqYmPl265zacEaa1tRU5OTlQKBR+j8G9YoFA4FXjUBQFq9XKe9owDAObzQaZTMY7CXhua7PZEBISArFYDIpNGcidUygUgqZpr3FT7lra29vxww8/4O6770ZYWBhvO2AYxmt77vyeOTcFrEcSTdNe9+bvPn3hjldeXo6JEydi6tSpQxL1SDFYD6GAFGdLSwu6urowd+5cVFRUoLm5GTfccIPvZn4pKiqCSCTCrFmzRuxFDCROt9sNo9GIoqIitLa2QiqVYtasWcjKyuIF5inK/vAt6L7QbKCyiooKuN1upKWlQaFQQCwW97nPaONwOFBTU4Pp06cP6gN7IXAtFKvVytstZsyYwX9wAoFxLc7Tp08jPDwcqamp2LFjB5KTkzFnzhzfzXpB0zTeeecd/Pa3vx2xWhN9iJP7StfV1aGiogJdXV1YtmwZn2tFxPqrjoRgGLYf63K5eEOMXC5HXFwcpFIp3zQcKwb6wFwo3Fiow+GATqeDw+GAXC5HTk4OJBLJoD+Eo8VgxTl2b6wfmpqaIJFIQJIkNBrNoGehtLe3gyCIUbXQ0jQNo9GIkydP4rPPPkNZWRluuOEGrF+/HnPnzoVCoRjxAiJgjSoKhQILFizAggULkJGRgXPnzqG4uBgtLS1oa2vjHRncbveA/dThZDg/SpzzhMPhQE9PD1pbW9HY2Iji4mJ0dHRg2rRpWLRoEebMmcM3j4fr3KNNQNacGzduxJ133gmFQoHt27fjlltuGZRv7M8//4zZs2cjISFhRGsKbvA/NjYWGo0G3333HS6//HLMnz+fD+M51gWCq01p1suGIAiUlZWho6MDoaGhSE1N5Y02nJ8tPIQ+VoWau16Kdd3jmqncsI7BYEBLSwsoisKUKVN4f2shm7Z+pLoyw8lga86AEyfDMHjiiSfw6quvgiAInDhxAtdff/2AtSFJknjrrbfwxBNPjKiVlqZpVFZWwmq14scff8SNN96I6dOnQ6lUBnTB8BUrV3s6HA40NDSgu7sbNE1DKpUiLi4OarXay+mDq/24FsD5CpfxmC7GXROHQCCA2WxGZ2cnenp6ANa7adKkSUhKSoLIw/l9PInRl3ErTrfbjccffxxvvfUWmpqaoNVqcdlllw1YGM6dOzeiYUgYD8vrxx9/DLVajTVr1iAyMnLEjRwjCcNG0OdEQrEzQpxOJ7+MYRg4nU44HA7Y7fZeTuuc0Pp7R9w6sVgMuVwOhULB/zyb/BKJBHK5nP/Ach+EkewWjDbjVpx6vR4fffQRHn/8cezZs4ePhDAQX331Fa688kqvANTDBTeMUFxcjJqaGqSlpSE1NRXp6em+m160cLWcZ63HLR8s3HvxrYGH+30FOoMV58h1zM4Tq9XKu+o1NDQMKoQlSZLo7OxEVFTUsL9ol8uFrq4ubNmyBS6XC+vWrUNaWtqI9mkDEYHPnErOCiyTyQb94/bhrNcXU204EgRcCePESZIk5HL5gDNRGIZBY2Mj4uPjh1UwDDu3sLy8HD/88AMuv/xyrFq1CoohRmIIEuR8Gb7SPEyYzWYkJSXxLnyyAQJJ0TSNQ4cOYeXKlcMmTpod2D906BDOnj2Lhx56CKmpqePS+BBk/DI8pXkYaWtrg1AohN1uR0JCwoDGHZrNfTJcfU2apmEymfDZZ58hKioKd955J5RK5bAcO0iQoRBw4mxvb4dAIEBdXd2A6d8ZhoHBYBi23Jqc0P/6179i7dq1mD9/vtdwQpAgo0nfJX+MaGtrg0AgQFVV1YCOByRJYu/evVi2bNkFi5NhGHR0dOCNN97A888/j5iYmGAzNsiYElDiJEkSZrMZNE2jtbV1QP9YhmHQ0tKCyZMnX5A4GYZBa2srPvroIzz//PPDVhMHCXIhBJQ4TSYTkpOT4XK5MHHixH6NQQwbUCoxMfGChETTNFpaWvD111/j8ccfR2Rk5AUdL0iQ4SLgxJmamgqHw4H09PR++3skSaKoqAjTp0/3XTVoaJqGVqvFN998g0ceeWRExkmDBDlfAlKcTqcTkyZN6tctjqIoHDp0CNnZ2b6rBgXDTvH66KOPsG7duqAwgwQcASVOs9mMSZMmoaGhoc9Z/Rw0TSM8PHxAJwV/MAwDh8OBTz/9FLfddtsFN42DBBkJAkqcRqMRERERqKys7Le/yTkJzJgx47xE5XK5UFJSgnnz5mHKlCnndYwgQUaagBKnXq/n4+L0N+2LIAjs27evzzAh/UGSJPR6PU6ePDmu0zQEufgJKHEaDAbYbDYkJyf3298kSRKnTp0adIQEDobNDfnee+/h/vvv77d2DhJkrAkocRqNRhiNRsyYMaNfcVIUhezs7H6tuf5wOp0oLCzErbfeOq5CJAb5dRIw4iQIAna7HRaLBTk5OX2Kk6Io6PV6zJs3z3dVv1Bs7NKqqipMmzYt2M8MEvAEjDiNRiPi4+Oh0WgQFRXVp0+t2+3GgQMHhtykdTgcOHr0KO68884h17i/VrgJ1rRHXB+SJIftxx2TO8dQJm7/GgiYSAjV1dV8AKoHHnigz7R9JpMJTz/9ND744IM+a1dfSJJEcXExmpubceutt/Yp/MHiLzRmIMNFLvB81dz//a3jlnP5WzhvLG6ZP3z398RfK4WL/yMUCiH2yaDtuT33f0EfURPG44TtwUZCCBhxHjt2DCKRCFu3bsWf/vSnPp3eOzs7sWPHDjz88MO+q/rEaDRiy5YtWLt2bZ+iHwqBJk5PcfkTG+mRN5OLC0RRFAwGA/R6PbRaLVwul9d+QqEQERERUKlUEAgEfHqG8PDwYRGD2+2G3W7nA0BzPy7RkICNTi8UCqFSqRAZGQm1Ws3HHAIAEZtvhQvUze3nK2Lfv8eacSfOnTt3Ytq0adi4cSP+8Y9/+HUuoGka9fX1ADDo+D0UReGXX36BSCTCFVdcMSwvaazE6SlA7l+GDdDFCc/tdqO5uRkNDQ1wOBxgGAZhYWFITExEfHy8V5OeCzvC1WCBCtec9gxEBtZppb29HRqNBjSbCiI2NhZTp07lC77nPcKnJvb8dzQZd+LcvHkzFi9ejP379+OBBx7wO8zhcDjw888/44orrhh0BjGDwYCtW7di7dq1fdbGQ2W0xOn5ahi2Sck1NRsaGlBbWwuaphETE4Pk5GRIJBIIBAKEhIRAoVD8KsdwuRqZa4abTCZoNBq43W7I5XJkZGQgNjaWj4Xk2TUaLaGOO3F+/PHHmDVrFlwuFxYuXOi3P2k0GvHGG2/gz3/+s9/1vjAMgz179kCpVA7LnE+O0RCnm03/brFYUFFRAavVivDwcERHR0MsFiMsLGzAyehBvCFJEgaDAQ6HAyTrjOJ0OqFSqfihOdkQM5idD4MVZ8C8WQebijwzM7PPh2O1WvnUgIPBaDSiqakJs2bNGjZhjhQkScJqtaK+vh65ubnIz89HeXk5urq6MHPmTFx22WWYO3cuUlNTkZycDJVKFRTmEBGLxXwrIzU1FXPmzMGSJUuQkpKC+vp6VFZW4sSJEzhy5Aja2tpgs9lAsZHnx4KAebtc7ouQkBC/QmIYBkajEQsWLPBd1Sfl5eWYOXPmgJO2xwKumWoymVBaWoqioiKUlJTA4XBg9uzZmD17NrKysvi0CUKPwMqBZuAYT3g+P+6ZKpVKPrXDtGnTMG3aNHR3d6O4uBhFRUUoKyuDxWIBQRBeXY2RJqDE2dXV1WehIwgCnZ2dmDRpku8qv1itVhw5cgTZ2dkBVcNQbE7M2tpaFBUV4eTJk4iPj0dmZiZycnJ410XOSNPX8wgyfHiKVSQSQSKRIC0tDTk5OcjIyEB0dDROnDiBkpISNDQ0jFqNGhCl1uVyAWzS3L5wOp2oq6sbdC3Y0dGB5cuXD5sR6EIhSRJGoxF1dXXIy8tDWFgYMjMz+Uxk/sb4gowdnFDFYjGUSiXmz5+PKVOmQCwW4+DBg2hoaIDJZALJJlgaCQJCnDqdDiqVCg6Ho8/CabPZYDAY+p2twuF2u/H1119j6tSpg+6fjhQ0TcNut6O+vh4nTpxAVFQULrnkEj5DNFc7Mh5JfbiBf7A1rcViQUdHB6xWq8/R/cMNO3g2wbhlvnBDMf7W+YPzFvIc0hgIbjzTHzRN97nOF4YN9G232wd9vZ5w9+nbNOXekUajgdFo9FoHtmblatSIiAhccsklUKlUyM/PR0tLC+x2+5Cex2AZc3EyDAOtVguRSISpU6f22QTt6urCtGnT+lzviVarRUZGxpg7t1NsjpVDhw5BoVBg4cKFkEqlEIvFoNnYRQaDgS90VVVVoGka+/btA0mS/LhueXk5du3aBbPZ7HsKHpqm0dXVBYZhUF9fj9OnT3sVmJMnT6Ktrc1rH7CiPXr0KDo6OnxX+cXhcOCXX37hWzsDQRAEduzYga6uLt9VADvUdfDgQd/FfVJRUYHt27efV43FdXXcbje/jGJ9tX/55RdUVVX123oDW6OKxWJIpVIsXrwYYrEYeXl5I9LUHbikjwJarRZCoRDp6el+xUdRFHQ63aDiBTEMg2PHjuGyyy4bUx9amqZhNptRUVGBuXPnIjw8HGKPvJ0kSeKHH35Ae3s7wH58vv76azAMA7VazX/NKysr+SZ6aGgotFoturu7YTQa+RqAYSM7/P3vf4dWq0VLSwvOnDmDzs5OGI1GkCSJyMhIr+dBEAQMBgO6urpQWFgInU4Hl8uF7u5udHV1wel08kY47pw2mw1OpxMnTpxAV1cXn0Wag6Zp6HQ6dHV1wWw283lmuKxiNJt9W6/Xo7u7GxaLBWazGQUFBdBqtdDpdF4fFJfLBa1Wy1+PzWaDSqVCWloa3G43SDZao06ng1ar9cp8BgA9PT1e+9vtdhQVFaG7uxt6vR4ulwtutxtFRUVQKpWIjIxESkoKbDYbenp60NnZCZPJBJ1Oh+7ubq8PkkAggFgsRkREBObPn4+zZ8/ykSOHC9GGDRs2+C4cTRiGQVFREUiSxIIFC3h3MU9cLhfKy8uRlZWFkJAQr3W+mEwmfP/997jqqqtGTJx6vR4CgaBfRwiLxYLi4mJkZ2fzSWo9IQgC+fn5iImJgUwmQ3t7O8rLy7Fy5Up8+eWXWLRoEY4fP46ysjLo9XrI5XJUV1dj+/btaGlpQW5uLhYuXMhHxK+vr8fmzZt554P8/HwYDAb88MMPWLx4MY4ePQqZTIbExESAdYP829/+BqPRiNLSUixcuBBGoxF79uxBQUEB9Ho90tPT8frrr6O6uhqlpaWwWCyIj4/Hvn37oNFocPLkSYSHh/PHdDqd+Otf/wqdTgedTge1Wo3//ve/MBgMqKiowLRp01BXV4dPP/2UF2dERAR++OEHOJ1O/Pjjj5g/fz6fj6a4uBhbt25FW1sb1Go1b0QrLS2FWCxGXFwc3nnnHVRUVKCsrAwOhwNTpkzhn/ELL7yAtrY2FBQU8I4Zu3btglarRW5uLlJTU0HTNIqKitDe3o6GhgYsWLAA27dvx549e9DQ0IA9e/agpaUF+/btQ1ZWVi/3RU6kKpUKJSUliI6OHrDrlZubi8WLFw+Yd6d3NTUGGI1GiEQixMXF+a05nU4nTCaTX5c+X2pra3HXXXf59TAaTbipaf2lk2AYBtu3b8dXX32Fn376iV/e0dEBl8uF119/HdnZ2Zg5cyYOHToErVaL1NRUrF27FgKBADabDWALSFpaGiZNmoTbb78dCoUCKSkpuOeeexASEgK9Xg+9Xs9vT9M0qqursXz5ctxxxx0IDQ0FwzCIi4tDSkoKkpKS8MMPP4AgCHR0dODmm2/GPffcg7KyMjidTsjlctx999246aabsGPHDv66XWw6+GnTpmHhwoUQiUTIyMhATEwM9u7dC61Wi+3bt+PKK6/E3XffjcsuuwwAoFKpsHbtWqSlpeHcuXP88bq6uhAXF4d58+ZBrVZj0qRJSExMRExMDHJzc+F0OmE0GnHHHXfg/vvvx759+/h9AUCj0eC+++7DunXr8Pbbb8PpdCIsLAx33XUX5syZg5MnT0KhUCAtLQ0qlYrvOnBzih9++GFUV1fjrrvuwtq1a1FYWNhnc1osFmPWrFle13+h9FbCGEAQRL/GILPZDKFQOGBNSFEUjh49ivT09DE3BNXX13s1Y/0hFovxwAMP4Omnn8aDDz7otS3F+starVYQBIErr7wSMpkMMTExCAkJgVKp9CoonNGC6/ckJSVBJpNBqVT2MoCANTpFRkaCYRhERESAoih8/vnnMJvNyMrK4pu1EokECoUCcrkcDGu0ioiIgEKhgFQq9WrqhYaG4t5770V+fj7eeOMNlJSUoLKyElOnToVIJILL5QJBEFAoFGBYv2ChUIikpCTI5XKoVCo4nU7+eMuXL0dcXBy++OIL5Ofn46233oLb7UZmZiacTicoikJISAhCQ0MhkUh6GZa4GkwkEvH3ExcXh5CQEMjlcrjdbpSVleHMmTPIyMiAWCyGy+WCQCCAWq2GTCaDWq2GXC5HSEhIv4YfATsc09LS4rvqvAkIcdI03a8lUqPRIDU1td+CDrapRlHUmAsTrPD8iYJDIBB4uYuJxWI+4qCCzfh8++23831Qbr1UKuU/VJ61slAohEKhQEFBARiG4T8McrkcYo/pWNy2U6ZMwbZt21BeXo7a2lrez1QsFqO6uhoKdvZHSEgIf33cDBCpVMov4wTAsH6sBoMBS5cuBVhRiEQiGAwGUBQFmUyGSy65BHv27EFpaSnOnDkDsVjMO55weT85GhoaEBsbi2XLlsFut/P3UFFRwV+vZ65P32aiXq/H/v37cfDgQdxxxx0ICwvzen7cfYhEIr4PL2JnunDPlnsO3DJ/LTtPhrPsjblvLU3T+Pe//w2z2YyXX365V3OUpmn8+OOPWLBgASZOnOi1zpedO3di3rx5fTaPh4vB+Na2trZCIBBAqVT6vRbaYwhBJpOBoig4HA6EhobCZrNBoVDwhjCj0YikpCSI2aEXrpbg/g8Po5DdboeCHTeVSCRwOByQSqXo7OyEQqHg+8kkScJisaCrqwsTJkzgn3tDQwOio6P5WtfpdPKC4YYhBGw/i7sHThQkSaK9vR02m42PO9zZ2QmxWIzQ0FBehAaDAVqtFhMnTuRrsJCQEN4Dh7sWu92O1tZWKBQKxMXFgSAItLW1ITIyEmFhYfw1iNjxYafT6dX1efTRR/HCCy+AIAi+7HAfLq7VIRAI0N3dDbDNa7lcDpIkeUFarVYoFAoQBMHfd1/vkzM6paWl+a72Ylz51tpsNkjYGRW+OJ1OuFyuAZ0JaJrG2bNnERkZ6ffhjTYJCQk4duwYHA6H36aQUCiEjM34DLaW4VINcoKWSCRISEhAVlYWwsLCEBISAplMxu/rWXNyNW5MTAxfw3LLxGIxmpqaYDKZ+O3FYjEiIyORmZnJ1yhSqRSZmZlQq9UIDw/nayMxW6PKZDLI5XK+tueavJ7HnDhxIm+4k0gkSE5ORkJCAsLDw/naTq1WIzs7G0qlEmKPFoOUbUlwKBQKZGRkIDk5GVKpFKGhofysEu74MpkMYrZG9bVJJCUlITExEVOmTOHvj7t27tlLpVIkJSUhKSmJvx65XM5/kLh3wW3rr2xxVujDhw8PWIEMhd5nGmUYhoFGo8GkSZP83jjXzvdtsvjS2NgYUJnBxGIxbr75Zt7aOtxjYENl6dKlSE1N9V18UfPyyy97fcBGAoqiYDQacfr0adx8880QD2OztrcaRhGGDVXJWSH91Zxms5n/avUFwzAoKCjAjTfeOKwP50IwGo2wWCyYPXs2uru7UVRUBKvVOuYiDTI80DQNh8PBW7BXrlzZbxk9H8ZUnADQ3d0NgiCQmprqt+ZsaWlBXFycX+F60tXVhYiIiAG3Gy3kcjm2b9+O++67D2+99Ra+/vprPPnkk/jnP/+JpqamoEjHKSRJwmazobKyEq2trZg9ezZvjR5ueqthFGFY173Q0FDExMT0EhbD5s3kBrn9wTWL+4vYNxZIpVKsWbMGjz32GDo7O5Gfn4/KykrExMTAbDajtrYW7e3tcDqdfvukQQIHiqLgdDrR0tKCuro6tLa2IicnB7Nnz0ZYWNiIlbuROeogYRgGXV1dSEhI8HuDbrcbNputX08cmqZx+PBhXHHFFSPy9RoqBDu17ejRo9iyZQtaW1uxcuVKREZG4re//S0effRRLFq0CLNmzeKHBZqamtDe3g6Hw8FbLIOMHQzD8OFO2tra0NzcjIqKCkRERGDWrFmYO3culEolbyUeKXorYhRhGIafkeLvJu12O5RKZb/uUAzDoLOzc0wzhXHDGE1NTdi/fz/+85//ICIiAnfffTduvfVWtLW14Te/+Q0eeugh3voplUoxefJkLFu2DJmZmQgNDUVxcTGqq6uh0+lgMBjgdDrhdruDNesIQ1EUXC4X7HY7tFotOjs7eZdAtVqNrKwsXHrppZgwYQKk7NjoaJS1MRUn2OlifYmPc7fyNK97wjAMLBZLL3/H0YITZVdXF7766its2bIF8+bNwwsvvICcnBwolUoQBIFVq1bhvvvu44cMOLjhErlcjqSkJKxatQrz5s1DYmIihEIhTpw4gePHj8NgMMBqtcJut/PO2tyYY5DBw7DRJ1wuF5xOJ6xWKywWC9rb25GXl4djx45BoVAgOTkZS5YsweWXX877Pvc1vjmSjKkTAkEQ+Oc//wmZTIYnn3yyl6X11KlTsNvtuPTSS72Wc5AkiR07dmDKlCnIyckZNYHW1dXB7XZDrVZjz549cDqduOaaa3iXL8/r6OzshEql6rV8IGiPKOsOhwMURaG7uxvNzc2gaRoJCQl8X1zAzuIX+ITfGMr5Lha458YVa8+/3W43WlpaYDQaIZPJeJ9aiUSCkJAQCD0CXY8kg3VCGHNx/vWvf0VaWhruueeeXn3Gb7/9FjNmzMC0adO8lnO43W7861//wjPPPDPi41kcJEni7NmzKC8vh8ViwfLly5GWltZn7T+ccGKl2elkVqsVDDscxU23EggEUKlUiImJ4T92vuLl6Gt5oMGwPr2Mn6j1NJvKgcNisfAzXjjHhOjoaN4BIiIiAnI2JtNoCNEf40Kcbrcbzz//PK677jpcfvnlXg+Koii8+eabuP/++xEfH++1H9gX43Q6sXnzZvzmN7/xXT3sMAwDl8uFzs5OfPbZZ5g6dSpuuummXl4pYwFN0yDZOK0M29Q3Go38pGKKouBmQ216FmSFQoHQ0FDeFc4fnsL1/fdC4Iqdp+D8FUXGwy3RYrHA7Xbz5+f67pw3FACEhIRApVLxXYixFGFfjAtxulwuPPDAA3jllVeQlZXl9dLtdjs+/fRTrFu3zm8KBYqiUF1dDa1WixUrVviuHla4pmVRURHOnTuHGTNmIC4url/f2kCCq108m3sMw8Bms8FiscBkMvWyEjPsjBGBR1oEhvWr9Yfnur7+74uvKP0VRQHrzqhUKhEeHu5lf/AUXl/nCETGhTidTidWrVqFnTt39gopotPpcOjQIVx//fV+m4wulwvvvfce1q1bN+BNXggkG4h4z549iIiIwJVXXgmNRgPBAI7v4x2GrdE8m5OevwuFq9XAioz7ezyJ7HwZrDjHtK6n2ali/pza7XY74uLi+nSJ4szf0dHRvquGDYIg0N7ejo8//hiLFi3C9ddfP2AkhosFTixidnYL5zTOzW280B/nXC5lYyqN1vDEeGLMxMkwDMxmM5KTk/2+lJaWlj7TDTBsxDjfpvBwQhAEWlpa8Omnn+Lhhx9Genp6L4NVkCAjSe+SP0owrOvepEmT/AqstrYWyj5i1JIkiYKCgkFnGhsqBEGgvLwcBw4cwDPPPIPo6Gi/1xgkyEgyZuKkaRparbZPS+y5c+f6FKfb7cbevXtHZAoUSZLIy8tDbW0t7r///j6vIUiQkWbMxMkwDLq7uxEZGem7ip/R7s8QBFbY0dHRA87xHCokSeKnn36C1WrFzTff3Of5gwQZDcZUnB0dHYiIiPBdBZvNhsmTJ/s1BjFsCvShJDQaDBRF4aeffoJIJML1118/ak4NQYL0xZiKk4tt6gsnTn8CcbvdKCgo8IpPeqGQJImff/4ZFEXh2muv7TNkSpAgo8mYipMbLvEVQmdnJ9RqtV/rqNvtxr59+xAbG+u76rwgSRIHDx6EzWbDTTfdFBRmkIBhTMXpcDj81pw1NTV+m7Rg+6NRUVEIGYbxRpIkUV1djdbWVqxZs8bLDSxIkLFmTMVpNBr9TqTuS5xcbbtixYoLFhHJpuT7+eefceedd/Y5LS1IkLFiTMXpcDh6iYKLJOC7nFvX2Nh4weObNBucaePGjXjwwQeH3eobJMhwMKbi9Fc7WiyWPtMpuFwunDp1yq8j/FBwuVzYtm0b1q5d67dZHSRIIDBm4hQIBH79Ys1mM3JycvyK0+FwwGg0XlB/kyAINDc3QyKRjKj7X5AgF8qYiRMAkpOTfRfBbDYjOzvbrziNRiPmzJnj1992MDBsPo9vvvkGq1ev9nuOIEEChfMr5RcIw04I9ifO9vZ2vykVKDZvyOzZs72WDwWuWXznnXf6nQkTJEggMSbipCgKTU1NfgXS1NTkt6npdDrR0NDg191vMNA0jfb2dpw+fXpYHRiCBBkpxkScNE2jvr7er0W2qampV60JVpxNTU3n7YjucDhw5MgR/OY3v/HrefRrhfGYVN3Xj4tdNFI/3/N5/rjrY4Zhgvd4Y0wiITidTrz77rtYuHAhli9fzi8nCALr16/Hv//9716xeerq6nDw4EE8/PDDXssHA8MwOH36NCoqKnD33Xf7Ff9QGEwKwECgr1fLLfcUHicEDpqmYbFYYLVa+WzPNE3zeSx9j+37tyeeLSHu/9ykbalUirCwMERFRfGR8Dy3F7KRBEVsHk1unb/WFfpZHkgMNhLCmIjT4XBgw4YNuPPOOzFr1ix+eXd3N7744gusX7++l0X2xIkToCiKT8w6FCwWC3744QesXr16wAcyGAJdnAwbn5WLC8Swc2c7OzvR3d0Nmg3yJZFIEB4eDqVSidDQUAjYeEEcXBQE7idgE9wOhwAoigJJkqDZHJ/cj7s2sEIjCAJmsxkWiwV2u52/Prlcjvj4eMTHxyMsLAwCNrM3F2UvkAlocdrtdjz77LN48cUXkZSUxC+vrq5GbW0trr76aq+mJ0EQ2Lt3L+bOndtv3hR/MAyDU6dOobm5GbfccssF15oIEHEybDQILqKe1Wrlc3AKBAKEhIRAoVDw/skKhQJKpRIhbAJbDKGWGex2F8JgiqHnNhRFwWq1wmq1gmCTEBMEAZvNxqeOj4uLw8SJE3nBSvvIrznaBLQ4bTYbnnzySWzatMmr33n8+HGo1WpMnjzZ6yGazWZs374dt9xyi18jUn9YLBZ89913uPnmmwd8GINlLMRJkiQIgoDT6URrayuMRiPA1m5CNrlrXFwc3+LwFdRQBTke4IquZxH2/L/BYEBPTw8oNqMb1zKIjIxEYmIi3yLwN8FiJBmsOMfkM0LTNGw2Wy+DkF6v51MReOJwOPj030OlqakJcXFxvaL7BToUG46zo6MDZWVlKCkpwYkTJ3D27FlERERg2rRpmD59OrKyspCZmYnU1FSEhobyfTOur8b9BAEeOPp84O7J8z65+xeJRIiOjkZ6ejoyMzORkZGB9PR0TJ06FUKhEKdPn0ZxcTEqKipw9uxZPjeNZ7N6rBkzcXIBjz3RarV+C1BXVxdiY2OH/IVzOBw4ePAg5s2bF/D9EHjkfmxqakJVVRV++eUXNDc3Iz4+HpMnT8asWbMwbdo03nDCRa3zFGCQ/x9P4YpEIojFYojFYsTGxvIftqSkJKjValRUVOD48eOora2FRqOBw+EYc6GOiTgB+BWaVqv1XQSGYdDW1nZeTcienh5MnDhxwObDWMKwkeR7enpQVVWFPXv2gGEYxMfHY8mSJcjMzIRMJvMSY1CEF4aANR5xBi+ZTIbp06dj1qxZiI6OhsPhwKFDh1BbWwu9Xg+32z2oPvFwM2bi9O070jSNnp6eXgWPJEno9Xovw9FgIAgC27dvx4wZMwJyXJNhE+tYLBbk5uaio6MDsbGxuOyyyxAVFQWpVAqJRMI38UeicFAUxRtTLlZ8h4j84SlWqVQKtVqNhQsXQqVSQaPRIDc3F1arddRFOmbi9I1kYLVavSyJHA6HAwzD9BpaGQiz2QyFQoGEhIRexxxruP7koUOH0N7ejnnz5iEpKQkhISGQSCRwuVwwGo3Q6/XQ6/XQaDTQaDRwuVy+h+oTo9EIkiT5v202G5xOJ8C6MRqNRrS0tKCxsdFjr77hxkQZdpjGbrcPq7C5+bWeMGwoG51OB6fT2a8waDa5k+8zMhgMMBgMXs9iIAQCAcRiMUJCQpCUlIS5c+eio6MD+fn5fMa30WDUxcmwAbp8a0KtVou0tLRexiDupQwlEh7DMCgtLcXixYuHtN9oQFEUTCYTiouLkZOTg/j4eD7rFUd9fT3+/e9/48UXX8Tf/vY3bNq0Cf/3f/+Hnp4eflzQ7XaDIAiQJAmXy9Wr4G7cuBFuNo8nRVE4cOAA6uvrQdM0ysvLsW3bNmi1WiQlJfE1KGcQ4XKAeh7TarXil19+gc1mg91ux0cffQSLxQKXy8XXTm6320tENE3DySYA9jwW4zEMxO1PEAQ+/vhj/txgWz//+c9/8N5770Gj0YBmEzb5uz6SJPHFF1+gsbHRy7BDURT+93//l78uz/NygvW8Z18Ri0QiyOVyxMbGIisrCyUlJTAYDKMiUNGGDRs2+C4cSWiaRktLC6xWq1dqv5qaGqhUKkycONGroDY0NMDhcCA7O5tfNhAOhwOfffYZrrnmmiHXuINBr9dDIBD4jeLQHww7K6a8vBzZ2dl+WwoAEBERgUWLFqG2thZr1qzBTTfdhIiICDBsZrWqqioUFBSAIAhoNBoUFhYiJibGy7Xxu+++w/Lly2E0GqHRaKBQKBAZGQkRm+reaDQiOTkZsbGxKCsrQ0tLCwoLCyGTyXDmzBlUVVVh0qRJfB/3zJkz+O677yAUChEdHY28vDyIRCKcPXsWarUaAoEAeXl5vDVZqVSivb0dBw4cQGNjI5KSkvgwMC6XCyUlJairq0N5eTkSEhIAAP/9738B9uOUkpICt9sNq9UKqVSK9PR0CAQClJeXo7y8HM3NzYiLi+Mt/gRB4JdffgFN06iqqoJUKkVUVBSam5vR09MDo9GIpKQknD17Fi0tLSgoKIBcLkdYWBgMBgN27twJh8OB1tZWTJw4kX+OHAKBAFKpFJGRkaiurkZ4eDjkcrnf9zcQubm5WLx48YCjD6Nec9KsA7qvA7tOp0NqamqvmrO5uXnIjgcdHR246qqrerkAjjUkSaK5uRmZmZl+J5pzyGQyPqM3l6KvuroaHR0dOHv2LL788kskJCTglVdeQV1dHRQKBbZu3ep1DJqmUVNTg/fffx8xMTEoKChAU1MTjh07hqKiIkyePBkffvghTCYTdu7ciYKCAqjVajz99NMQCoUoLy9HQ0MDXwNxDgwJCQkQiUR8c1EqleLbb7/la63w8HC8/fbbIAgCb775JmJiYtDd3Y28vDy+GexwOPD5559Dp9OBoihs374dDMOgpqYGSqUSx48fx+nTp2Gz2RAWFoakpCS88sor6OrqwgcffMCL9MSJE73uua6uDhMmTMCmTZtA0zS6u7uRk5ODkpISnDt3Drt378bBgwcRFRWFzz//HD09Pdi4cSPi4uJQX1+Pr776yuuYvkilUkydOhVNTU29atnhZkzE2djY2Ku5aTQaERMT4/UloigKGo1mSOKkaRq7du1CTk5OwBmC3G439Hp9r3sfDBTr/yoQCLBo0SLMnTsXGRkZWL58OS6//HK0tLR4bW+1WvHyyy/j0UcfRVRUFN+dKC0t5QtxbGwsXC4XhEIhVq1aheXLl0OtVmPFihV8zc2JMyYmBvHx8cjKykJISAjUajWuuuoqLFy4EGVlZfjll1/4yQlOpxN2ux0dHR1YsGABrrvuOhQVFfHNVYZhEBcXh5UrV2LBggUoLy+HQCBAVlYWli1bhqVLl6Kurg52ux0lJSU4fvw4mpubYTKZkJGRgWXLlmHu3LloamryumexWIyrr74aS5YsAcnmK+3u7sahQ4fQ1taGc+fOgWEYXH755Vi0aBEiIiKg1WrR2tqKJUuW4IYbbhjUkJtMJoPT6ezVvx1uRl2cFEWhtbW1V81hs9m8/gbb3xSLxUOaieLZjAs0uLFIrsAPhOewied4Hdc85MbtBB7p9DgiIiLwhz/8AVu2bIHdboeAtUiq1WrMmjULt956Kx5//HGEh4dDKBTyPrNcU1skEnn16cRiMUiS5PtznsM63NjhJZdcgjVr1uDll1/mfXW56BUxMTH88Bm3D7c/9+Oaidx2x44dwxVXXIFHHnmEvy7Ogs3t4wl3H2Cfndvtxo8//oiHHnoIK1euBMMwvFWWe2YKhQIymQw9PT3o7OzkjWb9wb0/32c+3Izs0f1A0zS6urp69QX9idNutyMsLGxINc25c+fw8MMP9/I+CgRkMhkSEhK8HLj7Q6VS8ffBNStDQkKgVCohFosRFhbGu5/59n+jo6Nx5ZVX4pJLLsHmzZshl8sRGhqKW265BSdOnMBvfvMbvPjii/yxZTIZBAIB33oJDQ316hMrlUqEhYXh0UcfRU9PD0JDQ3n3t/j4ePztb3/jA6a9//77EIlE+P3vf4/7778fzz//PG6//Xb+PUokEn5/qVQKlUoFsViMyMhI/gMRGhqKhQsX4s9//jP+8Ic/IDw8HGFhYQgNDYVYLOZ9hTmEQmGv+5DJZJg3bx7Wr18PjUaDkJAQPu28WCxGaGgoYmJi8Mwzz+B3v/sdvvvuuwFjSjFsBMj+0oUMF6PuW2uxWPDwww/jb3/7G9LS0vjlf/7zn/H88897iaqxsRHV1dW4+uqre30l/cEwDN544w2sX79+RPub5+Nbyz1mp9OJI0eOYObMmX0ahEYaronL1SDDBc1aU7laGKyhRnQBad9JkuRbDefDQPdKsRnSzWYzjh07hmnTpuGaa67x3Qxgj+V0OnH27FksXry4VwUzWALWt5Zmze6ezU6n0+m3mdLY2IioqKhey/uivb2d96QJJEiSxLlz56DT6UCSJBYvXoxz587BYDAMuok7nAiGceqXJ0KhkG9yc3g6UpwPYtax/3wZ6F6FQiESExMhk8lw/fXXY9WqVb6bAKyI9Xo9amtrsWjRovMW5lA4/7s+T7iBbK6GZNiERv6S6DY0NPRqrvVHaWkpbr/99oAzBIlEIiiVSnz44YdYt24dnnnmGezbtw/ff/89duzYwU9kDjL6CAQCqFQqzJo1CxkZGb0+7Ny4dGFhIVwu16gJE2MhTs6o4Nle7+jo6DW+SZJknykC/cEwDKqqqhAdHX1BX9qRIioqCuvWrcO8efOQn5+PzZs3Y+vWrWhqauJnnnR1dfUaXA8y8ghY4xBXOXDN1/b2dlRUVECr1eLyyy/H1KlT+2wejwSjXoopdpKsZ9+ys7OzV83pcDj4Tv1g6Ojo4I0jgYLL5UJXVxcOHz6MLVu2YPv27UhKSsKECRMQGxuLJ554Ak8//TTmzZuHRYsWwe12o66uDvX19TCZTLz3TJCRh6IoOJ1O6HQ6VFdX4+zZs6BpGgsXLsTMmTMvuHl+Pozu2diHwH2pwH6ltFptr3mcNpuN7wsMhsLCQlx33XW9miWjDdcMqqiowI4dO/DRRx9BJpPh5ptvxrp16yAUChEWFobPP/8ct912Gz8HUyqVIjMzE3PnzkVmZiba29tRVlaG9vZ2dHV1wW63w81GPQhy4VAUBZfLBavVivb2drS0tODkyZMwmUyYMWMGli5dyjuLeA5pjSajLk6apnuNWzqdzl4iNJvNiI2NHVT/kWEYNDY29moajyYkSUKn0+HMmTPYuHEjKisrsXLlSjz11FOYP38+wsLC4HK50NLSgg8//BBTp07tNdYrYmPgKBQKzJs3D8uWLeMnUZ8+fRqnTp1Cd3c3DAYDrFYr7w8aFGz/cEJ0Op0wmUzo6elBS0sLDh8+jNOnTyM2NhZTp07FqlWrMGPGDISwExDGqixxjOrZGTYEo28aBn9OxDU1NXzgpv5g2GxlAo/B69GCYWdo9PT04Pjx49i4cSMYhsETTzyBm2++GSqVCgqFgu+nhIaG4qmnnkJ0dPSANTxXm4aEhCA+Ph4rV67EihUrkJCQgLCwMGg0Ghw7dgwFBQXQarWwWq38zBO32807cf9a+q806zzvcrngcrn46BlWqxXNzc3Iy8vD4cOHodfrERkZibS0NNxwww248sorERkZiRA2EuBol6H+GNVxTpqmcfr0aWzZsgX/+Mc/+GX//ve/8cQTT3gV2I0bN2LNmjV+nZA9oWkau3fvRkJCAmbPnj0qX7u6ujpQFIW4uDiUlZXh5MmTuPzyy5GWlgalUjniL5j7yFHsjBOLxcLPVGlra4PZbAZYI5Rn18DX8MH9KwzQSAqMR0xd7v8cNBvXltvOaDSivb0dDocDQqEQsbGxiIuLg1AohFwuh1Kp5D/gY32vgx3nHFVxEgSBQ4cOoaysDE8//TTAPuS33noLTz31FC9OkiTx4osv4sUXXxxwKIUkSbz99tt4/PHHezWNRwKaplFZWQmNRoOKigrMmTMHc+bMQXh4+Ji+cHgMuHOF2WazwWw2g2BDZLpcLtjtdn6OLMNOxQsLC4OSDY/pi8DDvY77ezjgip3nv75FkWZj55pMJlgsFjAMwwtMoVB4tUoUCgUiIiL4rgLnpheIBKQ4XS4XfvzxR7hcLtx///0A66L34YcfYv369fzDtFqt+PDDD/Hwww/36p96whW4Dz74AH/4wx9GtNZk2CaswWDAV199BYlEgnvvvRcqlWpEzzuceNa2HJxRxGq1wm6388u5YsHVUP2J6HzgnhknfH81ukgk4mfleHZxOIGOlaHmQglIcTocDnz44YdITU3F6tWrwTAMGhoaUFRUhNtvv51vDnZ1daGwsBBXX311L6OJJxRF4fTp0+ju7h60i9/5QLOThsvLy1FYWIgpU6Zg6tSpv4qcK5w4uSakp1DPF8/amBPmWDc1R5PBinNUP/k0O7+OC1PJMAza29t7hRKx2WyYNGnSgM0SmqaRl5eHRYsWjdiLJdnwGf/973/R0NCAhx56CFOnTh2x8wUaQqEQYja2jlQqhZxNo3AhP7lcDplMBikbJ2m81oAjzZiIMyIiAvAQZ2JiotfLaWhoQERExIDNRe4rPlgvoqFCEAQ6Ojrw3nvvYebMmfy4ZJAgo0H/pX+Yodgcm55+tZ2dnYiLi/MSZ2VlZb/NWbD7ut1uTJgwwXfVsEAQBKqqqvDFF1/g8ccf7zOhb5AgI8Woi1PCzgEEKzCr1dorTGZNTc2AlleSJHHw4EFMnz7dd9UF43a7sWvXLtTW1uKpp56CSqUKNruCjDqjKk6SJKFQKLy8fnwdiR0OB+8p0x8kSaKgoACZmZm+qy4Iu92ODz74AFFRUbjhhhsCMqJCkF8Hoy5O3/mWvk1Fs9k8qCYkwzBITEwcsPk7FEwmE95//30sW7YMS5YsGfADESTISDKq4iQIAkKPOC/oQ5zTp0/vVxg0Gx3eM7TmhcAwDPR6PT799FNcc801yMnJ6VWjBwky2oy6OCmK8hKkrwhNJhPS09P7dYEjCAK5ublDChPSFzRNQ6fT4fPPP8d1113nd8JtkCBjwaiL0+12QyKRgGEYOByOXn26lpaWAYP1kiSJ4uLiIYXM9AdN0zCZTPjkk09wyy23YPLkyf1+FIIEGU1GVZxutxt2ux1isZgf4/T1kmhsbOxXmGBFlZ2d3avWHQoMG0Xtvffewy233IKUlJSgMIMEFKMuTovFArFYDJqm0dHR4SVOhmHQ0tLSrzi5SAoLFizwXTVoGDYMxVdffYXrrrsOU6ZM6fecQYKMBaMmTprNAkVRFERswOL29nZER0fzwrDb7bw7V18QBIF9+/bx+TXOB4IgcPbsWaSkpGDGjBkDeiIFCTIWjFqppGkaVquVD3XJeQd5TrzW6/XIyMjoV5wulwvHjh3r1RweLBRFwWAwIC8vDytWrOj3XEGCjCWjKk6LxcLPz+SGL8LDw/ltenp6kJmZ2a9gnE4nsrOzz2t8k+tnfvnll7jvvvt6GaOCBAkkRk2c3Ix9T3GK2VwfHAaDAVOnTu1TnFzte+mll/quGhQEQeDMmTOYO3fugGH3gwQZa0ZNnNywhecMkhCf4LxarbbfuEEEQaCyshLJycm+qwaEYaP8HTp0CEuWLOnzHEGCBAqjKk6z2czP5QTQq1mp0+m8/vbF6XTi1KlTXk3hweJ0OnH8+HHce++9I56A5mKDYaMfcD/aYwL2hfx8jxvEm1EXp6ew/NWc/cEFox6quBg24oJOp+uV7v7Xhq8gBhIc5zjCRbSz2+2w2+2w2WwX9ONiGXHRAgmC4OMf+fv5Xu+vQcyjFqbEYDDgySefxO23345rr70WTqcTP/74I+666y6A7ZM+88wzeP3113uJloMLrNVXspm+sNls2LJlC6699lrExcX5rh4y55NlbKxhGAYURYEkST5kJs0Ob3V1daGnpwc9PT2gfWLgcoG/xGyeVC6uz4VCkiQcDgcoiuIFa7VaveIbCdicnXFxcVCr1YiOjubtESI2gJf4AhMdjQWDDVMyauLs6enBb37zGzz11FNYunQp9Ho9jh07htWrVwNs3KDNmzfj97//vd+5nCRJIj8/H5MnTx5yn/PUqVNoaGjAmjVr+jQ2DYVAFCcnNrfbzQfx6uzsRGtrKx9tLyQkhI+0B49AWZ6hQwKtL86J2OmTSdrtdsNsNsNqtYJmM37Hx8cjJSUFIWxqRalUGpATGAJOnF1dXfj973+Pl156CTNnzkR1dTV0Oh2WL18OACgvL0d9fT2uu+46v255VqsVW7Zswa233jqkPqfVasW3336Lm266adgstGMtToqi+GagwWBAS0sLXGz6+JCQED4mT1hYGFQqFf88PQupb4H1/TuQ8FdEuWWe68xmMwwGA98ycDqd/Eyo+Ph4TJgwAWKxuNe0xdFmsOIctfYAN9E6NDQUDJv2z1Nk3d3dSE1N7bOJ4nA40NHR0cuINBC1tbWIj48fsThDIw3DhmOx2Wxoa2vDyZMnUVRUhMLCQhQXF0On02HKlCmYNWsWZsyYwUcFnDx5MuLi4iCXyyFiw0hyUe64SHeev0DG91oFHhH7uHsTiURQqVSYNGkSpkyZgvT0dEybNg2zZs1CTk4OBAIBysvLUVpaiuLiYpw8eRL19fWw2WxwuVx+PwBjjX8ljAAEQSA0NBQymQw0m3reU5w6na7fXCfc+qF88Ww2G44cOYIFCxYMab+xhqIoOBwOtLe3o7KyEsXFxTh69Cja29uRkpKCqVOnIicnBzNmzEBqaiqfRl0sFnuJMNBFN9x4ilbIRg3kasq4uDhkZWUhKysLU6ZMQWpqKkiSRFFREYqKilBVVYWWlhY4HA6QJOl76DHBvxJGAIIg+CYXTdPo7Oz0ih1kMpmgUCj8FiiGYdDd3T3keEEdHR2YMmXKuKg1aZrmBVlTU4N9+/ahqakJarUa6enpWLBgAaZOnQqZTMY3yzgh+ntmQbzxrGUlEgmkUini4uIwa9YsZGdnQ61Ww+Fw8BkJuNQOngaq0WbUxOl2uyGTySBind67u7u9xGmxWLy298Ttdg95GMTlcuGHH37AzJkzz8vVbzRg2PQJFosFLS0t2LFjB3Q6HWJiYrBs2TJkZWXx8V05q2RQiMMHJ1iJRAKZTIa4uDgsXLgQycnJIAgC+/fvR01NjVdKi9Fk1MRJEAT/5WLYidae45U2m81re08cDgeMRuOQ+ptGoxGTJ08esNM9VnBN19LSUpSWlkIkEuGKK67AxIkTIfFIP0ez0eYJgvA9RJ9w1lquMNFsGgbGY0zT4XDAYrH0GjoZCM9jnS/c9XFwH6mB4Cy3Q3kW/cGww0uez8DtdkMqlUKlUmHp0qWIiIjAuXPncOzYMdhstkFd53AxauJ0u928OAF4uelRFOWVp8MXu93eK1V9f1AUhd27d2PevHl+h2XGEs7A09nZiZKSEsTFxWH69Ol8Eh6BQICzZ8+itLQUp06dQmlpKT788EM0NTUNWkgtLS2oqqrit3e5XDh16hRIkoTb7UZ5eTmqqqpw4MAB3137xGq1wul0wul04tixY17DGkPl3LlzqKmp4f92Op04evSo1zb+MBgMOHToEKqqqnxXnRcEQaCgoABut5u37n722Wdg2IRJEokEYWFhmDx5MtLT03H27Fk0NTWNmgFp1MTpYlOoc+L0nY0SGRnZZ5NNo9Fg4sSJ/L4DYTab0dHRgdjY2D6PORZwwjx9+jR6enqQlZUFlUrVy1jV3NyMiooKPPvsszh37hymTp2K5uZmOBwO2Gw2GAwGGI1GWK1WGAwGmEwmr/2bmppQUVHhlVVMKpWCJElotVrU1taisbERV155JWiahtFohNFohMFggN1uR09PDz82CrbG+uSTT1BSUgKj0YiDBw9Cp9PBaDTy79Vms0Gv18NkMvG1s9FoRE9PD+x2u9eHpbq6GtXV1bwV2m63Izc3l78G3/252pILbxMVFQWapuFyufh9zGYzaJoGSZLo6emB0WiEyWTyOq/T6eS356y0MpkMbrcbDocDRUVFWLRoUa+PoEgkQlhYGNLT0+FyuVBcXDwqAhVt2LBhg+/CkaCurg51dXW49NJLIRQKUV1djfnz54NhGNTX18PtdmP69Om9rLU0TePUqVNIT08f9DjlmTNnMGfOHD4/43Cj1+shEAgGTE/oC0mSqK6uhlKpRGJiYi9RgrU4ZmRkIC4uDr/88guef/55JCUlobCwEMnJyfjwww9RXl6O3NxcmM1m5OfnIy8vD0uWLOGP19DQAIPBgJCQEGzfvh2TJ09GYWEhUlNTcfjwYZw7dw4GgwEpKSmQyWT4+9//jsbGRuzatYuf69rY2Ijp06dDJBKBIAh8/vnn6OjogFQqRVlZGVpaWnD8+HGo1WpERETgvffeQ2lpKY4fP47p06fDaDRi06ZNqKysRHl5OXJycvi+/9mzZ+F0OiEQCLBv3z6kp6djy5Yt0Ol02LNnD2bPno2enh787//+L86ePYuqqipkZGRg69ataG5uRn19PbKzs1FTU4PPPvuMN6AtWLAA586dw6effoqGhgbs2bMHl156KcRsWJzCwkJ89913qKiowKlTp5CdnY3Dhw8jKysLJ0+eRElJCc6cOYOEhATExsb6vJn/10cNDw+HUChES0sL1Gr1oCsMT3Jzc7F48eIBu2nDX3L9wNUYXL8TPjVnZ2cnUlJS/NZyBEHAYrH4fVj+cLlc2L59O+Lj48/rwY0kRqMRZrMZsbGxQ/pouN1udHd3w+l0oru7G7fffjtuueUWHD16FPfddx8MBgPa29u99jl79iw+/vhj3HXXXRCJROjs7ER7ezuOHj2K5cuXIysrC1988QUINh/M/fffj4iICMhkMvzhD3/AoUOH+L6dRCJBWloarr32WsydOxcSiQR33XUXbr75ZmzduhU6nQ5tbW1Yvnw5wsLCcPjwYezfvx/Lly/H7373O5SWlqK7u5u/NoZhcPLkSezYsQO33XYbb3l+4IEHMGXKFJSUlODnn3/GypUr8dhjj+HEiRPo6enB/PnzMX36dFRXV6OxsRH/H3vvHR5Fuf7/v2e27yabbHrvjRAg9NAFUbCgoGD7yFE8FuztKHo852A5R8XeFRAExI4KCgJKb4E0SCMhCem9bZLtbeb3x3ee+e1uCoFkk6D7uq69ILuzs7Ozz/sp93OXrq4usCyLu+66C2KxGFVVVdiwYQPuvPNO3H333SguLubXtgzD4JNPPsGtt96Km2++GXV1dfzeuclkQkpKCr8nunPnTv5anaEoCr6+vrBxpUVcSf9byABguTqaZrMZNE2DZVlenCyXESE8PLzHBqvX68Gy7AV7GUJVVRUmT57cq3/ucNLY2Nino0V/UKlUvL8r2eP08vKC0Wh0OK6+vh7h4eEOHRRZN1ZXV8NsNmPu3LmgaRrh4eGQSqVQqVQICgqCTCZzGNWJVZNcN7kGqVQKvV6Pjo4O2Gw2VFZWIigoCAkJCejq6kJoaChEIhGCgoIcDEAMw6C+vh4BAQEQiUSgKIp3u/Px8YFOp0NnZyeCg4MhFAoRGBiI1tZW/PTTT/Dy8oJCoYBGo4FAIEB4eDjkcjn8/Pxg4krOe3p68utF0uGTqTKxftv7BxuNRrzwwgswc7V31Go1/1pPkHtWW1vr/NKgcumt5CJg7CyONE3DarV2W3MGBQX1OHLqdDrQXOnwC8GyLNLT07Fw4cIeXQCHG4pLz9If7AVB/k8eFLfZLuT8Rsk2C0EgEOC6667DqFGj8MUXX8BkMkEgECAyMhJ+fn4ICQnB6NGj4enpCZpL8k3ZlWQHN1ra/x7BwcEoKytDa2sraG5Lh7w3KioKHR0dSEhIQGxsLBQKBaZNm4aNGzeioKAAxcXFDnvNEokEN910EwIDA7FlyxbYuFzG5BqEQiFmzpyJzZs3Izc3FxUVFZBIJFAqlRCLxSgvL+fvBelEBAIBJBIJFixYgC1btmD79u0Oo7VAIMDs2bPx+++/48cff0Rzc7PD/dRqtQgICMDhw4f71XZYlh1QJ9sfhsS31mw245tvvsHRo0fxySefoLq6Gu3t7ZgyZQoYhsHbb7+NJ598ssc12IkTJ6DT6foViaLT6fDvf/8b//vf/1w6cl6qb61Go8GpU6cwceJECC4w5bZardDpdLy7I7F222w23svKZDJBoVBAr9dDzNXPBLf1BABisRhdXV381oxYLOZHTgAIDw+HTCaDTqeDUqmETqfj9/zUajWUSiV/ncT4IhQKIeHC9kin6+HhAa1Wi5KSEnh5efHbQQ0NDairq0NSUhI8PDz4xkyMTSKRiL92s9kMpVIJo9EIlmUhlUpRV1eHxsZGJCUlQSqVoqGhAQaDAb6+vlAoFKBpGhaLBXK5HEajke/I6uvrYbPZ8Prrr+PDDz/kO3ZitGptbcWvv/6KJ598ku9gTCYTiouLERkZCZFI1Kfjis1mQ35+PsaOHesQn9xf+utbOyTiNBqN2LJlC06cOIH169cjMzMTSqUSKSkpYBgGb775Jp5++ukexfnNN99g7Nix/Sq9cPjwYXh4eCA1NfWCjX8gXKo4GYbh10pRUVEuvca/IizLoq6uDq+//jooisIDDzyA5ORkvlMoKirC2rVrIRQKce+99yIxMbHH2VpfMAyD2tpaUBSFUaNGXdLo2V9xXvyZLwHSy0skErAsi6amJoeRzdl0TbBYLFCr1f02BuXk5CA5OXlENnqz2YySkhJ4eHhAKBQiIyMDpgHsFbrpDkVRCA0NxXvvvYd3330Xo0ePdhBPYmIi3n77bbz++uuXVJ3cbDYjLy8PIpEISUlJlyTMi8G1Z+cg4vTw8ADDOb0TcVoslh5HTHDGIA8Pj35NUZuamsDY7aOONEQiEZRKJT777DP897//xU8//YRXX30VBw4c6NN10c3FQdbgZA1rD82t3Z3X6BfCYrGgqakJ586d4x3nh6Kd9f8KB4D92oThSs/L5XJ+FO3NWYCshfpjDDp+/DgWLVrUq9BHAiqVCvfccw+/v7Z9+3asWbMGJ06cQGlpKQwGQ6+zCDdDC8O5OFZWVqKsrAw2mw1TpkxxyMbgaoZMnAaDodvIyXJxnSEhIT2Ks76+HiqV6oI3g2EYlJeXIzIy8qJ6RFfDcltITU1NOHnyJLZv344ffvgBoaGh8Pf3R1RUFD7++GMsWrQI0dHRKCsrQ2VlJerq6mA0GvmgYTdDg81mg9FoRGNjI0pLS1FQUAB/f3+MHz8eCQkJvGFtqBiSTyLiJJZHrVYLsVgMlivJ0Ns2yvnz5/kM8b1BBC6Xyy8o4qHCarWio6MD586dwy+//IK1a9eCYRhce+21WLFiBQICAhAQEICtW7di7Nix/B7j1KlTMWrUKPj5+eHMmTMoKytDS0sLOjs7YTKZ3GIdRFjO2d5kMkGr1aKpqQmlpaU4deoUhEIhUlJSMHv2bAQFBUEsFg+pKAlD8olEnHK5HAzD8H60RFg91T2x2Ww4f/78BS1aDMPgwIEDWLBgwbDcQHtMJhNaW1tx+vRp/Pvf/0ZJSQnmzZuHf/zjH5g6dSqUSiUYhkF6ejo+++wzfpMddmsliUQCX19fzJs3D2PHjkVISAg6OjqQnp6OwsJCaDQa3pnAbDa7BdtPbDYbzGYzjEYjdFwysfLycuzbtw/nzp1DSEgIxowZg4ULFyIqKgoymazbXu9QMyStmWVZ6HQ6fp1J9pBYlkVHR0ePTu/EgHQhzyAi8OGa0rJc+FtzczO2b9+O9evXQ6FQ4JVXXsE111wDHx8fyOVyXoQWiwXPP/88/Pz8er1emnMwkEqlkMvlSE5OxjXXXIMJEybwyatKSkqQkZGB/Px8dHZ28ikriSeWhStU/FcSLmOXypMIkaTxrKiowNGjR3Hq1CloNBqIxWLEx8fjpptuwqxZsyCXy3lB9va7DDVDchUkBo6sM+03eGlu49gZnU6HkJCQPkO+WK7eiq+vb4/ncCXEyNXW1oZvv/0Wu3btwpgxY/D4448jKSmJT6xl3+lQFIXAwMA+s9r3hIALCFYoFPD19UVQUBDS0tJw5ZVXYvz48aAoCkajEZ2dnTh37hxycnKQk5OD8vJyaDQaGAwGGJxyxJKH1Wod0SJmObc7q9XqcN0WiwUmkwlGo5H/fg0NDcjPz0dOTg7y8vLQ0NDAf+eIiAhcc801WLBgAWJjY3mHfYlE0qNldyQwJE4INTU1WL16NW6//XZMnDgRO3fuxN/+9jdYLBZ88MEHeOqpp7rdnPLycjQ0NGDatGm9Cs9qteK7777DhAkTkJSU1O0croBlWZw7dw5GoxHFxcXQarWYOnUqn0JkOGFZFhaLBQyXhJmElJGpL1ljmbn4RZZlIRaL4enpySdfI8sNAtVDErDBus/kc+z/df5sq9XKp8AkMb8U5zoolUr5GFiKoqBUKvkQPIpbJowUO4Q9/XVCGBJxlpeXY82aNbjzzjuRnJzM56u1WCz45JNP8Nhjj3X7wffu3YuwsLA+PYNMJhPefPNNPP/880PyI1itVhiNRvzxxx/IzMzEzTffjNGjR/drq2ckwHBZDOxHSovFwjd+rVbbTSCwE6Pzb2SP83vs6e/7nM9BcQHPXl5efAdi31kI7HxjLydGlDhLSkrw/vvv46677kJMTAwKCwsxZ84cWCwWrF+/Hg8++GC3G/zRRx9h0aJFiIyMdHiewLIsNBoNfvrpJ9x9993OLw8qLOfbWldXh3379kGv1+Paa69FQkKC86F/Ohincgjk/wPFXmQ0/f870ju3gz8j/RVnz/PFQcbCRbFLJBLYbDZ4e3uD5YxEPaX2J+FHJDN5T1i5DPBjxoxxfmlQsXHlAo4cOYKffvoJS5cuxXXXXTckI/VIgBinRFzGOqlUCplMNuCHlMswL+aSl12OI6CrGRJxWq1WCIVCiMVidHR0QCqVguX2OHvqPYxGI7+/1BtWqxWHDh1yqTitVitaW1vx7rvvQiqV4rHHHrvgvqsbN4PFkIiTjJwikQhtbW0Qi8VguIBb+7LzBJ1Oh7i4uD7FybIsYmNj+zxmIFgsFuTl5eHzzz/HypUrMXPmTJd9lhs3PTFk4iQNu729HSIuUVNDQwP8/Py6jURarRaxsbEQ9RL0arPZUFZW5rJRU6/XY+PGjairq8OTTz4Jf3//btfoxo2rGRJxms1mXmj2IycRpzOlpaV8IqWeMHF5gpKSkpxfGjCNjY146623MGXKFCxYsACyfkTEuHHjCnpu/YOMhQsLoygK7e3t/Cja0dHhkK6EUFhY2OeeIbEY9hWtfrGwLIvi4mJ8+eWXuOeee/hsce4R081wMWTiJI1crVbz01qpVNptdGQYBufOnetVnMRPd9asWYMmHJvNhlOnTmHv3r247777ek1b6cbNUDIs4iQjZ09+szqdDn5+fr0aX8xmMw4ePDhoe4xms5kvXnPvvff2OZ1242YoGZJWaDab+f9rtVp+VOpJnB0dHUhNTe115DKbzdi7d2+/U5f0Bsul3yfZy5cvXw65XO4WppsRg8tbIvGuIf8n/pvoRZydnZ1ITU3t1VKr0+kGXAOFCHPPnj1gGAY33ngjZFy0hxs3I4UhEae9PydJJcgwTI/eQTU1NfD39+9xBLNytT6uvvpq55f6DcuFeO3evRtKpRJXXnnlZeMb6+avRXcFDDLE2ZpYWL28vMAwDNra2hzqcxLKysp6FCa4LZQTJ070uP3SH4gw9+/fD4VCgRkzZgxoBHbjxpX0rIJBhIycRJzEr7a+vh5eXl7djq2srOx1eqnX61FdXd2nz21fmEwmpKenw2q14oorrnAL082IxuXi7G3kbGho6CZOI5fUqqeRk+UCqydNmnRJTucmrnRbbW0trrnmGrcw3Yx4uqtgkGG5MCNncfY0cra2tiI5OblHS63NZkNzczMmT57s/NIFsVgsOHv2LPLy8rBs2TL3GtPNZYHLxclwKSZYLh6QJLlqaGjo5h3U2trK14R0xmg0oqSk5KJrU9hsNtTW1uLIkSO48847e7QQu3EzEnG5OJ1HTqVSyU9RndeObW1tvZZT0Gq1aG1t7dHC2xssl0Dshx9+wJ133tmjAcrN/7tPfT3I7+fKh/Nn2j/+qrg8E4JWq8X69evR3NyMW2+9FV5eXggMDMQrr7yC1157zeHYrVu34qabbupxdMvJyUFra+tFbaPodDp88MEHuOWWWxATE9OroeliudRCRiMJ8rOzXG4h5/QlRJRqtRrt7e18ojAdV67dudk4/22P/X0n//fy8oJIJIK3tzd8fHygUCj4zpocQ/dQ+tD5fJcj/c2E4HJxdnV1Yf369WhqasKSJUsQFhYGX19fvP/++3j++ecdjn377bfx4IMPdhOn1WrF3r17kZqaitDQUIfXesNqtWLLli0YNWoUpkyZ0uNofKlcLuJkGAZms5kXncFgQHV1NRoaGvgkX0KhECqVihcHafgsy4LicviIRCI+WwF5DATSITBcKkuLXRZA2InPYrFAq9Wio6MDOp2Of7+npyfCw8MREhLCZ28k2RouB+GOGHF2dnZi7dq1UKvVmD9/PpKTk+Hl5YUvvvgCDz/8MH8cy7J47rnnsHr16m7i7OzsxE8//YRly5Z1mwr3BMuVNW9oaMDChQsH3TI70sTJcIWiGIZBR0cHysvLYTAYQNO0QyEooVAIT09PKBSKHgXWV8Pu67WBcKHm5/w6y2UY1Gg00Ol0YLmpr1arhU6nA0VRUKlUiI6Ohoyr0C0aQblocRHidPkVM9xWilAohE6n4xuFs6VWo9H0GKUCTpwmk6nfsZWNjY04ePAgrrjiil4d6C9XyGio0+lQWVmJ9PR0pKenIzc3FwUFBWhvb0dCQgImTZqECRMmIDExEZGRkYiMjERoaCg/nSQjjv2Dsku65fxwFc6f4/xwvkaBQACpVAo/Pz9EREQgMjISUVFRGD16NCZPnoxJkyYhODgY1dXVKCgoQE5ODk6ePIn09HQ0NDRAr9fDYrF0E/1IpLsSBhkyhRGJRNDpdBAKhWA5w5A9DQ0NvdY8rKysRHx8fI+9vTMajQZffPEFVqxYcdHJm0cqVquVr3iVm5uLrKwsZGdnQ6fTIT4+HklJSUhMTERCQgJfrVrIlcET2JWuJwL8M+AsXAFX2o/MDmJiYpCQkIDExEQkJiYiPj4eDQ0NyMzMRE5ODgoLC/mk02Q6PdLoroRBhojTfuS0WCzdRs76+nqMGjWqmwCtVitqa2uRmJjo8HxPMAyDo0eP4pprroFKpepR6JcLDJdRvrq6GoWFhThy5Ai0Wi3CwsKQmJiIMWPGIDQ0FGKxGCKRiF8LXs7febAgwiWCJZkDY2JiMGbMGMTFxSEoKAgtLS04duwYzp8/j/r6+h4NXcOJy39JhtvnJOKkKAqNjY3dtkSam5sRFxfXrXHp9XpYrdZuI21PlJSUoKCgAKNGjeo1qmWkwzAMdDod6urq8Ntvv8FsNiMkJASTJk1CWFgYJBIJL0bKKTv7YGE2m8GMkDqhxKA1GNBOaT4jIiIwfvx4qFQq6PV67Nu3D42NjdDr9S65rxeLy8VJFvBkWkvTNOrr67sZfUiGBOdpF7lRzsc7o9fr8eOPP+LBBx+8bNeZZrMZ9fX12Lt3L4RCIWbPng0/Pz9ekEajEe3t7Whra0NbWxuqq6tRX1/fbyGZzWZ+zQXOQYMUP2I5a25HRwcOHDiAxsbGfjVQsgYmnYrRaHQ+pN+wXD1TgsFgQG5uLkpKSmDl6u30hI3LLUzey3I5kY1GY5/fgaZpiLh8yn5+fpg6dSpomsbBgwfR0tIy7GvTIRGn2WyGQCCAwWAARVFoamrqJjatVuvwN6GsrAyhoaEQ9uDSR2AYBr/99hsWLlx4WQZMk0Z58uRJGAwGzJkzB3K5HGKnupB79+7F888/jyeeeAJPPfUUXn/9dbz99tvQarWw2WywWCwwGAywceXunEdAvV6P9evX85Zds9mMLVu2oKurCwzD4Oeff8YXX3yB2NhYBAQEwGaz8bVVrFYrzFwRJNJgWZZFZ2cnfvzxRxgMBnz33XfIz8+HXq/nRzvy3eyvxcYVqSXbOQSz2Yyvv/6aF9Xx48dx8uRJfhZEvpeJq1VKsHA1d5qbm/n2dujQIRw5coSfebHcvq3JZOK/vz00TUPMJc1OS0uDVqvFyZMnu13jUOLyVsxyI6dQKOTF2djY6CBO0tM5Y7PZcO7cOcTExDi/xMNykSz19fUYO3ZstzXr5YDNZkNmZibCwsIQEBDQ4wwCAK699lq88sorSExMxKpVq/C///0PV111FTo7O3H69GkcPnwYX3zxBfLy8rB3715s2rTJYYpmtVr5+p4lJSUoLi7m073o9Xp0dXXBwhVCoigKe/fuxeHDh7Fu3TrU1NTg22+/xf79+6HnCgqxLIuMjAxs374dP/30E9rb25Gfn4/NmzcjNzcXVi7+9ptvvsHWrVuhVqthMplQVlaGzz//HL///jvfKbMsi6KiIvz000/46aefoFarUV1d7XBNx48fx9GjR7FhwwaUlJTwHYDNZkNXVxf0ej0aGxuRnp4OnU6HsrIyfPHFFzh16hQsFgs6Ojrw/fff48svv0Rzc3M3gcKuPouvry8iIyORkZExaNPqi8Xl4rRxESlkvs+ybLeRU6PRQCKRdGuQxJLm4+Pj8DyB9JI7duzAHXfc0efoOlJhGAa1tbXw9vbuMYevPRKJhC/oI+fqSZ45cwYdHR04deoUsrKyMHnyZPzzn/+Ep6cnZDIZTp8+7dC4jEYjjh49in379iE0NBRHjhxBe3s7Nm3aBIFAgOnTp+PTTz+FzWbDN998A4ZhEBERgTfeeAPx8fFIT09HWVkZf77w8HD4+vpi/PjxoGkajY2NSEtLw2effQaTyYRXXnkFgYGBCAgIwNdff42WlhZ88cUXmDBhAhoaGnDkyBH+XIGBgVCpVBg/fjyOHj0KtVqNhQsXYvXq1dBqtdi/fz+KioqQkpKCb7/9FgaDgX+v1WpFeXk5Pv/8c0RFRQFcAa0ZM2Zg7dq10Ov1eO+99+Dh4YHQ0FBs2rTJYQrtDEVR8Pb2RkBAAGpqanoUsqsZEnFS3J6VQqEAwzBobm7mI0NYlkVtbS1iYmK6TUd1Oh1UKlWv+5sMwyA7OxuxsbHw9fXts2GPVBiGQXFxMcLCwpxf6heMXWGhadOmYdKkSQgKCsKUKVMwceJEVFZWOoizrq4OO3fuxNKlSyHnKo1bLBakp6ejq6sLxcXF/DRSJpMhLS0NEyZMQHx8PMaMGYPo6Gg0NjYC3FTQx8cHvr6+SEhIgEgkwsyZM5GamgqpVAqDwYCcnByUlJSgqqoKGo0GdXV1vJinTJmC48ePA5wYVCoVvL29kZSUhMLCQixZsgTjxo1DdHQ071SRlpaGsWPHQiaTOaxvLRYLXnvtNVx//fUIDw8HAMyYMQNjxoxBSEgILBYLioqKMGnSJEyaNAlGrq7nhQgMDERBQcGwjJ4uF6fVanUQJ8uyEHHuYISamhrExsZ2E2dVVRX8/f17NPCwXB6g9PR0XHvttZelMME1SolE0mcv7gxtV3CY3Fti3AAAqVQKiiuRZw9FUYiIiMC8efPw008/wWQy8TOaiIgIpKamYvHixXj00Ud5qybNbUmQ9S/5PAJN0zAajdBqtaAoiv+thEIhJBIJQkJCcNVVV2HZsmVYsWIFgoOD0dXVhY6ODjQ0NPToZdXV1YXQ0FAUFBSgs7MT9fX1fJshVmpyLbC7h6tWrcL333+PlpYWfg1J2dXp9PX1RWtrK9ra2vjXL4TZbB62/FIuF6f9yEl6avv6KGTkjI6OdrgBLMsiNzcXwcHBPd4Yi8WCnTt34qqrrrosp7MEmqYxbdo0nDt3rl9TJ4FAgKCgIMhkMggEAoSEhMDDwwOBgYH8dlNMTAwEAgEUCoVDeXuxWIzo6GjccMMNGDVqFP744w+EhIRAqVTiueeew44dO/Dss8/y09no6GgIhUJIpVIEBgZCIBDA39/fIZm3h4cHfHx88Mwzz8Db25t3/IiKioJEIuGNVqtWrcLhw4fh5+eHKVOm4B//+AcOHTqEpUuX8ucSCoVITU3Fk08+iXnz5uHw4cN48sknccstt8Db2xuhoaHw8PCASCRCcHAwLy6BQICoqCikpqbivvvuw5dffglfX1+oVCq+Q5JIJHjuueewdu1arFmzBosWLeq2neeMzWbD+fPnMXPmzG4d3VDgct/aoqIifPzxxxg3bhykUimuv/56bNiwAf/4xz8Ablr2wQcf4JFHHnEQmdlsxltvvYWVK1d2W3OyLIuuri5s3boVDz30UI/idSWD7VvLMAxKSkrQ0dGBxMREh1FhKGE5i+Zgfz7pdEgnzdqFgjnPluwhx5H3DQbkWvrzuQUFBfD390d8fHyfx18sI8a3loycAPhprbPYeprPazQaREZG9pi1wGg04t1338WSJUsG7UcbTmia5n1gjx8/PmyeKhQ3FR7se0o7uQ5Sdq53fUGOG8zrudDnkuXS77//jvj4eCQkJPR5vCtx+afa98Ryubzf4uzs7OxRnAzDQK/XIy4uDsHBwQ6vXc5QFIWgoCBceeWVvA+owWDo11TXzcCxcY4Mhw8fRkNDA66//noEBAQMasdwsbhcnMQgBC6JNOtUgKi3xpefnw9fX99uvZZer8f777+PhQsXDuuNcwUURUEqlWLMmDGYNm0aWltbkZWVhcbGxh43zt0MDBvnDFFZWYmTJ0+ira0N8+bNw5gxY4bNCGSPy8Vpv96QyWSwWq18HiCWZdHY2Nith2JZFqdPn+6WL4hhGDQ1NWH06NHdRt8/C2QqJ5fLkZSUhNmzZ4OmaVRUVODs2bOoqqqCwWDgXfDc9B+W2xfX6XQ4d+4ccnNzUVFRAYVCgSuvvBKjRo3iY12HW5gYCnHarzmlUinUarXDHmdVVRUiIiIcboZer4dIJOoWWK3VavHTTz9h4cKF3UbUPxsUt/4j0RTjx4/HxIkT4e3tjdLSUpSUlKCkpAS1tbXQ6/UjOvRpuLBarTAajdDpdCgvL0dpaSnOnTuH8+fPIywsDNOmTcOECRMQHR0NsVg8YkRJcHkLt28wEokEra2tvAm8N3FqNBqkpqY6ZDCw2WyorKxEbGzsXy5RF23noB0aGoq0tDRMnDgRo0ePhkKhQEFBAXJzc1FeXo6amhrU19dDo9HAaDTyfqjDYWAaCogThclkgtFohFqtRm1tLWpqalBSUoLTp0/zTh4kIDstLQ2BgYF8QMFI7ehdflU2u6RRNE2jtbWVFx3Lsqirq0NoaKiDOBsbG5GQkOCwtaLT6XD06FFceeWVI/ZmDgU05zQgFoshk8kQHh6OOXPmYM6cOUhOTkZUVBR8fHxQWFiI33//HXv37kVOTg4qKipQUVGBhoYGB+ESB3krl9NnpMBy2zoWi4V3djeZTDAYDOjq6kJ7ezva29vR3NyMgoICHD9+HOnp6Whra0NoaCi/7zl37lzMmjULvr6+kMlkEIvFEAqFl0Ubcvk+56FDh/Dzzz8jJSUFc+fOxcGDB7FkyRL4+fnBYrHgrbfewqpVqxxu1scff4wlS5YgJCQE4HrH/Px8FBYW4tZbbx2WDWF7Bnufc7AhSdVOnDiBjo4OaLVaWCwWyOVyLFiwAAsXLkRjYyMfcSGTyaBSqeDj49MtCJ5yShtCnhso7AVSYFqtVqjVat6jh3y+UqlEWFgYgoKC+F0AIZcBAVznNdKmp870d5/T5eLcv38/duzYgeTkZFx11VX4/vvv8fDDD0OpVMJiseD999/H008/zd9Mq9WKlStX4q233uINQjqdDj/++COuueYa+Pv7O33C0DPSxckwDDQaDcrKyvDbb79h8+bNoCgKS5cuxVNPPQWVSgXGzifXZhdiRkKxyGtk64ok0GKdIogupvmQ35hM0Yn3kX1aTHIcxUWHiMVih+UN/SdIuTJixPnHH39g586diI+PxzXXXIPPPvsMr7zyCqRSKSwWCz755BM89thj/I1ua2vDhg0b8Mgjj/BbL0VFRcjIyMD//d//8f6jw8lIFSfLhefp9Xrk5+fjxIkTCAgIwObNm5GWloann376gpEvzpBRjYi5t5HuYiDio+ycDC6HaeZg0V9xuvyOEGst2e8kGQ/Ia85OBm1tbZgxYwZvNDKZTMjKysK8efNGhDBHIiwX0EyyGGzduhU6nQ73338/jEYjpk6dyjeGixEm7LZ2iCM8GcmkUuklPyQSCcR2uY/+SsK8GFx+V2w2G2ia5i2G5AdhuNAx5/3Kmpoah0RfTU1NABe648YRhovsV6vV+OOPP7B582bIZDKsWLECCxYsgEwmg16vxzPPPAN/f/+LFqab4WVIxElRFG+1Jd5BLLeN4uyCl5+fD6FQyI+2R44cwYQJExzWHX91GC7FiFqtxsGDB/HRRx8hNDQUDz74IObMmQOFQsGPeI8//vhlG+v6V2dIxAnO0APAoex8ZWUlgoKC+IZjs9lQUlLCT3M0Gg0sFgsf2f5Xh2wttLe3Y9++ffjf//6H+Ph4PPfccxg/fny3DoxsG7iFeXkypOK0HzkZhkF1dbXDdLWlpQXx8fG8WTwnJwfx8fEXjLv7s8Ny1cG7urrw448/4rXXXkNqairWrFmD2NjYfgUNu7n8GBJxkimq87RWr9c7mNBra2sxY8YMCIVCGI1GnDp1CqNGjfpL9/wsF7v61Vdf4ZNPPsG0adOwZs0ahISEuA1kf3KGRJwsl/WdZVkHZ3bncgnEGCQUCtHQ0IAJEyZ02xQfCdA0DbVa7fz0oMJyaSe/+uorfPHFF5g8eTL+8Y9/IDw8/LLO/PBXp6OjA56env2a7bh8n3Pr1q04ffo0BAIB7rnnHmi1Wj7B0oYNGxwqjb333nu4//77IZVK8f7772Px4sWIiooacSNnZ2cnPvroowHt9fUGy1XMEggEKC0thVAoRExMDMR2OXzcXL6IxWLceOONiIuLu6Cnm8vFSXKY0jSNe+65ByKRCPHx8TAajfjuu+9w1113AdwI+/zzz+Oll16CyWTCpk2bcN99943I9Saxlto79Q8UIsrDhw+juroaM2bM4Kt8u/cB/zzQXGKxCwkTQyHOjRs3oqCgABKJBDfffDMCAgIQHh6Ojo4OHD58GIsXLwa49eZPP/2EBx54AIWFhRCJRL2WoP8zQdbeubm5yMzMRGpqKiZNmgSJRDLifUTduBaXd8nE7UssFkOr1UIoFIJhGNTU1Dg4IFRUVGDSpElgWRY//PADgoKC/tTCZLnaJMXFxdiwYQNaW1uxYsUKzJgxAwqFwr0F4mZoxAnO2dlenBUVFQ4pMmtqajBmzBi0tbUhMjLyTxuzyXIJpOrq6rB582ZkZWXhzjvvxMKFC6FUKt3GHjc8LhenjSvHYD9y2rjAafuRs7m5GWKxGIWFhbj55pv7Zc263DCbzejo6MCOHTuwfft23HjjjVi2bBl8fHz+lN/XzcBwuTgZhgHDMBCJRNBoNBBy9VKqq6sdHBI6OzthsVjw22+/QSaT/amMIFarFV1dXcjIyMDnn3+OcePG4Z577kFQUBCkPaT+dOMGQyFO+5FTZ1d2nqZpvmG2t7fDw8MDNTU1GD9+/J9mc53hYiHLysqwadMmWCwWPPDAA0hISIBcLnevKd30icvFSUZOMq0lRh4ypWVZFiUlJRg7diyKiopw7bXXXvbiZLkQrra2NnzzzTc4ffo0br31VsyaNQtKpfJPNStw4zpc3kpYzi9UxFW2JgYPYgxiWRalpaVITk5Gbm4uFArFZd14rVwNzAMHDmDLli2YN28ebr75ZgQGBrqNPW4uCpeqgOUi5m02G4RCISwWC2iaBsuyDpba9vZ26HQ6hISEXLYNmOVyopaWluLTTz+Fl5cXHnnkEURFRbmNPW4uCZeKk0ACromTu9VqdRCnxWJBdnY2Fi9efFmK02azoaOjA9988w3279+Phx9+GGlpaZD0UBDYjZv+4lJxEucjIk5PT08+VIyUqyNxnuXl5fD29h6xU1oyCyAPspY2mUzIzs7Gv//9b1x55ZVYuXIlb+xxfo/74X709OgNl7rvMQyDd999F1lZWVi8eDE6OjqwYsUK7N27F0lJSYiNjUVRURGOHz8OtVqNJ598csROASsrK/Huu++ira0N4DockmVdrVYjKCgIYq5Yqxs3/cHDwwO33HILZs6c2WO7HxJxnjp1CsuWLYPZbMZNN92Ezz//HMuWLYO/vz9++OEH1NTU4Morr0RqauqIHTm/+eYbTJo0CZGRkdDr9dizZw9aW1uxdOlSqFSqEXvd4MpbMAzDZzi/WNhBqtvJONXpHAwYzj30cnT1NBqN2LFjB+bPn4+goCDnl4d2WqtQKMBw6Uk8PT3BsiwqKipgs9kwevToEd3ArVYrRCIRampqsG7dOoSHh+Pee+9FQEAA3+iH4iEQCGA0GpGXl8fPOGiuXENvj7KyMqxfvx4VFRXdXuvp8fXXX6OoqIg/b2VlJTZu3MjfA5FIBJvNhj179uDEiRP8cxRF4csvv0RVVRWEXLY+8gCAbdu24dixY91eE4lEsFqt2Lp1K5qbm7u9JhKJoNfrsW3bNjQ1NTk8r1ar8eqrr0Kr1XZ7z0h/eHh48Pmbe2JI1GC1WnmDEMMwUKvVkMlkDnPukdzzsZyT+h9//IH9+/fj73//O6ZMmQKpVDrkHUptbS3uv/9+3H333fjf//6Hq666CgcPHgTLhZxZrVZYrVbodDowDAOj0YiQkBB4enoiMDCQn47rdDrodDro9Xrnj8Brr72G48ePQ6fT8d97/vz5gN3oZzQa8dlnn+Hnn3+Gjattqdfr8fLLL+P06dPo6OjgiwAbjUY0NzejpaUFY8eO5dfjJpMJnZ2d/Oe8/PLLKC0tRWdnJ5+NnqDRaPD666+juLgYWq2WL4moUCgwbdo0nD59GhaLhb8P5NzkGqxWK7RaLfR6PfR6PcxmM3/u4eJCMwiXtyyW20qhKIofOf39/UHTNBiGQW1tLZKSkoa8kfcXk8mE4uJiFBQUIDg4GMuXL4dKpYLoEqaHA8Vms2H37t3IzMzExo0bsWHDBvj4+ODZZ5+FwWDAHXfcgYyMDBQUFPCB7V988QUeffRRbNu2DZs3b0ZDQwOefvppPP/881i6dCkee+wxdHR0OHyOXq+HxWLB+vXrsXr1atxyyy346aef8O677/K9PMttHXV2dmL//v148MEHUVtbC51Oh19//RU333wzXnzxRRgMBmzYsAGPPfYYfvnlF2zduhUajQY1NTX417/+hcWLF+PRRx+FRqOBRqPB1q1bsXjxYrz77ru8sRDcd9dqtfjqq69w44034rPPPkNHRwfWrVuHzz77DP/73/+wYcMGGI1G3HXXXfjXv/6FJUuW4OWXX4Zer8fBgwexdOlSPP3007jvvvuwa9cuu288MnG5IsjoSHo5hmEQHBwMlkvDUVBQgLS0tD57kOGAXN+hQ4dw4MABxMfHIzU1dVj9fhmGQXl5OVQqFaKiouDn54dZs2ahoqKCL/TU3t4OtVqNEydOwGw2IzY2FrfeeitmzpyJTz75BMXFxThz5gzOnTuHJ554Anv37kVNTY3zRwEApk2bhu3bt6O2thY7d+5ERESEwwzHxmVLfOqpp3DXXXchLCwMFEXBw8MDt912G77++msYjUaHa/joo49QWlqKH3/8EXv27ME777yDp556ig+RCwsLw/z587F27VoHcYL7TWJjY5GWloavv/4aGo0G48aNwy233IKpU6fixRdfREtLC06cOAGj0YhbbrkFW7duRWdnJx566CGEh4dj6dKlSE9PR21trcO5RyIubWX20xKr1cpPa4OCgsAwDAoLCxEbGzviEh5bLBY0Njbi3XffRUBAAFasWDEi3O5omoa/vz90Oh3a29vR1dWFwsJC+Pj4QCqVgmVZaDQatLe3w2KxwGg0YvXq1di4cSPq6upgsVj4UTItLQ3R0dGgaRoGg8H5owAAo0aNgkgkwg8//ID29nZMnjy52z50UVERDAYDH39LURRmzpyJhIQEfgr5n//8B5s2beKvgZTpUyqVCAoKQkxMDERcKb5p06YhOTkZHR0d/BSaIBQKkZaWxmfSaG1txb///W988803aGtr46frDMNgxowZSExMhF6vh8lkgl6vx8SJExEQEMC3w5GOy1sbESgxJrAsi6CgINhsNhQUFIw4C61Op0NBQQHWrVuHlStXIiUlBXK5fERco0AgwKJFi/is7g8++CAyMzPx5ptvQiwWIykpCevXr8eHH34IqVQKiqKg1WqhVCrR1tbGl8CTyWSQyWQQiUSQy+XdBKdQKCASiaBQKLB69WqsW7cOc+fORVhYGH8MTdOQyWS48cYbMWPGDDz88MNobW2FQqHgP4fs9+p0Onh5efHXIJVKMWfOHLS3t+Oll17CqlWrYDQa4eHhwb/X2Y1TKBRCLpdDIpFAIpFAxlVJNxgM8PHxQVVVFeRyOQQCQbdr8PT0xNVXX43PPvsMjz/+OFpbW0fUYNAbLt1KsVqteOedd3Do0CHceuutmD9/PhiGQVdXF2JjY/H8889j0aJFmDt37rDfLOLl88MPPyA6OhozZsxwEOWXX36JK6+8ki9LOFxYLBbU1tYiJycHu3fvRl5eHnbt2sXX5MzNzUVcXBy6urowa9YslJaWoqCgANHR0TCZTIiJiUFjYyO8vb0REhKC7OxspKSkOBTV2bdvH+Li4hAUFISSkhIsWbIEGzduxKxZs/j7YTQakZ+fD7FYjMjISGRmZiIuLg6lpaVISUmBWCxGTk4OZs6cyV9DTEwMjEYj3+Hl5+ejqKgIYWFhmDJlCjIyMpCamgqbzYYzZ87gyiuv5Nf2XV1dOHPmDJKSkmA0GlFTU4OkpCRUVVWhsLAQo0ePRktLC9LS0nDq1CmMGTMGIpEIOTk5mD17NoqLi3H27FmYTCa89tpreOmll3D77bfz33m4+PXXX5Gamorw8HDnlwDWhVgsFvb1119nFy5cyK5fv56tra1lT548yZaVlbE6nY699dZb2ba2Nue3DSkMw7BGo5HNz89n3377bTY/P581m83Oh7Fbtmxh6+rqnJ8eNmw2G9vW1sZu2bKFrampcXjeHoZhWJvNxjIM4/B8f2hsbGQXLVrEPvLIIwP6nXq7ht6evxjIOS7Ejh072CVLlrBz5sxh//nPf7JNTU3OhwwLv/zyC1tdXe38NMuyLDtkczWyuK+rq4NMJgPDMKAoig+4Hg4YLt5y9+7dOHXqFFasWIHk5ORhscReLDRNw8fHB3feeWe36aY9lF2ZvYvFx8cHW7ZswZtvvumQb/hi6e0aenv+YiDnuBBXX301Nm7ciO3bt+M///nPiKjzeiEu/K0GCJk1ExN8bW0tJBIJOjo6MHXq1AH9MAPBarWira0NW7ZsgYeHB+66664R7+nTE668fyKRCN7e3sOynzvYSKVSeHt7w9vb+7IJSBiyO07EWV9fD5FIhIMHDyIhIcH5MJdD9ucqKirwwQcf4JprrsGVV17ZzSjixs1wM2TiJNPa5uZmCAQCZGdnIyYmxvkwl8Jy3ioZGRnYtm0bVq1aNSIzyrtxg6ESJ0VRsFgsYBgGvr6+YBgGLS0tQzpykj3ATz/9FAzD4JlnnnEoouTGzUjD5eK03+e0d0Do70J+MGC4JNZvv/02Fi9ezFcyc+NmJDMk6qC4EoAMwyAwMBB6vR6TJk1yPswlWCwWZGVl4eeff8ZDDz2EqKioEe1k78YNYcjEaeNSZPr4+ODIkSNISUlxPmzQMRgM2L17N0pKSrBixQre4d6Nm8uBIWupEokEVi530KFDhxwqWruCrq4u/PDDDxCJRLj55pvh6enpFuYlQgIXrFYrzGYzjEYjDAbDJT+MRiNMJhMsFgtsXP1WN91xufveG2+8gRMnTmDWrFn8lsWrr76KDz/80CUCZVkWzc3N+O677zB79myMGjVqUNKHjBT3vcHCXnDECdzKxYGSeEfSNMj2k8Vi4UsfOgcI99WMnO+9QCCAQCCAWCzmA48FdqUOaS7hOPGRpbi4R/K+P1Mn25f73pCI8/jx45g/fz5Gjx4NPz8/PPfcc9i1a9ege+IQw8+6devw6KOPwtfXd9A+43IVJ8sFGttsNthsNuj1ehiNRrBcOfvGxkb+b5FIBD8/P/j5+UEulzufihcJEZuz6FiW7fZcT7B2Qfb2/ycwXEB+W1sb1Go1f04fHx8EBQXxYpbL5byDv0AguCyNfMMmTpvNhjVr1uD48eO49tproVKpEBcXh48//hibN292PnxA2Gw2VFRUYP369Xj++efh4eExqD/W5SJOm80GK5cNwWw2w2q1oqCgAC0tLRCJRIiJieFnLKRR2wuKpukBu9QNBgyX3dBZxOQ5q9WKsrIyft88MTERISEhEAgEkEgkoLkUK8P9PS7EsIvz6NGjWLJkCfR6PXx9faFWq/HYY485H37JWK1WFBYWYvfu3XjggQfg5eU16FOfkSpOlmX5tZvFYkF1dTVKSkrg7e2N2NhYgFvvk2Bmmqb/FNZqlsuwQcRKpt1arRbl5eWQSCQYN24cPD09IRQKIRQKR0Sn40xf4hzcFtwLDFdlrKmpCWfOnMGECROcD7kkWC4PzfHjx3Hq1Ck89NBDIzr37WBBRg6j0YjOzk4cOXIEGRkZqKmpgUKhwKxZs5Camgpvb2+oVCrI5XJ+fWcvTBf2y8Agnr+nqS9FURAKhRCLxZBIJPD09ISPjw/CwsIwffp0jBs3Dp2dnTh//jwOHjyIvLw8GAwGmM1mfo090hmSVsxwhYxaWlpQVVXVYxrAi4UI8/fff0dNTQ2WL18OT0/PEdczDib2oszPz0d2djbOnz+PlJQUpKSkICwsDFKpFFarlY/+1+l0fDIse4xGI6qrqy8q0RWZKttsNoD7XcnU2RmDwYDGxsZunwuuTqnJZHJ+mv9NnY1Ner0eGo2mx89xhqZpPsg6ODgYERERmDhxIry8vFBUVISTJ0+iubn5shCpS8VJcVnWbFyCLwBQKpUDrlpNfsTffvsNZrMZt956K2/V+7PCMAwsFgtKS0uRlZUFT09PJCUlIT4+HnK5HCIuXeW6devw8ccf45133sGnn36KPXv24Mcff4TBYOC3LRiGQUFBAbZt24aWlhb+/GRqTDoB520OnU6Hb7/9ls9oZzAYsG7dOnR0dPDvA7ecOXToEIqKihzWiFbOMnzixAmcOHGC/wz777h7924UFBQ4iMdiseCjjz5CV1cXP4oynKXZarXyn0vukf110zQNiUQCPz8/xMbGYtSoUaitrUV2djba29v7JfjhwqXiJJAfQMRVGhuIOO1HTIlEgsWLFw+aRXakwrIs9Ho9Tp48CQAYPXo0AgICun1vgUCAu+66C1dccQWKi4tx++23Y9y4caiurkZmZiYKCwv5UUur1SI+Ph61tbWwWq2oqalBaWkpjh8/joaGBhQWFiIzM9NhFDObzairq+NHxfr6elRWVqKkpAQnT55Ee3s7WC4XcV1dHR8zaTAYcPr0aZw8eRKdnZ1obW1FWVkZ0tPTUVVVxYuQYRg0NDTg/PnzOHHiBGpra8EwDAwGA5KTk1FQUACj0QiLxYLz58+joKAAWVlZMBgMvIHoxIkTKCkpQWtrq0PHAjuhxsfHIy4uDsXFxSgrKxuxAnWpOMlIRr68WCyG0WiETCZzOrJ/sFxUyaFDh6BQKLBw4cI/hXHjQphMJpw4cQLx8fF9VmKjKAo+Pj7w9vaGQqGASqWCTCZDTk4OmpqasHHjRuTl5aGoqAjffvsthEIh3n77bbS2tmLbtm1Yv3492tracO+99yI3Nxe//fYbysvLHaZ/Vs76++mnn0Imk8FoNGLfvn1obGzEunXrAAD5+fmIiYnBp59+CrVajc8++wynTp2CkUvKZbVacezYMbS1teHf//439Ha5c1mWxb59+6DVarF69WqYTCacPn0aSqUSBw4cwIkTJ9DV1YU1a9YgPT0dWVlZ2LNnD3Q6HV566SWYTCa88soryMzM7CZOAkVRkEgkGD16NBguo2Fvxw4nLhUnwX6KNH78+EuaftoL09vbG3Pnzv1LCBMACgsLERMTA4VCcUn3bsqUKbjuuuswc+ZMlJeXIysrCwqFAmVlZQgNDUVTUxMoisLNN9+Mm266Cf7+/rjllltwww034MyZMw4jS3FxMb7++ms8/vjj8PLyglwux4oVK3DdddehpqaGn3b+8ssvKC8vR05ODnbu3ImlS5di/vz5iI+Ph0AgwDXXXIP58+cjNTUVGo2GPz9N01i6dCmuu+46eHl5gWEYBAQEYM+ePTh79iw/5Q0LC8Ott96Kq666ChkZGWhoaMB1112HuXPn4sorr+zXelIgECAwMBDt7e0w9JKBcDhxqThJQ7LZbDCbzWhubkZqaqrzYf3CZDJh79698PT0xJQpU/70Fll7mpubBxTeJuLSTlKcA4GnpyemTp2K5cuXY/Xq1YiOjuaPI6MKOZasGQnR0dEIDg7G0aNHYbVaQXFWU4JOp8O+ffvwyiuvYMmSJQDXsRJDEsuyoGnaYWvHGVLUh+ICJv75z3/i8ccfx6OPPgpw53PeGvH29kZDQwOsVisaGxsdztcXIpEIoaGhMBqNzi8NO93vzCBB1obgeiihUAi1Wn1J4mRZFtnZ2fD29kZaWlqPP+ifGRLJ019IGkmyxiKb8lKpFDKZDPPmzcPJkyfx1FNPYdWqVTAYDJBKpbwolEolKIrinyP3WyQSwcfHBytXrkRHRwf27t0LqVTKC8XT05M3zD355JMoLS2FTCbDG2+8gX/+85+49957kZWVxae2JA4DZO1s/5kA4OnpCbFYjKuuugqrV6/G3r17IRaL+e0TIVdzRaFQwMvLCyaTCffffz+fCqc/WK1WNDU1QSqVOr807LjECcFkMiEjI4O/kRaLBa2trUhJSUFwcHA3Q0Z/IL1ub+stVzOcTggmbi83OTm5X1ZpYnkVCoX89I6mad5qTnHB73q9nrf0MlyMrUAggNls5q2/ZHRzHkXJ9NX+dYvFArFYzO8nEuGRjtpms0GhUPDvFwgE/PUJBAKwdpZ9++sg10rOR74/+Ze0jfT0dIjFYqxduxZvvPHGBZOV22w2tLS0wGazISkpqc9jXUVfTgiDLk6z2YwjR44gPj6e74HJTS8tLXVwH7ucGE5xspy19syZM/D394efn9+gdFJEXK7AlefuCZvNhqysLDQ3NyM2NrbP+jss51VVUVEBuVyOxMTEQbmfl0Jf4uz56gdAc3MzEhIS4OXlBQEXQSAQCCASiRAXF8fX8HDTfyiKgkwmQ0JCAhoaGpCTk4P6+voB30dXiseV5+4JmqYxceJELFiwAImJiT0Kk+GcJqqrq1FWVoaoqKhhFeaF6P4NBkh6ejpkPRT7oSgKIpEIEydOhFardXjNzYWhaRpKpRK1tbXYsmULXnrpJXz00Uf4448/UFlZeVFr0j8jlJ07n70Vnwiyo6MDdXV1KCwshL+/PyZMmABfX98RK0y4QpwWi6XXXpMYKJzds9z0jc1mg8lkgtlsxqxZs/C3v/0NTU1N+PLLL/Gvf/0LTz75JH799Vc0Nzejq6sLJpPJwXPmrwTLWYaNRiPa2trQ1NSEjIwMtLa2Ijo6GtOmTUNAQICDoWukMuhrzh9//BGzZ8/u0Vpms9mgVqv5jfLLiaFYczKcS5rFYuH/tVgsqK+vR0FBAQoKCiASiZCQkACapvHKK68gJCQEr7/+Op/2pbq6GkVFRfD19UVSUhLAGVuI0Yb8/3KH5Vz4iJHKxkWoaDQanDt3DkKhEBMmTOBDB523XkYKfa05B12cbW1t6Orqgre3t8P0gljsDh06hJtuumlETyd6YjDFSaypxDnDyvmItrS04OzZszh79ixsNhtiYmJ4A5pMJuOrbGm1Wjz22GOgKAqvvvoqIiIi+Ptp44KqzWYzDAYDGIZBaWkp1Go1hEIhIiMj4evrC3BTQfsGS3GW3JHQiIno7J0JyN/k36qqKrS0tICmaURHR/OGMrKNZG/ZHakMqTgtFgvOnDnDhytRdtbaM2fOIC0tDV5eXs5vG/FcijjJ93Z+dHV1oaSkBKWlpdBoNPDz8+OtsCqVCiqVii/DJxQKHTo5m82GY8eOobi4GMuWLePvcW+wnNM56RC6urp4bxi9Xo/29nbekV0kEkGlUjnU+yQQ4ZLHQCHnZrktGfI3aS9dXV1Qq9Xo6OgATdNgWRZKpRI+Pj4QcOlK7PdVne/T5cKQihPcdkpFRQVaW1vR2dkJqVQKlUqF6OhoeHl5DcqPO9RcSJyk8ZPplY1bJ1ZWVqKyspLPRCCTyaBUKhEQEICgoCB4e3vz+8H9aVwWLqA6JCTkkn2UCWQaTUYnq9UKrVYLjUYDs10OIdhlWCBTSXuXvv40IfvfnOayLRBBCeyyMRDxKxQKeHh4QM7V+ISdM8vl2H56Y8jFCbu9pOzsbCQkJHSb5l5ufPnll5g3bx6Cg4P5BmrfUJubm1FXV4eGhgYYjUaYzWZQXBn1yMhIBAUFQSKRQCwWX5YNzP77Oo92FwsRIBHpSJhGDxfDIk7C6dOnERcXN6AwseGAND7SGL/88ktcccUVkMvlaG5uRnNzM1pbW9Ha2oquri6EhoYiISEBMTEx/NrwcljzuBlehkScvZ3mQuIcCY3XfiQgD4PBgI6ODqjVatTV1WHnzp2w2WyIjo5GSkoKxowZAy8vr27+p27cXAwuF6fZbIZer+9RoKQMOvGptEcgEECpVDo/7VLsr5HljCU6nQ46nQ4NDQ3Izc1Fbm4uKIrC+PHjMXHiRISGhuLHH3/Etdde61Co1o2bgeJycRLH5J5OdSFx9jaiDjZke8FoNEKtViMrKwtZWVloaWnBmDFjMH78eD7lB7GU2hspLmQQcuPmUnC5ODGCprUMl0fGZDJBo9Hg7NmzyM/PR01NDUJDQxEbG4vo6Gh4e3vDy8sLHh4evIHC/uGMW5xuXMGQiLM3LiTOS4XlrMEmLsvc+fPnUVZWhsrKSiiVSvj7+yMgIAD+/v7w9/eHSqXiraTEUtibEHvCLU43ruBPJ06LxYLt27ejtbUVMpkMMpkMgYGBCA4ORlBQEG+gISIkj4HgFqcbV/CnEyfDMHzwLs2FpLl6z8wtTjeuoC9xDmw4GSZomoZMJuM9SMieor2niRs3lzuXpTjduPkr4BanGzcjFLc43bgZobhUnCQ6g0Q9uHHjpv+4TJwsF1zd2tqK6upqhxCjgcJw9TO0Wi1fqdniVMDGjZvLHZeJ02KxICcnB5MmTQJN06irqxu0EdRms2Hnzp3YunUrvvvuO2zfvh1Hjx5FSUkJOjo6eMGaufJ0btG6uRxxyT6n1WpFZmYmYmNj4e/vD4vFgry8PERHR8PHx2dQtjvsPYQMBgOqqqpw/vx5lJeXQyQSwc/Pj3/4+vrC19cXCoXCwTPoYryE3PucblxBX/ucgy5OhmFQVFQEHx8fBAYG8p45RqMRhw8fxqxZs/qVtfxSIaI1c6XuSMKroqIiGAwGREVFITIyEhEREVAqlXy9UGehOov2zyjOC/30F3p9sLlQm7jQ65cjQyrO+vp6sCyLoKCgbpkP9Ho9tm/fjqVLl/L1MIYKlsvnYzKZYDKZoFarcebMGeTn5/MJhkmFaF9fX8jlcshkMt4fl4gzNDTU+dSXBc4/M0k7QjL9UVzuHoLRaIRGo0FnZycMBgP/6C36qKfnCD2JSiAQwNvbGzRNw9vbG5Rd+UJ7V0vSSZIMej0FsDv/fTkxZOJsampCc3MzRo0a1WN2PZZlodPpcOjQISxcuLDHY4YC+6/MctkOjEYj9Ho9tFotKioqUFBQgLNnz0IsFmPs2LGorKzE8uXLERoaOmKzHJBZg8WuynRbWxvq6+tRX18Pk12pd09PT6hUKnh5efFpSu3vS09ukeQxGJD7TjpN8m9P9gGWZdHe3o7W1lao1WreuEjTNHx8fBAWFobw8HDQXCIwAVdhYLja18UwJOJsb29HXl4eZsyYAVEfhYoYhkFHRwfKy8sxYcKEQfuxBwprlxOH/J/lMiJ0dnbim2++QUxMDHQ6HWpqatDW1ob4+HiMGjUKCQkJ8PDw4HME9fadLBYLioqKEBMTc8kl/WxcaXiyRUUSiJnNZggEAn6NLeAKA4lEIr6qV0/X1Z8Opj/HDIT+NMGejmG5YHmTyQSj0cgfY+QSSmu1WlBcKYuoqCgEBASA5hKLjZTO1eXiNBgMOH78OGbPnt2vL22z2VBbWwuDwcAnPh6pEJFu2bIF8+bNQ1BQEJ/Uq62tjc8j1NbWhvb2dnR2diIgIACxsbGIi4uDl5cXn12PoiicPHkSGzZswKOPPorRo0f32pGx3ChotVr5kDiNRgOKoviOgOZKNHh6evL3nEwD7enpuT8T9h2r/XMEi8XCpwSlKIrfhmNZFoGBgYiKinIQ7VDicnF2dHRAKpVCwhVd7Q82mw319fU9XtRIxNkgRBqEfVY64nTR1taGhoYG1NfXQ6vV8lNNksv3559/xunTp3HjjTfi/vvvh5+fHxiupofBYEBlZSVMJhMobh0oFov5xNJwEhvtoiicPxP24iX/J39rNBq0tbXxv6XNZoOnpyciIiL4TrWnGcdg0W9xkosmPz556UI/PnlPU1OTQ3EYYmhwNgyxdusMoVCIpqYmfsoxUnEWZ1/YC5X8a+NqQZaXl+P48ePYv38/GhoaMHr0aDz66KPw9fWFTqeDSCRCZGQkPwMhD7cIXQMRJWn7DMNAr9ejpqYGAPhZSlhYGF+wdzDbaV/idPiUzs5ObN68Ga2trbBarTh27BjUarX9IT1CvtTRo0dRVlYGs9kMhmFw6NAhFBcXOx8Oq9WKXbt2oaKiAgCwY8cOVFZWghkkJ4XhhkyRyFrPw8MDXl5eCA0Nhb+/P3Jzc2GxWJCWlobp06cjPj4e4eHhGD16NBISEiCXyyEWi3mjhjsUznWQwYNMaSUSCby9vZGcnIxRo0YhNDQUXl5eyMzMxIkTJ/hk6aSNuxLBiy+++CL5o6mpCf/617/g7++PyMhIbNiwAcnJyaAoClVVVdDr9TBwJcqbmprg4eEBtVqN3NxcdHV1wd/fHydOnICHhwfOnz+PiIgIeHt788m9zGYzGhoaUFdXh6NHjyIoKAhyuRzx8fHo6OiAzWaDXC5HY2Mj2tvb0dTUxN+0zs5Oh2u4VIPKpZKXl4eYmJhLChq3Wq3QaDTIy8vDpk2bMHfuXDz22GO47rrrMHnyZL7YDrGGuoU4vJCZir1oAwMD4e/vD5FIhMrKShQWFvL5p8jvdimUlJQgKCioxxIlDmdkGAZxcXHYvHkzmpubYbVa0dXVhXfffRcZGRl444038N5778FsNmPt2rVgWRYHDx7EqlWrUFdXh//85z/w8vLCXXfdhaamJvz+++84e/Ysf/7GxkasXLkS586dw9GjR2Gz2bBt2zZUVlZi1KhRePvtt2EymfDyyy/j/fffx/79+7Flyxa0t7fjnXfeQUZGBtasWYP333/f/rJHLMSYk5GRgdOnTyMsLAwvvPACbrzxRoSEhECpVF7UOt3N8EDZ1f6UyWSIj4/HpEmTQFEUTp06hezsbOj1+kH1H4ezOAFAqVRi5cqV2LdvH4xGI5qbm9HR0YFFixbhoYcegkajAcOVWgM3pf3b3/6GmpoaPPHEE7jmmmswa9YshIeHw2KxwGg0ApzwS0pKsHLlSsyfPx+jR48Gy5VTN5vNoGkaGo0GNpsNer0e9957L2688Ua0tLSgqqoKWq0WixYtwsqVK0d88V2Gc8zPzMxEaWkpIiMjMXbsWHh5ecHT07NHiyBZ8wwmg3W+wTrPYDOY9+xiziMQCCCRSCCXyzF+/HiEhYWhpKQEOTk5MBqNgzbd7SZOmqYxadIkZGdno7a2FiKRCFauRJ3FYuGHbzIqtLe3QyaTQSwWw2w2w2azAUCPHkAikYjfoyPGIrlcjq6uLuh0OqjVarDc3pxUKoVUKgW4m2G1K5c3kkcaG1eDNCMjA2FhYYiIiICnpyeEnKcRwzk8aLVaGLgSfQzD8NsyF9NICAzDQKfTdXuurq4OBoOBtwkwnOGDYP88wzA9dnoGgwHV1dUwX2KJe6tdEV+TyQRLH4WTWS6Syf4Ys9nc4/rOarXyQQ7OsCzLb5U4Y7VaHdopeY5s7V0MZET19PTk6+FkZGSgra3N4fyXioM47RfEd9xxB5qbmxEcHIyJEyfizTffxHfffQcRl6vHbDbjs88+Q1ZWFsRiMWbMmIHvvvsOa9euBcMwCAkJ4bdXwIk+Li4OP/74IzZu3IiWlhZIpVJMnz4dO3bswLp16wBOiHK5nDeGSCQSBAYGYty4cXjzzTfx/fff9yj8kQDLsqirq0NJSQlGjx4NpVLpYKlmGAYtLS1Yv349PvnkE3z22WdQq9Ww2Wz4+uuv8c033/BCsdk5G/QkKNJhstx+6Pr16/nnwHkGrV+/Hr/++iusViuMRiNOnjzp0LNbrVYcOXIEHR0dMJvNWLduncM5ACA/Px/bt29HdXU1P1KRTpI0QJZzBrB/jjx/4MAB6HQ6MAyDPXv2oLS0tNv1ExiGwa5du1BQUMB/TnV1NX799VcYjUb+XpD7uHXrVv67MFy+YnLOjz76iI9Ksv8MrVaLr7/+GgaDgX+N4WqYZmZmOpyP/AbkOfvvyTh1dAKBAF5eXhg9ejTKy8tRU1Pj8Pql4GAQkslkuOKKKyCRSBAaGoo777wTvr6+8PPzQ1JSEqxWKxITE5GcnIy5c+ciPDwcS5YswejRo+Hr64uZM2ciIiICixcvhqenJ0aPHs2XL2BZFgqFAldffTUiIyOxbNkyhIWFISgoCJMnT8aYMWOwbNkyyOVyzJ07F0qlEmKxGNOnT4dCoeArNVssFowaNQqJiYn238Pl9Mcg1NraipKSEqSkpPBbIfbo9Xp8+OGHGDVqFBYvXoyEhAS+UdXU1EChUCAqKgp6vR5VVVU4c+YMTCYTVCoVL3Kr1Ypz586hvr4excXF8PPzA0VR+P777+Hj48OXBywtLYVcLofRaERcXBzKy8uxZcsWyOVyPn2oRqPBO++8A5qm4enpiV27dsHPzw9VVVUICQkBy7LIycmBWCyGp6cn/Pz80NjYiJqaGuTn54OiKCiVSphMJhw5cgQajQatra0IDAwERVHQ6/V45ZVXoFQq4efnB6lUCg8PD9TX1/OeTQEBAfw038bVHlUqlfD19UVxcTGMRiMKCgqg0WhgMpng4+MDrVaLY8eOwdPTE1FRURAIBKiurkZmZib0ej0CAwOxZcsWBAcHo7y8HCEhIbzFu7OzE4cOHQJFUWhuboa/vz8oikJDQwPy8vIQHh4ODw8P1NXVob6+ni/N4eXlBZ1OhxMnTqCjowMajaZb5TyKs/z6+PigrKyML3js3A7s6bdBiIycNE1DIpHwZQkaGhrw/fffw2azYf78+aBpGh4eHoiNjeWNGjTn55iQkMCHZkmlUlRVVeH333/HwYMHYTKZ4OXlhYiICBiNRn6DNyQkhDeQCAQCyGQyFBUVwWKxQMzVrayrq8P3338PAJg3b579ZY8IWJZFUVERxo4d6/CD2dPS0oK6ujrMnj2b9wkNCgpCXV0dgoKCYDKZ8Pnnn+Ps2bNYvXo1xGIx3n77bVRWVvLnIAI/efIkmpub8f3334NlWRQXF6OlpQW//vorcnJy0NjYCB8fH5w7dw5lZWUANxoIOLc+cNds49KLMpxNoKmpCXv37kVGRgbKy8vx66+/ws/PDx9++CGamppw8OBBfPLJJzCZTHjttdfQ0dGBDz/8ELW1tcjLy8Orr77qcH6GYUBxe+b79u1Dbm4u3n77bZw9exZ5eXnYu3cv/93Ie7q6uvhZBcuyOHbsGCiKwrvvvovKykrU19dDLpdDr9fj1VdfRXNzM1544QXI5XLU19cDAKqrq1FZWYnMzEwcPnzYYUQ/d+4cGhoacPjwYRw5cgR6vR6dnZ2Ij4/HqlWrYDKZcPjwYXz44YegKAqrV6+GXq/H22+/jYaGBpw6dQoff/xxj1NqcKNoSkoKCgsLBzR6dltzOiMQCDBjxgz897//xYoVK3qsedIbLMvixx9/xMMPP4xVq1bx+5pmsxm//fab8+EOqNVqHDlyBBaLBQKBALNmzcJ///tf3H333Rd1DUOJXq/v06RutVq7md1ZloVMJsOxY8eQm5uL06dPw2KxYM6cOZg+fTpuvvlmNDQ08D8ywzDw8/PDLbfcgvnz5yMvLw8URSEhIQE33HADFixYwE8Lf/vtN5w/fx6FhYXw9fVFWFgYJk6cyG9DicViBAUFYfz48XypisWLF2PhwoXIz89HdnY2HnvsMcydOxfjx49HZWUlKIrCVVddhSuuuAJJSUlobW3F0aNHsXTpUtx2220Ov42Hhwf8/PwwdepU3gvKZrMhMjISixcvxpw5c5Cbm8sfD+77rVmzBpMnT8asWbMgEAgwZ84cXHHFFZg4cSLa2togkUiQkZGBw4cPo7S0FMXFxbjjjjswZ84cXHfddQCA0NBQLF26FAsXLsSZM2ccpuqjRo3CokWLMGvWLJw7dw4URaG4uBi//vorKioq0NLSApZlce211/KOJyaTCVlZWZg/fz6WLl0KPz+/PoVHc074A6H3ljRIUJzRRyqVorm5mX8uLy+v10UzRVGYMWMGKioqcObMGX7Of7lD9snq6+th48LXOjo68Pbbb+O+++7DP/7xD/6e1NfXw8oV5SXrdoKAixaxh6zDBQIBjEYj1q5di2eeeQbLly/vNlKSvynOoGHholjIOUjDUqlUqKurg9lsRltbGz/TIcYtitvjk0qlaG9vh06nQ2dnp91V/b9zOa/PyJ5uT9M9mqZx9913Y/PmzdBz4Wlizi+Z4gxq33//Pa677jo888wzEAqF8PLyQk1NDb8WBjcLJOfr7fPBdQbnzp3D2LFj8dJLLyEgIID/Dcj9oLjpqkAggE6ng1arRUdHB38+VzEk4lQoFJBIJGhoaAC4mzN58mR+utUTIpEIy5cvx5EjR1BdXe388ohEJpP12Vt6enriiSeewJtvvolly5bhvvvug0ajwfXXX48nnngCH374IVQqFWhuW+nvf/87MjMzkZCQwDdkYiQTcvGNCoUCArtqbWKxGEqlEqmpqXjssceQlZUFkUgEpVIJDw8PPPTQQ6itreWPvemmm/DCCy/gjz/+4MsxisViSCQSTJkyBTt27MDy5cshl8uRnJzMW9EF3HaCt7c33nzzTTz77LN466234O/vb/eNgSVLluDhhx9GZmYmpFIp3xYEXFiXXC7nj6W4CJLk5GQ8//zzeOGFF0BzSyyaSyROruuVV17BG2+8AYVCgcjISNTU1OCOO+7AqlWrQHFrRIqieMs/ESNZupHrl8vlCA0Nxfvvv4+VK1fynQ+pu0pxgQZisRhr1qzB6tWr8cEHH/AB+r0xGAPKoDi+9waZouzduxdisRjz58/Hs88+C5Zl0dbWhsOHD+Pmm292fhsPy7JobGzEd999h7/97W/w8fFxPmTI6I9vbUdHB06cOIG0tDQIe4klZDgHd5PJBKlUCqFQCKvVylfODg8PR3Z2Ns6dO4dFixbx+6L2PT3L+TKDM6KQ0U8sFvO9vtVqxX/+8x88++yzfAAzGTXtR14b5/dLRhj7c1AUxe9Vy2QyiEQivtHZj0g1NTW8lVqn0+GRRx7hr49YNoVCIX88zU3tWW5Nan+v7D/bZrM5jNDkb5ZlYTQaIeA8eATcVhvxXpNIJDCbzRCLxQ6fSUZe8rf9/41cyBnZJWC4tbJAIIDFYoFQKORzVGVnZ0MqlWL58uX8CG2PzWZDZmYmpk6dCqVSyd+Lnui3b60roLhprVAoRF1dHf+ch4cHSktL+xxpKIpCQEAAFixYgG+++YZ3fBipeHl5ITU1FVlZWTCbzT1+N5qbBhJDmkAggFgsxsKFC/lA7vj4eFxxxRVQqVT8qGH/fiIumqZ5q7D9tJaMCn//+995IxvFTWHthU6OF4vFEHIeMPbnoLlRi1jOSWMl5yP/9/HxgclkQmJiIu6++26HxkjOS9uFZJH3k+fssf9sIhT76xdwgvTw8OA7DJqm+RkDWQKQ70LuF7km+7/JuWiahpyry2p/rQLOsEfusb+/PwwGA8aNG4dly5Z1u3aWZWE2m5GTk8NvpfUlzAvhUnGSHp6Is7m5mW+w5IdvampyfpsDAoEAsbGxmDhxIn766Sfe42gkQlEUgoKCMGnSJBQWFqKzs7PPdbX9/8m+MAD4+voiMjKSbxyXSlxcXLcGdCn01cAoioKnpydmz56NKVOmDLnPsz19Xedg4O3tjRkzZmDq1Km8Xy3BZrOho6MDZ8+eRWpqKoKDgwd8PS4VJ+xGCtIjEu8PoVCIq6++GhkZGT2OMPaIxWKkpqYiKCgIhw4d6tPLZLihuZw4U6dORX19PUpLS/sUKYG2M5CQUXGg2J/TlZBRjowwf1bsR3PyPa1WKzo7O1FaWoqmpiZMmTKFtxsMlIGfoQ+I6KRSKWxcbCNxA6M5j6G+jEL2SCQSzJo1C62trcjLy3MwjY80SIc0ceJEpKSkoKqqCmVlZUMWauTGtZB23NLSgrKyMlRXVyMlJQUTJkxwMD4NlME5Sx9Q3HrIYDCgq6vLwUdTIBDAZrP16gdpD8VZ8hYvXox9+/ahrKxsxDdykUgEmUyGqVOnYvTo0TCbzUhPT0d7ezufIWGkfwc3/w8b58qn0WjQ3NyM48ePAwBSUlIwdepUyLhMjYPJkInTaDSis7MTJrsMcDRNY86cOTh8+PAFxQk749JDDz2EL7/8EhUVFSO+cVOcOV/Oxa3Onz8fPj4+qK+vx/79+6FWq2EwGGA2m/n9RjfDD2uX/9hgMKCpqQkHDhxAZ2cnAgMDsWDBAkRFRfH2FFdM510qTmIQIhfv4+PjMHLSNI1x48ahsLCw3yKjaRoKhQLPPPMMvvrqK94h+3JAwLkmEqvuokWLIJVKodVqkZ2djZycHGg0Ghi52i89OVi7GXxYzjmDiNHIZe/LyMhAbm4ujEYjfHx8cP311yMxMRFeXl68HcWVuFSc4EYOoVDIZ4B39qwQiURQKBS8N0h/oLmscw899BC+++47VFdX91vcIwFyT2QyGYKDgxEdHY05c+Zg6tSpMBqNaG1tRWFhIc6cOYPq6mqYTCZ+ZLW6a78MCIZzIbRyIZAmkwk6nQ5nz55FTk4OSkpK0NbWBoqiMHv2bMyaNQsREREICAiATCZzuSDtcYhKGWwYhkFmZiYfnkOyzzlHlNA0jfz8fMTFxfV7MU1RFKRSKRITE/H1118jMjLSIUXkYNOfqJRLhYhVIpHAx8cHfn5+CA4ORlhYGAQCAZqbm6FWq9HS0sInViZ7dGRktX9Qf/JUmH1B7gG5L0SMDBem1tjYiKqqKrS0tKCjo4NPmRkVFYX4+HiEhYUhMDAQKpUKYi7owpX3sq+oFJd6CFksFnzyySdoa2tDV1cXKIpCZGQknnjiCYfjrFYrXn31VaxatYrfRO4vLMuiqakJmzdvxp133tljGYjBoD8eQq6ENC4y/aqrq0NbWxsYzquH7JFS3L6jp6cnfx9I4+qpkV0OQiZNtKemSsRIIP7KOp2On64ShxCKohAaGoqAgAAIOfdHV60X+0tfHkIuFaeZC8ju6OiA0WhES0sLRCIRPvnkE+dDsWXLFixatIivm3GxNDU1Ye3atbj77rsRGho66AIdbnH2BmmAxJhktVpRX1+PhoYGWLmsEUI7jxr7eyuRSCC185Ul50MvQkYfz18KPTU9++cozlWPuDsaDAaH/WJiPe3s7ATDhcN5eXkhLCwMvr6+oDgvIOKVNBIZVnGuXbsWXV1dYLh4QbPZjO+++875UBQXFyMjIwO33XYb73p1sXR0dOD111/Hww8/zAfYDhYjVZz9gayxyPQOnAja29vR0tKCxsZG3lBHRiJieCPTeBKjq1AoeNFcKhRFwcylHyHGL51OBxNXVsG+A6AoCr6+vvDx8UFQUBBkTom1ifD6uxwaaQyrONetWwedTgeapnH69GkwDIOvvvqqm3AYhsGLL76I5557ziFS4WLRarV48cUX8cgjjyA8PLzb51wql7M4LwXWbr1GBGu/vh0olF2ibPLv5SyyS6Uvcbr8TtCco7FYLIZWq4VQKOzRgZ2mad4DaCCWV4VCgZdeegk7duxARkaGw9aNm/5DxCLmShJIuATZxEF8oA8S4yvhij85O+S7GQJxgvOjJeFR3t7e3QJyCampqfj8888dHBUuFopzVLj//vvR1NSE7du395pOwk3/IFNIVz3c9IxLxclyFjKBQMCHSSUkJPSagpCsLQY62lHcNsvChQsRGBiIrVu38vlo3Li5XHCpOMFNV2m7uMCxY8eira3N+TCAO/aaa65Bdnb2oAk0LS0N06ZNw1dffYWysrIR7TDvxo09LhcnmbqQNYufnx+ysrKcD+MJDw/Hjh07Bm0qKpFIkJSUhGXLluH3339Henp6ryO3GzcjiSERJ81FqhOPlszMTOfDeGQyGZYsWYLGxsYLxkD2F5FIBD8/P9x1111Qq9XYsWMHv4Hvxs1IZUjESXGRKcQU39LS0mvANEVRGDduHPbu3TuoWQ8EAgEUXFLrtLQ0/O9//8P58+fdo6ibEcuQiVPE1UkBZ/hpb293PpSH5IKxz9c6GJB1aFhYGP71r38hOzsb3333HV9+0I2bkcSQilOv1/PT3JaWFudDeQQCARYtWsSXIxhshEIhVCoVlixZgilTpuCzzz5DdnY2X9PDjZuRwJCIk+aymZHof5qm+Ry2veHn54eamho+EfVgQ4xUSUlJeOCBB9Da2orPP/8c5eXlINW/3LgZToZMnDRNQ6/XQ6PRICoqCiUlJc6HOiCRSLBgwQK+RLuroGkaKpUKCxcuxLJly3DixAl89dVXaGtrg8lkcovUzbDhcnGCm6YSZ2oizry8vAuuJ0kmb7Va7fzSoENzBZXuuOMOXHnlldi0aRN27tyJ1tZWWNy5ftwMA0MmTpvNBh8fH3R1dSE6OhqNjY3dCr46o1AoMGHCBKSnpw+ZwUYoFCI6OhqPP/44xo4di7Vr12LXrl1ob2/nrc1u3AwFLhUnxflNCgQCMAwDHx8fdHR0IC4uDvHx8aipqXF+SzdGjx7NR60PJWKxGPHx8XjuueeQmpqKoqIi7NmzBy0tLe40IW6GBJeKk0BGTpVKhfb2dqhUKsTFxaGqqsr50G54eHhg1KhROHLkyLAIQiQSITIyEtOmTcOECRPw+eef49VXX0VbW5vbFdCNSxlScXp5eaGlpQUUV1CGFDrtC4qiMGbMGDQ3N/cazeJqKM55PyAgAM888wzuv/9+ZGRk4KmnnsKpU6cGzdXQjRt7XC5O0rBtNhuUSiUvzra2tj73Ou3x8PBAamoqDhw4MCyjJ+ysziKRCP7+/rjqqqvw3//+FwCwbt06fPDBBygvL+erVblxM1BcLk7YjZxKpZL3aW1vb4fNZuvXqEPTNJKTk9HQ0DDka8+eICL19PTEhAkTcP/992PRokXIz8/HunXrsG3bNjQ3N8NkMv0phMr2kNfVYDBAr9df0sNgMPDpPkluXjfdcXmakq+//hqBgYFgGAZeXl548803sWXLFvzrX//CvHnzEBsbizFjxvDGo96w2WwoLi5GXl4ebr311iGPmr9QmhKGYfjGe/78eeTk5IBhGPj7+2PMmDEICgqChCv5NxIggrPPK2QymaBWq6HRaBxC9li7NCX2f18KFJd/yP73I7MS0gYorkSkl5cXnzKSzMD+bKlM+kpT4lJxWiwWfPXVVwgNDYVer0d4eDjeffddvPfee/jiiy9w9dVXo7i4GMuWLbugOAFAp9Nh3bp1+Nvf/gZfX1/nl13KhcRpD0lYbDabUVtby28FhYWFITw8HGFhYZDL5XwtyAtBsujZN+D+wnIZ+cjIp1aroecSeOv1euh0Oj5zn1QqhUqlgre3N0RORWEpp8wFF3sdztgLvCexazQaqNVq3s5AcRXSPTw8IOBy9qpUKii4xGNCu1LylxPDLs7IyEi0trYiOTkZH330EV566SUcO3YMsbGxOHLkiEMl5L6w2Wyor6/H7t27cc8990A4yIVj+uJixGmPjcubajabodFokJWVhdzcXERFRWHUqFHw8/ODj48PpFJprykcLRYLDh06hNTUVPj4+PR4DIHh8tuazWa+9GBNTQ06OjogkUgQERHhMBo5j1jk7/78Hq6E7CnbT3nJcyyXLpM4qIjFYkRHR0PKlbUn9Uv6uk8jhb7E6fKM7/n5+fD19YVarUZERASys7MxY8YMiMViqNVqVFZWYvr06f1qDDQXF5qXlwd/f394e3s7H+IyLjXjO1mfSqVSeHh4IDY2FlOmTEFsbCwkEgmOHDmCb7/9FtXV1bwoiEcSa5e9vaKiAu+99x7GjBnDjx4EMirqdDo0NTXh6NGjaGhoQEBAAG/ACgsLQ3BwMDw9PfmEWqQB208XR4IwYddR2F8fSQItEokgkUjg6+uL0NBQBAUF8bOQsrIyZGdnw2az8QnKyXcaCd/Lmb4yvg+JOP38/NDc3IzY2FicOnUKaWlpCAgIQFFRESwWC1+tqT83TyAQIC4uDuvWrUNaWtqQjZ6XKk57KG7dJJFIIJfL4enpiVGjRmHWrFl8FeqSkhLs3r0bu3btQmtrK98hKZVKZGVl4dNPP0VISAiCg4NB0zTMZjPKysqQlZUFmUwGiUSC6OhohIaGQiqV8kHupIGTe0yEP1gM5vn6cy578RLBCoVC+Pr6Ijw8HFKuQFRmZibUajW/DLqUpYErGTZxsiyL3NxcBAYGoq6uDsnJyTh06BDS0tKgUqmQlZWF8ePHo6ysDHFxcf26aeRHMZvN0Gq1g1Leuz8MhjidoexqpHh4eMDHxweRkZGYMGECpk6dCn9/f+h0OpSUlCA9PR15eXmorKzEoUOH0NzcDIqiYDAY4OnpidjYWCiVSj7LIZkS0jTtYPShKApGoxGNjY0XrC2j0+n4ERUAjEYjGC6zuj0WiwVVVVVQKpU9rvv0dqGC9pARH5xowLWZ5uZmsCwLsVjc5/U5Qz5DKBRCLBZDLpfziaibmppQUFDAl+twvpbhoi9xDskVCgQCmM1mCIVC6PV63hKo0+mQkpKCoqKiizKni0QizJ49Gzt37kRXV5fzy5c1QqEQCoUCfn5+iIuLw8SJEzF79mx4enqio6MDcrkcoaGhAIDAwEBERETAx8enW0NuaWnB1q1bYTQa0dTUhJ07d4LhkkRnZGTwgQfEytyTt9O7777LR+YwDIMdO3bgzJkzDtsfVqsV58+fR0ZGhoPAyDlZlsV7772HpqambtsmJpMJn376KR9KSMwfXV1d+PLLL3nhMtw62v79PT3XE2KxGF5eXggJCUFycjIKCwtRW1sL2xD5ag+EIROnyWSCUChEZ2cnL06tVguJRNLnze0Jikt7smzZMuzevfui33+5UVxcDJZl8cILL2DdunV45pln8MQTTyAqKqrXab1KpcL58+dRXFyM119/HXFxcWBZFnV1dSgqKoJMJoPJZEJDQwN2796No0ePdkvZUlNTA6PRiPb2dpSVlaGpqQklJSX47bffUFFRAavVirq6Ohw4cABKpZJ3wGhqasKePXtw8OBB3iBVUFCAXbt2oaWlxUHY9fX1OHPmDHbv3s1nZdRqtWC4JZHVakV2djby8vKwa9cutLW1wWKxoLa2Fjt37kR+fj6KioocrrsnBAIBv+ZvaWm5LMpGulScpCcXCoUwm838fJ+MdqTcvKenJ2/e7y9CoRDx8fFobGxERUXFRb33cmPChAm4++67MXPmTNhsNowZM4avKtYbUqkU9913H5555hlMmjQJsbGx0Ol0+OSTTxAaGors7Gykp6fz09Fz587h119/dTgHy7KoqqrC22+/DZlMBqvVitzcXNA0jQ8//BBarRa1tbUYPXo0KioqsG/fPthsNqxevZo33jAMA7PZjLNnz8JiseDLL790yG6h1WpRWFgIiqKwceNGXtypqan48ssvoVar8fHHH+PkyZMwmUz45ptv0NbWho8//hgSiQS//fYbtm3b5nDdfUF8pe3rw4xUXCpO2C3uiTCDgoLQ3t4Oitu30mq1GD16NLKzsy+6JxOJRLj33nvx7bff8lOgPxv2985iscBisUDcj0JPLMtCq9VCpVLBZDKBoijU19fD29sb8+fPx8KFC7F7924AwP79+3krpz06nQ4PP/wwHnroIYSEhEAkEmHBggWYPXs2goODodPpYLPZsG/fPpSXlyMrK4uvJDd//nzMnTuXtwzfeOONmDt3LoxGo0PiNqVSiaVLl2Lu3LmoqqoCy7JoaGjAnj17UFlZidLSUlAUhcWLF2PevHno7OxERUUFlEol5s2bhxtuuOGi2w1ZAoz0NuNyccJuOwEAL06aphEVFYXGxkaMGzcOJ0+evOh1AMWVXpgyZQp279590e+/3BBzNUvsG3dvGAwGvPzyy3jnnXeQn5+PwsJCvjM0Go3QaDSQSqV45ZVX8PDDD2P58uXd1p1yuRxPPvkkfvjhB+j1egeLL5kBvfPOO3j00Udxxx13wGq1wtPTE52dnXxHwrIsb4CxXxMTaM7iStBoNMjNzcU///lPpKWlwWazdXu/p6cntFoturq6Lqm2DllH96eTG05cKk5yMynOKklRFAICAtDS0uIgTk9PT9A0fUlTU5qmMW/ePJSVlUGtVl/0D3U5IRaLkZiYiPT09AtOyXbu3IknnngCgYGBeOGFF7Bt2zZ+6+bmm2/G2rVr8eCDD+KOO+7Afffdhx07dkClUjmcQ6lU4qqrrkJaWho2btzIbwORf728vLBo0SLce++9+P3336FSqSCXy3HDDTdgyZIluO2222A0GqFQKPitDmJNBrc0kUgkvPOFp6cnFAoF9Ho9br/9drS0tEDI1RYV2u1vhoSEYNasWbj77ruxf/9+eHh4OFx3X1gsFmRmZiIhIWHEi9OlHkIMw2DTpk2YPn069u/fj+XLl2P//v1IT0/HmjVr0NjYiMOHD+PWW2/Fli1bsHTp0n7vdzrT3t6Od999F//85z/5Go6DyaV6CA02DMNAq9Xi+PHjSElJ6eaQQLDaufyRDouiKN5jiawJWZaF0Wjkp3pkhgOuIQu4QHmK84l1PifDMDCZTA7vt1qtMJlMoGkaUqkUNpvNwZJLzsFy1mIyElutVgiFQphMJthsNl6QZPQk72cYBqdPn4bZbMbvv/+OpUuXYuzYsfx19wTDMNDr9cjJycG0adOgUqn4axpO+vIQcunV2Y+c5Ef39/dHY2MjKK4oKskPlJycjBMnTlzy1FSlUmHRokXYtm3bBUeVyxmapuHh4YF58+bBZDIhPT0dzc3N3b6zkHM8oJwcxkUiERQKBT8CkpGJrA3tEXFl+ci5ejqnSCTq9n6hUAi5XM5X0hZyfq9kCktEQc5DpqwikQgUl1tYLpdDIpHw12z/foFAwDth3H777UhMTHS4bnssFgs6Oztx5MgRdHV14corrxwxwrwQLr9C0lOSH87Pzw+NjY0A9+MQy11SUhIOHz7cbd3TXyiKQmpqKliWRXV19SWf53KA5ryGoqOjceWVV4JlWd5LqL29nV9TDSekY75U+no/zSVjmzx5MhISEng3PXDtjfgx5+bmoqioCF1dXbj66qsRFxcHqVR6WQgTrhan/cgp5MzqUqmUL0MPrmcDF1CtUqkG1KjEYjFuuOEGbNmyBR0dHQM610iHjDpisRgxMTGYMGECpkyZgq6uLpSVlaG4uBjFxcXQarUwmUywcg4BfxbIqE1xJewNBgMqKytx9uxZlJSUoKGhAWPGjMHkyZORmJgIiUQCIWf3uFxwqTjBNSIycjIMA6FQCKVSyU/DiEWPoiikpKRAo9EMSFReXl546KGHsGnTJmi1WueX/3TYi9TDwwPJycmYOHEixo4di/j4eJSXlyMvLw8lJSWoqqpCVVUV1Go1TCYTTCaTg2fOSIXlYk/NZjNMJhO0Wi3q6upQUVHBf7+zZ89CpVJh7NixmDhxIsaNGwcvL6/LUpSEIREnuPULEaeXlxeMRiMobq+zq6sLLMsiNjYWf/zxx4D2nyiKgp+fH+bPn48jR45083r5syO08yv19vbG1KlTMXPmTIwbNw4xMTEIDQ1Fa2srMjIykJGRgcLCQtTV1aG5uRlNTU1obW2FRqOB0WiEmQt1M5vNsHDueDbOT3cggiZGHZtddgX7h16vR0dHB5qbm9Hc3IyWlhaUlpby11xSUsL7EycmJmLGjBmYOXMmQkJC+PU0GVUvZ1xqrQWAzZs3Y8aMGTh79iymTp0KgUCAJ598Em+88QYCAgLwyy+/IC4uDikpKTCbzXjiiSfw1ltvQaFQOJ/qojAYDPjhhx+QlJSE1NTUAZvNR4q1dqCQUYgIjOF8VFkuTlKr1fJlMMjshuWc0D09PeHp6QkPDw8oFAoIe3EdvBB6vR5GoxFdXV3QaDS8xxiZZSmVSoSGhiIkJIQ3FhFjkP3/L5e1Y1/0Za11uTi3bNmC6dOno6ysDOPGjYNUKsUTTzyBF198EZGRkThz5gwaGhpwzTXXgKZpfP7551i6dCm8vLwG3PN1dXVh06ZNmD9/PhISEi65MeFPJM4LQcRLrOakeZCRjjwYzhn+YiHiIgIjFmD718lUnQjzz0xf4nR510N6N7JfRXPhXmRaGxkZybttAcC0adNQXl5+yVsq9iiVStxxxx3Yt28fmpqaBuWcf3YouzA2iUQCqVTKb214enrC29sbvr6+8Pf3R2Bg4EU/AgIC+OwPXl5eUCgU/GdIpVJIJBKIxWJ+lPwrM6TiZLj4QoqLQ6QoCt7e3tBoNLw4Q0ND8cMPPzg4Rw8EX19fLF68GD/++KODldiNm5HOkIiTZVkIOc8PmqYRGBjIG2rINIdAelONRmN3lkuHoiiEhYXh6quvxubNm/lIGDduRjouFyfFZXcXCAQwGAygaRphYWHQ2+WrdV5zXH/99Xx+28GApmnEx8djwYIFWLt27UWHp7lxMxy4XJw054cpFAphMBggEAgQGhrqkByaTHkJEREROHHiRL+iL/qLQCBAQkICbrzxRnzwwQd8YLAbNyOVIROnQCCAXq8Hzbletba28sf4+/ujoaGBF4u3tzcqKioGPQWJQCBATEwMbrvtNrzxxht/uT1QN5cXQyZOIZc/iKZphIaG8uXkKYpCREQEzp8/z4+eNE1j/vz5aGpqGvTRTSgUIjw8HPfffz9Wr1496B2AGzeDxZCJ037k9PHxQVNTE2AnztLSUoepbUpKCoqLiwfNamuPUCiEv78/Hn/8cbzxxhv9Lqjkxs1QMmTiJCMngSRzApcdob6+3mGU9Pb25v1AXYFQKERwcDAefPBBbNiwAWVlZYNmgHLjZjAYUnGSMvMURTkIVchFyNuLUyQSIS0tDWVlZYM+tSUIBAIEBQXh73//O37//XccP378Tx1q5ubyYkjFSQRJPD/sReecaoKiKIwePRqVlZUuNdwIBAL4+flh+fLlqKmpwc6dO2EwGFzWIbhx01+GRJwkzQQRJ81F89uvJz09PbsJwtPTEzqdzmEK7AooioKnpycWL14MLy8vbN26FWq12u3u52ZYcbk4BVwOGvuRk6ZpyOVyfpoLLkNCc3Ozw7pPLBZj4sSJyM3NHZL1oFwux/Tp07FgwQKsWbMGlZWV3dJ/uHEzVLhcnGTkFAqFfGgSRVGQSCQOjgjBwcEoLi7uJsK4uDi0tLS4dGprj0QiQWhoKJ599ln8/PPPSE9P5zOQu3EzlLhcnGTkpCgKMpkMNpsNFBez197ezh8XGhqKs2fPdptKenh4QCqV8lsvQ4FAIICPjw8eeOAByGQyfPTRR2hvb+92bW7cuBKXi5OMnGQqS/4fEBDg4Nzu5+eH2trabiOUSCTC+PHjcfDgwSG1pJJ16Pjx43Hbbbehvr4eR44cgVardYvUzZAwJOJkuFAxuVwOq9UKmqYRHh7ebTtFpVJ1MwoBQEhICGw227DkBBJxtTUSEhIgEomwceNGnDt3ji+H58aNq3C5OAUCQY8jZ3x8fDdjS1BQkMPfBA8PDyQkJCA7O7tH8boaisulmpaWhttvvx2ZmZn46quv+GI4w3FNgwHLpSnp7WHjsh5YuVJ7VquVL7MwGA/785LPstllWXB+sFwqlb8KLk9TkpGRgdbWVsydOxc///wzFi5cCJVKBY1Ggx07dmD58uX8sTt37sScOXPg4eHB74US6uvrsX79ejz//PMDzgd0KdinKbFYLHz9y4iICMydOxe+vr4jJnqf/KT2P63zz8xwGdB1Oh0MBoPDLIAca+SKDrFcLliGy+4+UJGQeyS0q0gt5BKT9ZTcGlzVNJlMxlfvtr/P5P/O997575FIX2lKXC7O7Oxs1NfX4+qrr8bu3bsxY8YM+Pv7Q6/X46233sJ//vMf/thTp05BJpNh9OjRDjGe4BrKrl27MHnyZERERDi8NhT0lEPIytWXXL9+PZKSknDFFVcgKCgIdA+5b8go1dNrl0JPPxvLlVbQ6XS8iGw2G1pbW9HW1ga9Xs+LUCAQQKVSwdfXt8cM6JRdrh/yf4rL7zMY1w+ugyBCJ/8no6Q9FFc0qbOzE2q1GhqNhr8OoVDIpz6RcmURaZqGQqGAQqHo9r3I+UYKwyrOM2fOoLKyEtdddx0OHTqElJQUvnzcU089hbVr1/LHlpeXIz09HcuWLetxdCwtLcWePXvwyCOPDPkN7kmcsBNdW1sbNm3aBJvNhjvvvBOBgYEO38FsNuPUqVNITeyIckgAAJ+wSURBVE2F5wBK15PRi6x5SdpIYk0ODAxEdHQ0X5SI4pJlCbmSCEN931wNy7IO02JwuZDr6upQV1cHhtspiIyMRExMDARcMmr7gkrDSV/i7N6tDDLOBiF7S6dzuJa/vz/y8vJ6tcoGBQVBp9MNWgqTwYA0fj8/Pzz11FN44IEHUFxcjJUrV+L333+HRqOBzWaDSCSCWq3GSy+91G/DlsVigV6vR2dnJ06ePIlvvvkG3377LTIzM6HRaGAwGODl5YXp06fjxhtvxE033YQZM2YgNDQUcrmcr1fyZ06YRXEJyyUSCf+dvby8kJycjPnz5+Pqq6/G/PnzERUVBZPJBL1ej+rqavz222/45ptvsGfPHrS0tECv1/OzjZGCy0fOwsJCFBYWYtmyZcjNzYW3tzeioqKg0+mwYsUKfP/99/yxDMPg8ccfx6uvvtrj6GKz2VBSUoK2tjbMnDnT+WWX0tvI6QzDGVLMZjOqq6tx9OhRNDQ04LrrroO3tzceeughJCYm4rXXXnPwJyYjotlsRmFhIZqbm+Ht7Y2goCAIBAKHwkBwWmf9GUU32JBm7vyv1WrliwB3dHSgrq4OEomEn+GQgk+uYlhHTqFQCBvneCCVSnl/WvK3/fqC5mp29tZfkCiSb7/9dlBTmAwmNFcVSy6XIz4+Hn/729+wcuVKGAwG/PzzzzCbzdi9ezdWrVqF9vZ2dHZ24tixYzh8+DDOnTuH2tpaREVFYdasWRg7diwCAwPh7+/P16gU2FUM+zNOU10F6cTIfSP3USwW8+k+Y2JiMGPGDIwfPx5qtRplZWU4ceIEDh48iMbGxiHfPnO5OMlWCvk/mZJSnJeQ89Q2Ojq6zxugUChw6623oqyszPmlEQXFGSukUik8PDzQ2dmJU6dOwWw2w8vLCxkZGXj22WdRXFyMuLg4jBkzBhEREXxJAWLFJEJ0i9A1OAuWTJEDAwMRHh6O5ORkpKSkoKWlBXl5ecjIyEBpaSmMRqPDEs0VDKk4aZpGZ2cnYDdyOmchiI6O7tOXVSQSYdy4cfjll19cfnMGA5Zlce7cOeTm5iIqKgo33XQTnn76aXz44Yd44YUXEB8fz68LiRjdQhxeKKf6oxKJBGFhYYiNjUVsbCwAIDMzEwUFBWhoaIBlALV9+mJIxSkQCBzqYsjlcofEXuAyIPRlFKI4p/nAwECcP3/e+eURhcViQVNTE4xGI6ZNm4bHH38cd955JxYsWICkpCT4+vpCeJlWwPqrYS9Uf39/JCcnIzg4GA0NDcjIyEBtbW03p5qBMuTitB85VSpVt5HT29sbOTk5ffZGIpEIy5Ytw8GDB3sdYYcThmGg0WiQlZWF1tZWxMXFITU1FUqlEnK5HCKuUnNfWCyWEVEEdyD0ZjsYLMge6WBwMecidgWpVIro6GjEx8fDaDTi+PHj6OzsHLTfrO8WMggIuKgUlmW7iTM4ONghbAxcgHVZWVmvIye4myORSNDZ2Yna2lrnl4cVG7fpf+zYMb7kHtlToygKVquVN4oxDMOvXch9AQCtVouDBw9izZo1fYbKMQwDC1df02AwdOu5tVptr/fRbDY7xNP2BaltczHLCJ1O55BR0R6j0djj9yLfwz4I32g09thJES+tnrbVWJZFR0dHr2IzGAzdDIo6nQ5NTU3dPudCCAQCSKVS+Pn5YfTo0Th9+jRqa2t7ve8Xg8vFCTuzv/20lubKMjgn8BIKhUhMTOx285wRiURYsWIFDhw40OuPMNQwDIOKigq0tLRgypQpkEqlEDiZ4YuLi7FlyxYAgMlkwvPPPw+9Xo/Nmzfzz33wwQfIysrCjBkzQFEUvzVjtatOzbIsdDodtm/fDqPRiO+//x65ubkOFsX169d3u4/kXOXl5diyZQv/t/1Mxd6HlmVZaDQafPnll9Dr9Q7XAO46yChPxGu1WvHLL7+AtfP8sXB1OBmGwaFDh3Dw4EHev5Zgs9nw008/IS8vDyznXFBVVYUffvgBBoOB/2yGYVBfX4/vvvuOn4E4X8dbb70FUy/Fgbdv347MzExYLBbYbDb+9Y8//pjPusFwW2L234thGP5e2b8PdgPG2LFjodfrUVRUdNFCd8bl4iQ3j+EcEexHTh8fn27TWnBpMe17z56gaRpeXl5oaWlxSX7bS6G+vh5qtRohISEQ9VK8tbOzE9XV1TAajdBqtSgtLYXVakVMTAwAoLa2FiKRCB4eHpg8eTIYhkF6ejp++OEH7Ny5k4/kYVkW6enp2LZtG3788Ue0t7ejsLAQX3zxBfLz82Gz2ZCYmOhwDVarFaWlpfj8889x+vRptLW1obKyEl988QV+/vlnfhTav38//vjjD2zZsoUfZVpbW/HDDz9g165dDqOe0WjEtm3bsGnTJj4Z28mTJ3Hu3DmcP38eLMuiq6sL27Ztw+bNm9HY2AiNRoOysjJs2LAB2dnZfOMnHYFer4darca+ffug0+nQ3NyMTZs24dChQzCZTGhpacFvv/0GcKMgw/kJ//DDD9i8eTMaGhrQ0NCAPXv24KuvvoLRKbt/Z2cnzp49iw0bNiA/Px9Wzg1TpVJh9+7d0Gg0KC4uxvHjx7Fx40bk5OTAarWis7MTW7Zswd69e5Gent5t6UVxFvqgoCBYLBZUVlYOqF26XJwUt7/E9jCt9fX1RV1dXbcvkJiYCE0/ys8LhULceuut+PXXXy94rKthWRbnz59HXFxct9HSHpZlUVhYiE8//RTr1q1DR0cHbDYb9u3bx/f4U6ZMgZ+fH3799Veo1WqsX78eoaGhKCkpQXp6On+e8PBwvtQ6RVGorq7G5MmT8cknn8BiseCPP/5wEBKpVzp27Fg0NDTwHjPjxo0Dy7L4+eefAQCffvop73GzY8cOWK1WnD17FjExMSguLna4hqqqKnR2dmLKlCm8OxxN07j++uuRkZGBhoYGvPTSS5DL5ZgyZQpoLr63oqICY8eOxcaNGx2m1yzLorGxER988AFCQkLAsiyys7MxceJE/PLLLzh//jwMBgPGjx+PmJgYvPzyy9Dr9VizZg3EYjGmT58OAKirq4O3tzcYhsHu3bsdRmgixtGjR/PFrUwmE6ZPnw6xWIwdO3YgJycHu3fv5u+nXq/Hiy++iNDQUFgsFnz//fc9Ts3Bff/o6OjLT5wsNy2huPJ/VVVVzm+BUqlERUXFBeftNFfaQaPRoL29fUA3YjAwmUw9jpbORERE4Prrr8d1110HmUwGcA2mvb0dJSUlKCgoQGNjI6qqqmCxWJCSkoKJEyciOTkZjY2NALdEIHUyk5KSIBKJMHv2bEycOJF37nCeejU0NMDHxweTJk3CFVdcAYqiUFZWhqNHj6KqqgoFBQUAAB8fH8yYMQOTJk1CSUkJrFYrxo0bh4kTJ2LUqFEOWSl8fHxQWlqKP/74gx+hsrOzcfToUdTU1ODs2bM4c+YMpk6dirFjx/IeT2lpaRg7dizi4+MdxMkwDD755BPMnDkTo0aNgkAgwIwZMzBu3DgkJCSgq6sLLS0tOHToELKzs9HQ0ICOjg5kZmZi/vz5vO92SEgI/x1KS0v50Rlcpz5t2jSMGzeO9/MuKSlxuA8sy/IOCX5+fjCbzTh//jzGjx+PadOmwdfXt8/2RnPV9QbCkInTXpBkOiAUCnvMLODh4YGSkpJuBo6eEAgEWLx4MbZt29btPCMRmst4Hx8fj5iYGMjlcoC7T56enggICMCiRYtw11134e9//zsfQkXT3R0RKK7OKVlXirhQK3IseRC8vLyg0Wig0+lQV1cHnU6H9evX4/bbb0daWho/+xCLxaCcSjP25jivUCjwr3/9C0uWLMGGDRtgMBiQn5+PFStWIDIyEgIu+qWtrQ0mzmFfwDniO38GuN/z3nvvxS+//MInGidLBNLgDxw4gDlz5mDRokX8uQICAtDQ0MAbr0jQgfP5yWfYfx+dTodNmzbhjjvuwNSpU/m2an8OoVAIPz8/vtN0tpX0xGUjTpZlQdM0VCoVLzqKohAYGNht1JPL5airq7vguhPcOaKjo2G1Wvu00A0FSqWy2zrEGU9PT94/VyAQID4+HiKRCFFRUZBKpXjooYfwwgsv4Mknn0R+fj5EIhECAwMhEAjg7e0NPz8//lxyuRwqlQqPPfYYlEol748cGRkJmss2QaaaABAQEIDU1FQ8+uijyMjIQHx8PFauXIkXXngBp0+fRnR0NMA5gtA0DalUipCQEMhkMv4aVCoVfw0sy6KiogKPPvooXnvtNSxbtox/z1NPPcW7xr3xxht455138MADD6CwsBAqlQo+Pj4QCAQO0TukPaSkpGDVqlX4/PPPIRaL4e/vD5ozIHp6euKKK67AZ599hi1btiAmJgaenp54/fXX8dprr+GBBx7A2bNnERUVBZoLtggODnYQqb+/P7y8vCDg3EG9vLxwzz334IUXXkBBQQGioqLg6+sLLy8vUFy5ELFYjJdffhmff/45fv31V3h7e/e5fLFyGT8Ggssd39VqNXbs2IFbb70VLMti06ZNuO222+Dj4wOz2YyVK1fisccew7hx4xx65Q8++AA33ngjIiMjHc7XG42NjVi/fj2effZZSCQS55cHTH8c381mM3bt2oU5c+Y4iMIecrvJd2W5bITEYMZyMZjgxEsgHZz9e8n7yTnIa+RcL7/8Mp544gkolUr+eIaLlySdJnmONCTaLorIuWn0dA3O10tx1mXSGZPj+vudnD+TYH8suPNRdnGmrF0sqFAo5D/f+fxw+g3I/8n7yX2wv5/k/hYUFKClpQUnTpxATEwMli1b1uPvbLPZcOTIESxYsICPMe2NYXV8J42AfHEiSoKvr2+3OingjEL9Da0CgMDAQMTExAzqJvDFIhKJMH/+fOzbtw+mXsKPyP2w/xt20y+Ks/iRaZ/98c7vJc+RBup8rieeeIKfNhNoboomsHOeJ1M8e4HC7vP6ugbn60UP00bnYy50vp4ezq+R72D/moDz4qHspsvO53d+jvzf+T44HwNuRhEfH48VK1ZgyZIl3YTJchkjDhw4gFmzZg14kHC5OMkXJT2Zj48PP/WjKAoeHh49Wmzj4uIuSmgURWHBggV47733+jUddgXk+1x33XUoKytDY2PjBY1arsTT07NbA3Jz6ZApcmBgYDfh2biQs7y8PFx11VXw9vbu1ilcLC4XJ+mBehs5aZrutuYEt367WKdiHx8fzJ07l987HA4ozmd40qRJEIvFOHPmDBobGy/qewwWA20cbhyh7Bziyb0lVvbMzEyYTCbMnDkTnp6e/Mg9EAZ+hgtApgz2I6e9QYi85oxCoUB9fX03D5e+oGkaU6dOxddff91v1zRXQHHR+REREfy+W0lJCUpKShw8TtxcnjCcp1BVVRWKioqg1Woxe/ZsxMTE8JbuwcDl4iTTWjJyenh4OAjOy8urxy0TiUQCnU7nkNu2P3h6emL58uU4efLksE1vCQLO7zI2Nhbjx49HWFgY7zlTU1PjFuplBBFkc3MzysrKUFxcDA8PD0ycOBFJSUmQSCSDvoRwuTjJtJaMjjRN887uFBeZotFouo2eAoEAUVFRaG1tdXj+QlAUhZiYGGRlZaGlpaXbeYcDItKAgABMmTIFycnJUCqVOHPmDCoqKvg9R+J76mb4YTlfXaPRiIaGBtTW1iInJwcmkwmjRo3is0DaBzUMNkMiTpozz5O/7SNRfHx80NbW1mOjjI+PR1tb20ULTCaT4f7778euXbsueuR1JTRNQywWQy6XIzQ0FLNnz0ZiYiJCQkJ417za2lqo1WperMTZ243rYLntIOLAoFar0dzcjKysLOTk5EClUiEqKgqzZ89GUlIS5HK5y3MLYajEaT9yUhTVzfndarX2OMqFhIRccp1MlUqF4OBgFBYWDptxqC9oLopBoVBAqVRi+vTpuOqqqxAREQEPDw9UVVXh0KFDyMrKglarhZELnSKRHM6ueW76B8MwsHJRN0SMer0eeXl52L9/P06fPs0HVM+ePRvz5s2Dn58fX1DL3hjkalwuTvs1J5xGTiJOsViMqqqqbqOnXC6HRqO5KKMQQSgUYvbs2Th8+DDUavWIbsgUZ0CSSqVQKpXw9fXFxIkTsWjRIkyfPh0CgQAWiwU1NTXIyMhARkYGzp8/D7PZDBOXsY+I1i3c/1+A9iIkroP19fVIT0/HsWPHcPbsWeh0OlitVqSkpOCGG27A3LlzERgYCG9vbz59zGBYXi8Fl38qmdbaj5z201pfX1/I5fIePfhlMtklixOcsemGG27Anj17ht04dLGIuJQYHh4eCAoKQkhICMaOHYu5c+dizpw5iIqKQmdnJ9rb29HY2Ihz584hLy8Pubm5KC0thVqt5kXrLFz7B8PFW450WM6Dx/n67QVoNpuh1+tRW1uLM2fOIDMzEzk5OaioqEBbWxva29vh4eGBWbNm4eqrr0ZaWhoiIyMRHh4OX19fXoxDNTJeCJe779lsNuzYsQPTpk1DcHAwOjs78Z///Afvv/8+wO0TrV69GnK5HM888wzvZ0n49ttvkZKSgpSUFIfn+4vJZMKvv/6K0NBQTJky5ZLXCf1x3xsuGC4jApl56HQ6tLa2OnRI9tNhglAohJeXFxQKBeRyea+N0vl5578vFeem5/w3wWazoaurC1qttpvXGM1lzSP/F4lEUKlUUKlU/BRUJBIN6XT0YujLfc/l4mRZFtu3b8eUKVMQGhqKrq4uPPbYY/jiiy/46e6bb74JjUaDf//73908L06ePImuri5cffXVDs9fDO3t7fj2229xyy23wNfX95J+pJEszgtBDB5Wq5UXMMtZI0ntEXuLOfmXLElozqWN/G1//y62+di/l1wLmYaTkdH5WCFXHpI495NpJrk24sp3OTKs4gSAX375BampqYiIiIBWq8WqVavwzjvvQCKRgGEYvP3227BYLHj66ae7ibOurg4HDx7EHXfccclzf5ZlUVRUhAMHDuD+++/vNjr3h8tZnJcKY1d6z/nfgUJETgRm3wlcSud5udKXOC+ttV8kAoGAn2LRNA1/f3+HKHKKoqBQKOze8f+jUCjAMEyvUef9gaIoxMfHIzExEceOHRuUxvVXgIxKZP0rlUohl8v5Cl4Deci58hJSqZSPWR2pU8/hYkjEKRQKeS8gmis5by82mivZ1hNkLTTQ/UqRSIS0tDTk5+f3mLfIjZuRxogRp0ql6tEBXiQSwcvLi0/PMRAUXCmHV199dVh9b9246Q9DIk6yTwduiuk8rSVT3fLy8m57nRRFITQ0dFBqo9A0DT8/Pzz44IPYtGnTiHROcOOGMCTivNDISdYxZWVlDtY6QkhICOrq6np87WIRCoWIiopCdHQ0jh8/3m2kduNmpDAk4hQIBA7itB85KYri87n0liGciHcgRiF7xGIxrrjiCuTm5qKoqMj5ZTduRgRDIk77kZOiKMhkMofNZJVKBZPJBJ1O1+NIJpPJoFKpBm2dSHEVzu6++27s3LkTDQ0Nzod0w76DceNmMCB+vb1t7Q3JPufp06dRU1ODG264AQCg1+vxyy+/4LbbbgPL5Tltbm5GdnY2nn766W55b1iWxbFjxyCVSjF58mSH1waCzWZDU1MTvv/+e/z973+Hh4dHr6b806dPIzs7G6NHj3Z+yY2bS6K1tRWdnZ24+eab+fzF9gyJOPPy8lBSUoKlS5cCnDi/+uor3HfffWBZFuXl5Th+/Di0Wi3uvvvubuIEgHPnzuH48eO45557nF8aEDabDYWFhTh69CjuueceSKXSHgVq5MonEMOWGzcDRSAQ8Hu+PbW5IREnyfp9xx13AJw4P/vsMzz11FMA5163adMmhIaGYtGiRT2Ks729HR9//DGee+45PnnyYGG1WnH8+HGUlpZi+fLlI8r52c1flyFZc/a0XrMvN69UKqFWq6FSqXpNDC2RSBAVFTVo6057hEIhZsyYgeDgYOzcuRNms7nHa3DjZigZEnGKRKJuIVv2dRWFXE5TlUrV63aKRCJBdHS0Qx3LwUQoFOKqq64Cy7LYt28fLD2UjnPjZigZEnEKhcJu4iQhTASxWAwfHx+cPXu2R3EKuVoVZ86ccX5p0BCLxbj++uuh0Whw6NAht0DdDCvDIk6KouDn5+cwRZVIJPD19UVxcXGvnjteXl7IyclxqWCkUikWL16M+vp6HDt2zC1QN8PGkInT3spJc0Vp7Ke2EokEMpkMlF1KE2cUCgUkEsklZ0boL1KpFLfffjsqKytx4MCBbutlN26GgiERJ81FqxPRERc+e6MQieOMiIjodaSSSqWYOnWqQ5oTVyGRSHDnnXdCr9djx44dg+ad5MZNfxkScVJcqggiToqiEBwc3G3kxAXEKRKJEBcXh9LSUueXXAJZgwYHB2PTpk0usRS7cdMbQyJOErRLDD00V5Ha3vLq4eEBjUaD8PDwXtd5xPXv8OHDzi+5DJFIhKlTp2LmzJl49913h2TUduMGQyVO55GThG7Zj0Senp5obm6GUqnsVibcHplMhsbGRpevOwkUV+E4KSkJ//d//4f169ejurq613WxGzeDxZCIk+ayotkLjqZph+wGSqUSzc3N8PDwwNmzZ3u12IrFYsybNw/Nzc3OL7kUkUiE8PBw3HXXXdi9ezdvyXXjxlUMifueVqvFtm3bcNNNN/FVlk0mE7788kvce++9AIDi4mLk5eVhwYIFePHFF/HKK6/Aw8PD6Uz/L+lUa2srzp07h1mzZjm/PCjo9Xrs27cP7e3tzi/BZrNBp9Ph8OHDmDZtGhQKRY9Oy27cXAoeHh68t9qQiFOn02H79u247rrr4O3tDXDiXL9+PR555BEAQH19PX788Ufce++9ePrpp/Hf//4XPj4+Tmf6f2g0Gqxbtw5PP/2080uDQnFxMTo6OhAXF+f8EsBFyVitVpSXl+PAgQO49tprER4eDvoSswMOJwzDwGQy8Ym8LgWWZcFyJR77y6W8569Ae3s7vvjiC7z22msAOwTo9Xr222+/Zdva2vjnjEYj+8Ybb/B/a7Va9oUXXmANBgP73nvvsQ0NDfxrzmi1Wvbxxx9n9Xq980uDQkZGBtvZ2ckyDOP8Eg/DMKzZbGYbGxvZNWvWsMeOHWMNBkOf7xkKbDYb297ezpb/f+29d3wc1bn//57tfVddVrOau9y7ccWm2ZQQOlzSTAgphISEcNO43BTSKKGYEkq4hGYwxTQbG4x7r3KXrWr1Xrfvzu+P38x8VyvJkmxZxez79dqXrTkzszOz5zPnnOc853kKCsTKykrR4/Gc9Zq8Xq+4YsUKcfXq1eFFnVJRUSHm5eWJHo9HFEVRdLlc4ldffSWWlpa226++vl48evSo6PV6220Xpfqwc+dOsaioKLyoS1wul1hUVCQeP378gv3ug4HW1lbxnnvuEUVRFPvltSUbhMKNPKFGHZPJRGtrK6IoMmrUqA7ufqFotVoWLlxISUlJeFGfIIoiQljw5HDke4qLi+Oee+5R3nj19fUd7rO/EEWRPXv2cO2113LHHXewdOlSPvjgA1wul5KWIShFh5cDTHs8HuLi4lBJKTMCUrYtOb9IuOHr/fff5xe/+AWtra14vV4aGxtZs2YNJpOp3X3v3LmT5cuX09LSgickD6m8RO/TTz/Fbrcr1+ByufB4PJ1a6b1eL3/961+57bbbuPXWW9mwYQOBQACPlP/E4/HQ2NiIR0r05HK5Buw3OF8EKX4v/W0QCv+hVSpVu8BfFosFURQZMWIETqezw/4yGo2GBQsWkJ+fH17U76hUKmw2G1dccQWXXXYZK1as4MSJE7hcri6v/0Lh9/v5/ve/T1RUFM899xx33nknDz74IAUFBbz33nu88cYbtLa28tprr7F69Wqam5v5+9//zocffsiuXbuor69n586dPPbYY7z55pvcf//9HV42ra2tNDY2UlBQwBNPPEEwGOS+++7jqaeeorS0VNnP5XJRVVXFRx99xL333ktJSQlOp5P9+/fz7LPPUlVVRWVlJXV1dfzlL3/hpz/9KY8//niHqSqn08kLL7zAsWPHSElJIRgMMmrUKPLy8vj1r3/NAw88wIYNG/j+97/PH//4R1avXs3Pf/5zvvrqq35//n1Nv4lTp9O1+5EFQSAhIaHdjyEbgEwmE8XFxV2+/VRS+rxjx451+qYdCHQ6HVlZWfz4xz+mtLSUJ598kqampi7nbPsaURQpKyvj+PHj3HLLLYwdO5alS5ficrk4ffo069evZ+3atTQ2NvLpp5/y1Vdf4fF4GDVqFFdeeSWrV6/mlVdeITc3l0cffZTGxkbWr1/Pww8/3Kn7otFo5JNPPuG9997j2LFjvPLKK1it1nb7NDY2UllZya5du3jooYfIz8/n7rvvJi4uDp1Ox/Lly6mpqWHEiBHMnz+fN998k9dee63dOXbu3Mnjjz/O0qVLKSgowGQy4XQ6Wb58OU1NTcTHx/Pd736XmTNn8tJLL7F+/XpaW1t54IEHurT4DxUGTJwqlYrExMR2FlHZkmsymSgsLOy0UsioVKpOE9sMJIIgEBMTw6WXXso3v/lN3nrrLb788kucTmeXL5q+RC8ldG1ubla6sYIgYLVale6qx+PB6XTi8/morq7m2Wef5bPPPqO5uZm8vDyCwSDR0dF873vfY+LEieTn53dayR0OB8uXL+eZZ57hySef5MYbbyQqKqrdPjabjeXLlzNr1ixKSkqUXKPf/OY3ufLKKykrK+P06dPKNbS0tHDy5Ml259i3bx96vZ7Fixczb948BEGgoKCAmpoabrrpJpYtW4ZWqyUnJwdRFLnxxhu58sorKS4u7peX4oWkX8QpCEI7DyF5W2JiIrW1tcpDlFtOo9FIcXHxWecRNRoNCxcu5NixY+FFA45Wq2XkyJF861vfQq1W88orr3Ds2LFOx3B9hSDFA77yyit59dVXef311/ntb39LbGws2dnZJCcnU1xczDvvvKPEAJbDx1x99dVK/CSVFH1fo9Gg6yQ3pUrykzYYDFxyySU0NzezZ88ebr311nZjdJVKhclkQqPRKC+NkSNHYjab+fjjj/niiy+Iiori5MmTnD59ut01hDJu3Dh8Ph/r1q1jz549qFQqUlJSiI6O5qOPPmLt2rUYjUZiY2PRarWYzWZ0Ot2QTWwUivrhhx9+OHxjXyMIAuXl5ajVauLi4pRtohQ/aNSoUQiCQH5+PtnZ2RgMBnbt2kVOTk6HrpKM3C3+6quvmDx5cnjxeVFWVkZcXFyHpEq9RafTkZGRwciRI9m4cSOHDx8mNjYWs9mM0I3B6VwQBIFLL72Uuro6tm3bxpYtW3jrrbcYNWoUWVlZlJaW4vP5mDZtGuPHj2fJkiVUVlZSXl7O5MmTycnJISsrC61Wy6JFi6irqyM1NZWZM2cq0yyNjY1YLBZmzZqF0Wjk+PHjNDc389vf/rbdVExrayuBQIBFixYp3c8rr7ySzMxMdu3aRSAQ4P7772fevHlUVVVRXl7OpEmTmDBhApMmTVLOk5iYSGNjI0ePHmX27NlkZWVx2WWXMXHiRPbt20dtbS333nsvkyZNorq6moULF6LX6/H5fCxdunTIidTn87F+/XqWLVvWP1MpojQ9sXfv3nbbXC6X+Oqrryqm/nXr1omNjY1iMBgUV65cKZ48ebLd/uF4PB7xz3/+81mnCs6FXbt2ic3NzeGbzwufzyeeOXNGfPTRR8U333xTrKmp6fPrlgkGg6Lb7Rb/9Kc/ib/97W/FtrY2UZSmWQKBQLt9O9vWE9xut/jss8+K48ePF997773w4rPi9/tFv9+v/N3dNcjl4c8rEAi0O8/FQFtbm/ijH/1IFPtrKgWpGxqejEgTEs8Wab1mdXW1YrHtbjwpCAIOh6NP8qhcaDQaDcnJydx7771ccskl/P3vf+ejjz7qYJ3sCwRBQK/X8+tf/5o//OEPSsA0lZRiL5TOtvUEjUbDbbfdxpdffsnVV18dXnxW1Gp1uxatu2uQy8N7GnIX+2Kl6yfSx6jV6g7iRGrGZcxmMxUVFQSDQeLj46mrq+vUGCGjVqu5/PLL2bx58wUby/UlguREn5KSwh/+8AdmzpzJH/7wB1auXHlBlqN1V+nPB7Vajd1uJyYmpsugyBHOjwvzy3WCRqPpsGBZlLIry1gsFkWcJpOJqqqqbi22aWlpnDlzJrxoUKOSpoLi4uL485//zPTp03nmmWd4/vnnaWhoGBIvGsImzCP0Pf32ZNVqdQdx0knLWV5eroizsrLyrJ5CSOdVqVT9toSsrxAEQbF6pqWlce+997J48WI+/vhjHn/8cc6cORMJ0fk1p9/E2dmYE0mcoVMpcsup1WoRBKHb7p4gCMyYMYPt27f3y1xiXyNI00wmk4mMjAxuvPFGbrrpJnbt2sWKFSvYuXMnbW1tQ6Y1jdB39Js4OxtzClJCIXm70Wikvr6eYDCISqVi+PDhnS7bCkUQBKZMmcKBAweGfAWWRZqSksLSpUv5zne+Q2NjI2+88QaffPIJZWVlkdb0a0S/ibOzMacgCMTHxysWWtnIIFe+zMzMHonTaDSi1+uHZMvZGWq1GpPJhMPh4NJLL+WWW24hOzubzz77jA8//JCDBw/S3Nx8VmOZ2+2OiHiI02/i7KrlHDZsGBUVFUpFio6OVv4/bNgwGhsbz1oJkc4zZswYcnNzLxqBEjIlYrfbGTlyJLfffjuLFy+moaGBp59+mo0bN1JUVERbW1uH+966dWsHp/UIQ4t+E6dWq+10/JiUlERlZaUiyJiYGKVMzuPZnVEIYMaMGaxdu/airYwajQaz2Ux0dDRz587lJz/5CePGjWPDhg384x//4MCBA9TV1SnLpRITE/nJT35CbW1tnzwTURQJBoMEAgH8fr/iuysvL+vJRz7GF7JkLdK6d02/REJAWuH9t7/9jb/85S+K+V0URZqamnjjjTe45557UKvVvPPOO1xxxRXY7XY8Hg///ve/uemmm9qJtjNEUeTZZ5/le9/73nmHDdm9ezdjxozp0nVwsBAMBvF6vbS0tNDQ0MCuXbsoKipi6dKlpKSkcNNNNxEXF8eKFSuIi4vrdMJelCIShAolGAy2+1sub2xsVD5tbW0d1l+K0jrYrpDLbDYbZrMZm82GzWbDbrcrZYLk1hjqdNCVE8LFiNPp5IEHHmDFihX9J87GxkaefPJJfvOb37TzwQwEAjz22GPcf//9aDQavvzyS6ZOnYrD4UAURV577TXmzJnDiBEj2p2vMzZu3Eh0dDTjxo3rtCL2lKEizlBEUVQWHRcXF7Nv3z7effddzpw5w/Tp03nssceIi4tDkHyaZfEFAgFKS0sVv1ukVUEWiwWDwaCIT7Yqa7VatFptBy+f3uD3+5WP3IoifUcwGMTpdNLS0oLP50MlrZdNT0/HbrcrIg3/92IhVJz94viOtJo9NzeXadOmdYhVs2PHDmbPno1KpaKxsbFdQtH6+npcLhfDhw9vd0xnWK1WXn31VebMmYNGowkv7jF95fjen8jiMRqNNDQ08O677yrW3fr6egoLCxk+fDj5+fmUlJRQU1OjfPR6PSkpKSQlJTFs2DASEhKIiYnBbrcrH5vNhsViwWQyodfr0el0aKTscL396HQ6DAYDJpMJq9Xa7jtsNhtRUVHEx8eTmJhIYmIiJpOJuro6KioqqKqq4syZM8o9mEwm1Gq10gOQW96hSqjje7+NOQVBwBQWykIm1MvEYDBQWVmpTIukpqa2G5OejejoaIYNG9atAeliRRRFioqK2LRpExMmTGDp0qX84Ac/4Je//CVXXnklwWCQ7OxsxowZw8iRIxk1ahSjRo1i2LBhShRBo9HY6VKx/kJ+yeil3DlGoxGHw0F6ejqjRo3qcN15eXns3LmTPXv2cPDgQcXl82IYz/bbL6CS1gl2Js7Q7pHRaFS8hJAW9brd7naeRF0hCAKzZs0iNzf3aydQUYoIKIoiU6dOZezYsdxxxx3ccccdXHPNNSxatIisrCyl5euqS3oulfps+/d27vls50L6jXU6HUajEbvdztixY5k4cSIjRowgKSmJkydPsmHDBo4cOaJYq7s752ClX8VpMpk6FY3cLUESZ0VFhSJi2bgTPkfaFSNHjuTtt9/u8f5DHVEU8Xq9nDp1io8//phgMMjIkSOZM2eO0iX0eDy0tLQon9bWVqqrqzv8FsFgkG3bttHU1NTjCh0MBqmpqcHbiQ+01+vtVfDtYDB4TiuMZMGazWbGjx/PjBkziI+P5/jx42zcuJGqqqpevyQGA/0qTqPR2GnL6XA4qKurQxRFDAYDZWVl7cSpVqs7nYbpDJPJxOzZszvMqV6MBINB6urq+OCDDzCZTFx66aUkJCSg0+mUcZcoivzxj3/k29/+NldddRX/9V//xS9/+Usef/zxdkvyRFGksrKSkydP8uabb3b6O3WGx+NhxYoVlJWVhRexbds24uPjezQG9Hq9PProo3zve98jLy+v3cvhbMHeOkNuCMaPH8/EiROpra1l+/btPZqSG0z0qzg7azkFyUuorKwMURQxGo2UlZUpP4ZarSY+Pp7i4uJ2x52NefPmsXnz5iH3Y/QGucUqLi5myZIlWK3WTi2XgiDwpz/9iVdeeYVp06bx7LPP8sgjjxAMBpUIe7I/c3l5OXv27MHn8xEIBCgvL2f16tX87Gc/Y+XKlaxZs4af/exn7QKriaKI2+1m7dq1/PSnP+XIkSOIosiJEyd46623+OCDD/B4PBw8eJBf/vKX/PnPf6a2tla5vqA0RXP//fej1WpJT08nMzOTY8eOce+993L//ffz/PPPU1paygcffMBDDz3EM8880+1aX6R712q1pKSkkJ2dPeRSOfa7ODt7Iw8bNowzZ84QDAbR6XS43e52+w0bNozCwsJ2x5yN+Ph4Dhw40C7/58VGW1sb+/fvJyMjA41G00GUochWUnn6Qy2tEJo5cyY//OEPefHFF3G73fz73//mV7/6FbGxsXz44YdUV1fz2Wefcd999/Hll1/icrn43ve+xzvvvNPuxSeKImlpafzyl7/kpZdeIhAI8Je//IXf/OY3TJs2jQ8//JCYmBh+9KMfMWvWLP7zn/8oL2mn08n999/P3XffzeLFi6mrq0MQBB599FEeeOAB5s+fr8TdXbNmDf/1X/+FVqtl69atIXfYNYI03WI0Gpk7dy6nTp3q0EAMVvpVnJ0ZhATJha+kpARRMoXHx8e3e4BxcXHU19f3+KHqdDpuvvlmSkpKOnzfxYLb7Wbs2LHdCrMr7HY7KSkpxMbGUl1dTXl5OZWVlXz11VfK9EowGGT8+PHKtEZKSgrx8fEgzVXKaDQaMjMziY+Px+1209zcjEajIT4+nvT0dHJzc3nnnXf4/PPPKSgooLa2Vjne7XZTXl5ORkYGmZmZOBwOWlpa0EoBu0eOHKmscR05ciSJiYnEx8f3OoKEIM0WVFZW9ngMPND0mzjlQXtn6y6jo6OVMSdAQkJCux/faDRis9l61SXJzMxk48aNF+3YU6PRUFVV1WPDTTgqKWeqPGWSkJCA2Wxm/vz5XH311UyaNAmVFAxcrVa3a30FyZFBRu4+yueyWCz4/X5qa2uVue2dO3cyffp0dDpdu2WCer2e9PR0CgsLOXr0KE1NTVgsFrxer3L8rFmz0Gq1yvef6zSP3+9Xuv9DgX5zQgBoaGigqamJ5OTkdttVKhU7d+5k9uzZaDQaCgsLSU1NVeLYqlQqzpw5Q3x8fKeZxzpDo9FQUlKiRBzoTesyFJwQNBoNpaWlaDQaDAZDj+7P7/czatQoZQVPdnY2Wq0Wv99PTk4O8fHxbNq0icLCQrKzs7Hb7RgMBiWhcXp6OjabjWAwSFZWFhqNBlGawpGnabxeLzk5OaSkpPDZZ5/hcrm44YYbGDFiBFu3biU6OpqRI0cyYsQIpYs9depUPvjgA7xeL+PHjycnJ4dhw4axZs0a/H4/N9xwgzL3Onz4cERRJCoqimHDhoXfYpf4fD7y8/PJysrqNATnYCHUCaHf3PcACgoKKCgoYMmSJeFFPPnkk9xzzz3o9Xq+/PJLsrOzFa8gURTZtm0bOp2OGTNmhB/aJTU1NXz++efccMMNvfK3HQrue6I0hbJ7925sNhtJSUntrLThiJKrniB50ASlNbNIotXpdPj9flwuF4K0zpaQMZvf71cMTvKxqpD8KvJ+Xq8XvV6vnEsjORT4JVc9uZUN7Y77/X7cbjcqKWBXZ8eLkgeQWq1WhiqaHniBBQIBXC4XpaWlZGVlYbfbe3TcQBHqvtev7btKperSSGOSIsQhxSoN7dYKUsDko0ePKtt6gt1up7W1tVMz/1BHHibMmjWL1NRU9u/fT1VVlbIqJRxB8ryRu4Vyl1YlReNHquxWqxWLxdKhGyt3b0OPDT+vIC1xCz2X0WhUvkN2y5SjXMhoNJp2roGdHS93reXvO5vARCk2VXNzM2fOnCE/P5+cnBwcDsdZjxts9Ks41Wo1TU1N4ZtBGqfI0ycWi4Xm5uZ2c1uxsbGcOXOmnWi7Q6fTcfXVV7Nnz55OJ8mHOrJoHA4HCxYsIC4ujtzcXI4cOUJbWxterxe/5DV0MSNKjvw+n08xSG3fvp2mpiYyMzOVANjqLryiBiv9Ls6uWk6Hw9EuflD4OkS9Xk9qamqvDTzR0dG0tLS0m1u72FCpVBgMBqKioliwYAETJkwA4PDhw2zZsoXa2lolPZ7f7ycwhF3aZCEGpHWl8lrR48ePKwvM9VJuldGjR2OxWDq01EOFfhdnVy1nXFwchYWFBINB9Hp9p+JMT0/v0eRzKEajkUWLFvH5558PGRP6+aDT6bDb7SQmJnLJJZdw2WWXodfraW5uprCwkD179nDgwAHF5S5UsPIneA7+tX2JPI4N/fhCFnfL93Hw4EFqampoaWlh5MiRXHHFFYwYMYL4+HhltcpQpt/F2VXLGSpOnU7Xbi4MKZJCfHw8J06caHdcdwiCQHJyMnq9/pz8Nocq8pjUJAUMy8zMZOLEicyfP59p06ahVqspLy+nrKyM/Px8jh49yuHDhzl8+DAlJSW0tLTgD1l3KX9CBXw+H/k84ef2+XzU1taSl5fH4cOHOXLkCCdPnqSkpISysjKqq6sZNmwYc+fO5ZJLLmHkyJFkZmYSExODwWAY8oIMpV+ttfX19Tz44IO8+OKL4UU4nU7+9Kc/8dBDDyEIAo888gj3338/drtd2ae0tJSVK1fyi1/8ot2xPeH06dOsW7eO73//+x3Wk4YzFKy1fYUoTYX4pWVWAE1NTdTV1eF0Oju0oLJVVv5/aHn4vjJylzK0aylbX4NSKy2XqdVqHA4HMTEx6PV6BCm+r2x0utgJtdbSLovKBaaxsVFcvnx5l0lr/vu//1tsa2sTA4GA+LOf/Uysra1tV97Q0CD+6le/En0+X7vtPcHpdIrvvfdet8mRxAuUyGioEwwGRb/fL3o8HtHlcoltbW1ia2vrOX2cTqfodrtFn8/XZV34ujIgiYyQ3pwOh6PLsV9sbCxIBo6oqKgOjut6vZ5JkyZ12TU+G0ajkVmzZvHmm29elJbbC43cgulCohiYzeZz+hilUKahUzIROtKvT0alUp1VnKFBvOLj4zuISK/XM2XKFOrq6tpt7ylxcXEsW7aM3bt3hxdFiDDoGFTilBPryv8PbzlVUrCnbdu2tdveU7RaLaNGjeKzzz6joaEhvDhChEHFoBJnVFSUspazs5YTKcbQtm3bFONFbzGbzfz4xz/mqaee6vI6IkQYDPSrOLsbc0ZFRZGXl0cgEOi05UTq2mZlZXU5X9odarWauLg4Lr30UrZu3dqlhTFChIGmX8UpG3o6axGRvHlkcZrNZlpbWzu0kDqdjssvv5zq6up223uDVqtl6tSpHDx4kLy8vPDiCBEGBQMizq5aTofDQX5+PoFAAJ1Op0yEh6JWq8nOzubkyZPttvcGQXLQ/u53v8vq1aupqKgI3yVChAFnQMTZWXcVqVU0Go0EJS+hzjJpyZPge/bsOa8uqVqtxmq1cscdd/DOO+/Q2Nh4XueLEKGv6VdxCtJyn67mKQVBIC0tDVEUuxQnkshVUnT480GtVpOYmMiSJUt49dVXaWlpiQg0wqChX8WJJKyziSo9PZ2gtDKlK3FqtVquuOIKioqKwot6jVqtZvTo0SxZsoQVK1Z06rIWIcJA0O/iFAThrJbW1NRUXC4XarVaWYkQjkajYfz48Zw6dSq86JxQq9WMHTuWq666iqeeegqXy9XBEBUhQn8zIOI8W8tpsVg4efIkwWCQ6OjoTtdvyt3j8ODD54NKpWLChAlcddVVvPTSSx3Cc0aI0N8MiDjP1nLabDaOHTuG3+8nJiamy0jvsq/n2YTeW2SBfvvb32bFihUd1pRGiNCfDIg4zyaocHF21nIidW0XLVrU67hC3aFSqbDb7dx55528/vrrHD9+HP/XINRHhMHHgIjzbC2nvIbP6/USGxt7VnFOnDixz8Upk5iYyPLly/nqq6/48ssv8Xq9EYFG6FcGRJxnM7gIgsCIESPw+XzKmLMrUahUqh7n7jwXHA4H3//+9/H7/bzyyivnvBomQoRzYUDEeTZHBIARI0bg9XrR6XR4PJ4ux30qlYphw4ZRVFR0wQSq1+u5/PLLufrqq/nnP//JwYMHO53eiRChr+nXMCVIYRgef/xxfvzjHxMVFRVeDFJIEb/fT1xcHOvXr+e6667rNCh0MBikqKiIHTt2cNttt6Hqo4W7nYUpCQQCtLW1sWvXLrZv387PfvYzbDYbwhCM6iYjhwkJjQskb5fLGhoaqK+vx+v10tzcjNfrpbW1tcPLMPzvUDp7RhqNBpvNpoQlsVqtSmp7ISR1vCB5hKml6PB99RsPVkLDlPS7ON1uN6+++irXXXddl+H0KyoqOHToEDNmzODjjz/m+uuvV1IzhOP1ennyySf5xS9+0Wc/XGfiRHoZ+Hw+qqqqWLt2LVqtlhtuuKHLaxtI5GsNSgG1vF4vVVVVlJWVtROXWQr0bLfblYDOoWg0GiW0pBzUWS0FkD4fxJBM3HJwL/kTvl9bWxvNzc00NzcTkKLLq9VqYmNjSUlJweFwoJKi0csBp8/3+gaKARWn1+vlk08+YdKkSWRmZoYXA9Dc3Mx//vMfbrvtNlatWsWNN95IdHR0+G4gtWj//Oc/+dGPftRp63oudCVOGb/fj8fjoaCggE2bNhEfH8/ll1+O3W7v10oRDAaV4Fxer5eysjIqKysJBoOK77AsOJWUBk+OuC4T2kJ1du2h5eHbzhe56oX/G47ckoeWi1JeUDl4tiCliWhra1OMiAaDgYyMDKKjoxXh9sWL5UIyoOL0+/3s2rULu91OTk5OeDFIyVx+97vf8atf/Yq3336bG2+8kYSEhPDdQKqgmzdvJhgMsnDhwj5pPbsTJyFvfpfLRV5eHgcPHsRoNLJ48WJiYmI6vL1LSkowGo3ExsaeU+WQw0h6vV7Ky8uVINlyiyEIAtHR0Uq0QkHqDoZ+V+i+FwNiSPQ+mdC/fT4f9fX1eDwe5fdCWmCRmpqK1WpFHZLmYTAQKs5+zTImI49bwrONyahUKg4cOMDYsWMpLS0lISGhy5YTKd7Qhx9+yKxZs1D3QfjEnmQZE0ICXsXHxzNq1ChMJhNffPEFJ0+exO/3K2MqlUqFz+djxYoVZGdn92is6pcS/9TW1lJQUEBpaSlFRUWUl5djNBpJSUkhJiaG2NhYYmJiiI6OVqKby107+bvlz8UkTEJeQKEfWWxyd9xqteJwOHA4HERFRREVFYXJZKK8vJyioiIqKytpbm6mqakJo9GIKIodXmr9iS8ky9iAiFOtVlNWVqZkEQtHEAQqKytxOBy0trZiMBi6HJ8KUr6Q3bt3M23aNDR9kKimJ+KUkUWq1+uJiYlh9OjRpKWlcezYMb744gtlKkiv13Po0CE++OADpk+f3iENnSgl32lra6O0tJTi4mKOHDmCx+MhMTGRqKgoJYmtzWZDp9MpApQ/A1WhBiuh4g0Xrd1uJzY2lujoaIxGI4IgcOjQIUpLS5UxujzW7oveWE8ZUHEKgkAgECAvL4+RI0eGFyv4fD48Hg+C5JCQnp4evouCIAjU19fjdruJj48/74fZG3GGolKp0Ov1mM1m0tPTycnJwW63s3nzZtatW4dGo2Ht2rUcOnSIefPmYTKZCEgp6urq6tizZw9nzpwhMTERh8NBSkoKcXFxGAwGpUWUW8MI544sOFmwWq0WnU5HQkICcXFxaDQaGhsb2b17Nz6fTxF1f/Q8QsU5IL+yIAi0tLSEb25HbGwsdXV12O32Ltd/hjJz5kw+++yzDta+gUCQ8lvKCV6XLVvGJZdcwldffUUwGOTAgQP8+Mc/pr6+nq1bt7Jlyxb8fj8TJkxg6tSp2Gw2JR3eYBoPXcyopCzeer0ek8lEYmIis2fPJi4ujoaGBt5//31l/CpPOV1oBkScQLfiNBqNVFdXYzabaW5u7tKSJxMTE4PZbB4U4gzF7/fzwgsv8OKLLxIfH8+1117LXXfdRWZmJnl5eWRlZTFt2jQli7ROSoAr32+ogUPu+ra0tOB2u8O+qWvCjSadGVJC6ekz7O48nSEbZrr6jq62n+27AlKOlZ5ytnPJhPaCYmNjufTSS2lqamLz5s0UFhbi9XovuEgHTJzdZQszmUxUVVWBVLm6+tFkBEFg3LhxFBcXX/CH1htEUeTHP/4xL7zwAk899RTf+MY3mDNnDj/96U8ZM2YMdrsdnU6HKIqcOXNGqTByN33fvn3Ky6mhoYHdu3fz1VdfdRuYLNRFcs+ePe3i9AYCAfbt29dlhd62bVu3zxvpPDt27OjVi8Lj8bB69epOj5HP1xlut5vc3NwO1+X3+8nNze1xguRgMIjT6WTXrl0dvNTEsOkaGZWUYjEuLo7Jkyfj9/vZvn07DQ0NHa6nLxkwcXbXcsrjPbfbrYw7u2PChAm88847Pdq3vzAYDNjtdkwmE8eOHcNmszFq1CjFkisTDAb54x//qPzYn3/+OUVFRTidTjweD36/X0ndl5iYSFZWljIud7vdyjSBfK5HHnmEZikB8Zo1ayguLlb280lp/0IrZzAYxO124/F4eO+995T95G1BaU5V/j657OOPP6a2trbDNcjnlPcPSFNBx48fJzExEZVKRVAyvLjdbrxSOsL3339fOSZUKE1NTWzcuJGWlhal1QoGgzQ2NnL48GHsdjuilDrQ7Xbjdrs7vKT9fj/Nzc28//77/Otf/1Ks6m63G6fTSUFBAa2tre3uMRydTkdiYiJjx47l9OnT5Ofnd/ievqLfDUJIg97PP/+cyy+/PLxIQZAstlqtlsbGRrKzszEYDOG7tcNsNrN7926mTp2KTkqlfi6cq0GoK/x+P7t37yY5OZm4uLhOp3uCwSArV65k2bJliKLI3r17SU5OJjc3l+HDh9PY2MjatWupqKhArVYzatQonn/+eXbv3s0XX3yBKIqKU0dlZSXPPPMMDQ0NZGZmsmPHDk6ePMn27dupr68nKyuLzZs3M3bsWPR6PcFgkPz8fJ544gmOHDlCQUEB1157LevWreOTTz7hyy+/ZPTo0XzxxRd89tlnbNmyhdOnTzNmzBjWr19Pfn4+GzduRBAEMjIylHsqLCzk2WefZc+ePcTExFBcXMyXX37JiRMnsFqtmM1mVqxYwbZt2ygsLCQnJ4c33niD0tJSPv30UyZOnIjJZEIQBJqbm/nkk084duwYmzZtYvTo0bjdblasWEFDQwPFxcVMmjSJI0eO8Prrr7NhwwasVivDhg1TxuyHDh3ilVdeob6+HrVazVVXXcXevXt57bXXWLlyJXv27KG4uJidO3eyYcMGKisrGTduXAcDnCA5NDgcDmpqaggGg33mJTbgBiHCul1dkZWVpbSwPWkNBUFg7ty5FBYWXtDuRm8pLS3FarUSFRXV4YcOpb6+nvvuu497772XN998E7/fT2FhIc3NzbzyyitkZGRw+eWXc/DgQWpraykqKmLJkiXcd999fPjhh8p54uPjycjI4Hvf+x4JCQkEAgEWLVrE8uXLOXr0KPX19Zw5c0ZpOb1eL08//TR33HEHy5cvp6mpCVEUmT59OnPnziUtLY2dO3dSWFhIWloay5cv58yZMzQ3NyMIAtdeey333XcfH3zwQcjdwMGDB8nJyeG2224jOzubUaNGsWjRIkaPHs3KlSvZtWsX8fHx/PznP+e2225DFEW8Xi8/+MEPmDVrFuvXr2/3O4qiyPLly8nOzmbbtm3s3LmT0aNH8+Mf/1iZBsnOzmbhwoVMnz6df/3rX0rrFwwGefTRR7ntttu488478fl8NDY28s477/CjH/2I3//+9/h8PlwuF6NGjeKBBx5g06ZNZ61HWq2WlJQUTp482Wkre750XVMuIIIU+d3lcoUXtSMuLk6ZJ+yJOAHGjBnDa6+9hruTMc1Acfr0aRISEs4qTKSg2k8//TQrVqzgjjvuUOZs/X4/TU1NlJeXU1BQwLRp0xTzf3R0NAaDod2LTp4i0Ov17eZgrVYrOp2u0+5nY2MjqampOBwO4uLiEEWRBx98EJfLRUJCAg0NDailaIUWiwWLxYLP50Ov1yvXEF6RL7/8cvx+P7/73e/YtGkTTz75JMePHyc2Nha3201dXR2ZmZmYTCaMRiMqlYqUlBTMZjMxMTEdgopnZGQo3+3xeGhra2P48OFYLBays7Opr6/nmWee4eTJkyQmJtLS0qIcH5D8du12Ow4p/6fT6USQVklZrVacTicajYakpCSMRmM7N8eu0Ov1ZGRkdLnu+Hw4e225QAiCQFxcXI+MQm1tbWg0mh4nHnI4HGRmZnYr/P5EpVJ1amgIR+4uabVaVKr/56Wi0WiYOXMmfr+fmTNnkpaWplScrqZZbDYbJ0+epK2tDTEkOW1naDQa5s6dy0cffcTGjRspKSkhKK1ISUpK4tNPP20nvPBzhf8tU1JSwowZM7jrrrsoLCxUxsunTp0iEAiQnZ3Nv//9b4qKitplfhO6mE+UtwvSPGVmZiZvvfUWp0+f5ssvvyQ5OZna2lpSU1M5ceJEO2FrNBomTJjAvn372LBhAyUlJURFRREbG8vevXtZt24dV1xxRbvv6SlCWBLhvqLffWuRulGrVq1ixowZZGdnhxcreL1eXn75ZeLj44mLi2P+/Pnhu3RKQUEBRUVFzJs3r0dvv3B64lvbG6qrqzlz5gzZ2dld/uiiKFJUVMTw4cNRqVRUVVVhtVppbm5WxjPl5eVUVVWRlpZGbGwsra2tisteRUUFqampyvnq6upobGxUWhCr1YpWq6WlpQW1Wk1LSwtRUVFYLBZEUcTlcnH06FFMJhMmk4m0tDTFxS05ORm73U4gEMBgMGA0Gmlubkan0+F2u7FarWg0mg7X0NDQwOnTp9FoNGRnZ+NyuSgsLFSWiNntdmpraykuLiYjI4OkpCTKy8tJTU2lpaUFn8+nrDhxOp243W5sNpuyqsZoNFJWVkZZWRnZ2dnEx8fT0tLCiRMnlJ5KamqqMsZvamri1KlTGI1GxZXP7XZz8uRJbDYbKSkpeL1eZYHAmTNnSElJOWuPx+v1sn//fhYuXHhedg6ZAXV8R+qmbd68maioKCZPnhxerCCKIm+88QZarRaDwcB1110XvkunuFwufve73/H73/8eh8MRXtwtfS1On8/H/v37iYuLIyYmpkuB+v1+pSsbCAQUi6ZcOeSuWaiXkHyuoLQSRSYoTT+p1WpEyV8U6Zl6PB7WrVvHZZddhslkUrbL4yaVSoVGo8EvpaIXJBdFuQUObym6ugb5epFaLlGypsotn0qlandParVaOYfc6snXLf8d+t2C5G0mHyMf5/P5lOtQh7g1BiWLc+j3i9K8q3yPMiqVqt3v0RmyTWD48OFn/V17Q6g4u34lXEAEQSAxMbFbzx9BEEhJSaGtrY36+vrw4i4xGAxceeWVVFRUXJDuRm/RaDRMmjSJxsZGiouLO4zNZEIrglyp5H8Fqcsrew3JlUsuC61YhHi8qCQ3NXk/lTS5vnTp0nbWaEEQ0Ol0is8u0vXodLp255G/U/7+s12DWloYoNPplOPl88nXFHpPoeeQzy0T+l2h/5evMfQ4+XzyOUPPEf79odtC74mw3yMU+UUmt9AOh6Pd9/QVAyJOlUpFQkJCt+JECjLd1tbWbnDfHYIgMGXKFLZu3Tooxp5yxc/JycFisXD8+HFaW1u7FOmFRiUJN1xMEbrH5/NRUlJCfn4+Y8aMITExsUsRny8DIk5BEDCbzV3GpA3Fbrcr1sVwK+PZsNlseDweKisrw4sGBEFaPZOWlsaECRMoKSmhoKCAhoaGC2KGj9B3yF3lkpISTp06hcPhYOLEidjt9gsmTAZKnDI9MT+HmrTD3a3Ohlar5dprr+Xw4cM9noa50MjdMLPZzJQpUxg9ejR1dXUcP36c8vJynE4n/kiM3EGBLMiGhgYqKio4ePAgw4YNY+LEiSQlJaHX69t1uy8EF/bs3dCTLqfBYMBkMhGUXL16Q2xsLPn5+WcNYj0QyN1ck8mkrERJSEjg5MmTHDhwgObmZtra2vBJMYAiYr3wyIYhr9dLU1MTZWVlbN++HZfLRUpKCpdccglRUVEYjcZ+Gw4MenGq1WpSU1OpqqrqtTiNRiNLlixh165dveoS9xdyS2o0GnE4HMyePZvZs2djtVppaWlh48aNHD16FI/Hg9frxS+t5ujp2DtC58hWY7/kP+zxeGhubmbTpk3s3LkTjUZDcnIyl112GSNGjMBqtWIwGC54SxlO/35bGD0RJ0BKSgplZWVnjRTfGYIgkJ6erkScG8yEtqayI8WyZcsYN24cPikWzt69e9m9ezcVFRX4pAxssmADgUCkhe0EeUopIC0r83q9uFwuDh8+zPbt2zl27BgulwuVSsXll1/OZZddpix2NxgM/dZKdsaAirOnLnaxsbHodLpzMu5YrVYmTZrUrZ/kYEOj0WAwGHA4HCQnJ5OVlcWCBQuYO3cuDoeDuro6qqqqOHnyJLm5ueTm5lJZWYlfisYX2srKH7GLJVFDFVFalyl/ZBHK9+9yuTh9+jS7d+9m7969FBUVUVNTQ0tLC2PHjuXSSy9l5syZpKamkpycjNlsRi+lAxkMDIgTApJx5y9/+Qu//vWvu1390drayooVK0hOTua//uu/wou7pbGxkXfffZebb75ZiU53NvraCeFCIU+q+yVngdraWurq6hQRyuVI0ycOKchV+PM+W2UMLTvbfudKePUL/zuU8LKWlhbq6+tpa2tDCJkLlv+v1WpJSEhQ4jVppVAvF+I++ooB9xBCcnt68cUXueGGG0hMTAwvboff7+ftt9+mqKiI3/3ud+HF3SJKS7AKCwu58cYbux07DBVxng3Z2ih3dwOBAPX19dTW1uJyuRQBa6S4RPIkfGjrKkjhVuTunexI35mb2tmqUbgYBCnGrLxOVF47KY+tQ48RJC8geXwof49arVaCdMm/01AR4NkYFOL0+Xx8+OGH5OTkMGbMmPDiDqxfv57Vq1fz9NNPn9ODb25uZuXKlXzzm98kJiYmvLgdF4M4e0poVzDc0CSKIs3NzYqfq2xB7mx+WuzGuT4ctVqNxWJBpVJhtVoxmUyYzWaMYYHBBclrSP5092Id6gwKcQYCAbZu3YpWq2X27Nnd/rAnTpzgueee49FHH1XmPXuDKIocP36cTZs28YMf/OCsP/LXSZyhDFBV6Jbu6sbFxID71iI98MTExB77zMbGxuLz+XrkuNAZgmS5dTgcVFdXhxdHkJ7RYPx8XRlwcfY056VOiqx+ruJEcmhYtGgRf//733vlbRQhwkAwoOI0mUw9FpvBYGDSpEndBgY7GyqViujoaO644w62bds2aLtxESIwkOKU6anTt1arJS4uji1btoQX9QqtVsuoUaPYs2dPj8MpRogwEAy4OHvqVicIAnq9np07d3awKvYGQRAwGo3cddddvPnmm51aHiNEGAwMuDh747VjsVgISHFJzwe1Wo3NZuPSSy8dNCkcIkQIZ8DF2dOWE0mcSHOW54tGo2H8+PG4XC62bdt2Xq1xhAgXggEVpyCFiejpahOTyURjYyOnT58OL+o1guRofuONN7Jnzx5OnjwZEWiEQcWAihMpNm1tbW2PLKcajYa0tDTWr1/fo/27I3T8+fHHH1NRURERaIRBw4CKUxAEEhISqK6u7pHYNBoNmZmZFBQU9Nk8pSAI2Gw2vvOd7/DWW2/R0NAQEWiEQcGAizM+Pr7HHjsajYb09HRmz55NTU1NePE5I1/HLbfcwssvv0xTU1NEoBEGnAEXZ29bzoyMDKZPn05xcXF48XmTmprKrbfeyrvvvhsRaIQBZ8DFGRcXR01NTY/EqVKplEzXe/bsCS/uE9LS0vje977H888/T1FRUUSgEQaMARUnUiKYnnoJIbWeJSUlFBYW9uq43qDRaLjnnnt4/fXXOXToUESgEQaEARcnklNAT9FoNJw5c4YFCxZQVFQUXtxnOBwOfv7zn7N582a+/PLLPjNARYjQUwaFOM+2tjIcrVZLaWkpixcv7pP5zq4QBAGLxcLdd9+NVqvl6aefPi+n+wgRekvPVXEB6U3LGbrv0aNH25X1NYIUpmP27Nl885vf5J///CeHDx/ulVfTUESUwprIEf7kNOwulwun09lnH5fLpYQmkSMJRoYQ/48Bi4QgEwwGef7551m+fHmHwFOd4XQ6leSy//rXv/jlL3+puPX1FZ1FQvD5fDQ3N7Nz505OnjzJ8uXLsdlsg3oxcDAkIp0YEvSrtbWV+vp6GhsbaW5ubmeMk8ON6PV6Jaq5HJGur6Och8YQkv+WXwhIL0eka9JLCYCjo6NxOBzt4gSppCRJ6pCMYkMV52AIUyITDAZ55513mDNnDqmpqd0+XI/Hw9q1a8nJyaGkpASz2cyMGTPCdzsvOhMn0rW63W5KS0vZuHEjsbGxXHbZZUp0Nxmv16vEu+nufs6VoBRZT3bad7lcVFVVUVdXp1RulZRBS37pyT+1VqvFaDRiNBq7fCGGXrf8/wtxL/I1hf8bjrzgwePx4PF4lJeNXOaXorXLLw858l5cXJzyOwwFAQ8qcYqiyFdffYXJZGL69OnddnEDgQB5eXn4/X7S09N5//33+fa3vx2+23nRlThl5HApR48eJTc3l6ysLGbOnInVakUQBFpbW3n77be57bbbMJlM51wZ5O5lQIo/W1dXR11dnSJK+YMUKUJOhitXUEEK8xHe2oVuP9dr629kMYaKMrTqBsPSVvh8PhobG2lpaWn3DOR7NxgMxMfHK89LjkI40Aw6cR47dowTJ05w3XXXoekma5MoRYQ7ePAgs2bN4vHHH+fBBx/sUAHPh+7EiXQdPp+P1tZWcnNzOXLkCGPHjmXixIlYrVb+9Kc/kZiYyJ133tmhZe0M+XyiKNLU1ERjYyPBYJCmpiacTieiKBITE0NsbKzy9g+vdF+H6HQ9RQwJOC0jv+SQemCVlZW0traiUqmw2WyYzWY0Gg0xMTGYTCZFtN39dn1JqDjVDz/88MPhO/QnciXbvn0706ZN6/btJQgCPp+PvXv3kpOTQ15eHvHx8X06/isrKyMuLq7LLh8hYjAYDCQnJzNq1ChaW1tZtWoVTqeT9PR0XnjhBQKBAKNHj0an07W7Prkr1tbWRl1dHdXV1eTm5pKXl0cgECA2NhaDwUB0dDQJCQkkJiYqAaHlZK/y234odNf6G/nFFfp8NBoNWq0WrVaLXq9Xnm18fDxWq1VJ8nvy5ElOnDihOMc4nc4OLe+FwufzsX79epYtWzY4rLXR0dE9XpkiU1FRgVqt5tJLL2Xnzp29OrYvEaSlZ9HR0UyZMoV77rmHjIwMPvzwQ8rLy1m5ciWvv/66EvvV5XLR2NjIsWPH+Pjjj9m3bx/BYBCTycT48eOZMWMGmZmZShxXg8GgCDIiwL5DbhXlMbnRaMRisWCz2Rg3bhwzZsxg5MiRaLVa/H4/mzZt4uOPP6agoICmpibcbjf+C5yucVCIUy1FE+/pjQqCQHl5OYIgkJaWRklJSY+PvZDIrf6LL77Inj17UKlU1NfX89Zbb/Haa6+xZs0atm/fTlNTE1FRUcybN48JEyZgs9mwWCyKEPu7KxXh/yFIUeNlwVqtVux2OzNmzGDevHno9Xrq6+vZuHEj69evp7GxEY/Hc0GEOijEiZSur6cIgqCE55ffgPK4bCDx+XwUFBRw5ZVX8pe//IUVK1Zw99138+CDDzJ37lymTZvGpEmTcDgc2Gw2DAbDOQXIjtC/yL0jg8GA3W4nOjqaadOmMXHiRKqqqjh48CBffvklra2t+KScqn3BkBSnWq0mOzubhoYGBEFg1qxZgyLUiFqtJicnh9jYWGVMc8MNNzB79mwyMzOxWCxotdpIqzjEkcVqsVgYNmwYI0aMYPz48Zw+fZodO3Zw9OjRPhHpoBGnyWQK39QlarWaUaNGUVdXh0qlYsqUKRw8ePC8H8a5IkpZkY8dO8bOnTux2+2MHTuWjIwMxQIY4eJEkDKbWSwWMjMzGTt2LHq9nu3bt3P8+PHz6u4OGnHabDaampp6dCNqtZqRI0cqqRy0Wi1Wq3VA3OpEUaSyspKvvvoKg8HAhAkTiIuLQ6PRtDPny3OjPbk/GbGLfJrBYJCWlpZOyzpDPk9P9++M8z0+HFEUlbFad4R/d/jfoQQCAZxdBCo/23GdlTmdTmUeuSfILWpiYiITJkxAq9WycePGcw5/M2jEGRsb2+P1kyqVivj4eCWVgyAITJgwgZ07d/bqYZ4vwWCQU6dOkZ+fz5QpU0hISECtViOKIu+//z5vvfUWb775Jm+99RZr1qzhxRdfpLa2Nvw0XfKvf/2LxsbGdttEUeTUqVP861//6tGz8vl8HD16lJdffpmGhobw4rMiex0FJZe/1atXn/PqHJ/PR0VFhfL7tLa28thjj/Haa691EEU49fX1rFmzRvF8cjqdrFq1qkNmdL/fzzvvvENubm677TJvvvkm5eXl4ZvxeDy89tprHZ71yZMnee2115Tv7Q1qtZrExEQmT55MUVERp0+f7tHvFcqgEmdhYWGPb0AQhHYVffr06Xz11Vc9ehP3BYFAgPz8fLxeLzk5OR0MOwsXLmTWrFmsWrWK6dOnM2/ePL7xjW8oKeMbGhooKyujvr6elpYWSkpKOlSCgwcPUl5eTllZmeJ/6nQ6KS8v5xvf+AaCIOB0OikpKaGioqJDJff5fBQVFZGfn8/hw4dxuVy4XC7OnDlDSUkJW7Zswel00tDQQHl5eYdwMUeOHOHf//43ZWVltLS0kJeXR2lpKVVVVQQkf1352uUVOy6Xi6KiIurr69tdT1lZGf/617+U+2xubmb+/PmMGjUKr9dLc3MzDQ0NFBcXd4hL3NLSoqzfbWpqoqmpiRMnTlBeXk55ebniXFBTU0NUVBRjx44F6f7PnDlDWVkZgUCAY8eOKX+Htq5+v5+jR49SWVlJSUmJEg0yLS2NpKQkxSHE7/fT3NxMeXk5tbW1Sq+otraW0tJSGhsbO/yGWq2WsWPHEgwGOX36dK8ajwF3Qghlw4YNzJo1q0djNL/fz8aNG7nkkktAelMVFBQwfvz4DkLpLT1xQnC73VRUVJCWlqZMocgIkpO4IAh88cUXfOMb3yA6Oprdu3dTVlaGSqXivvvuIzo6mt///veUlZVRWlrKjh07mDFjhjLhvWrVKo4fP05VVRVHjhwhKyuLp556CrfbzaeffkpGRgb79++noqKCTz/9lLa2NkaMGKEYnFasWEFpaamSanHu3Lk8+eSTVFVV8dJLL7F9+3Yuu+wyvvvd72I0GnnuueeYNm2a4tCxa9cuDh06hN1uJyYmhjfeeIO2tjbWrVtHdHQ0KpWKu+++m2HDhvGXv/yFefPm8eCDD6LVannmmWeYO3eu4r547Ngxtm7dis1mIy4ujtdff71dmNOVK1fy8ccf4/V6+eijj1iwYIFyHw0NDZw4cQKDwcCbb75JTk4O77//PmVlZcoqoeTkZFavXo1Go+Gpp57i6quv5o9//COVlZXU1NSQnZ3N559/zr59+2hqamLTpk1Mnz4djUaD1+tl7dq17N69G6fTydatW5k1axbvv/8+er2ep59+miVLltDc3My9996L3+/nzTffJD09nerqah5++GEMBgOPPPIIs2fPJioqKqQ2/P/1wWQy0dDQoCQj7grfYHNCAIiKiup131xOsY70ACZPnszmzZsveOvp8/nYvn07iYmJHYQpI3ulyF4qKpWKgLQMKxAIMHnyZBYvXsy4ceNYunQp3/rWtzh9+nS71katVvOjH/2I66+/nurqaoqKinC73dx8883cfffdvPTSS0ycOJF9+/ZRXV3Npk2blOPdbjfr16/nuuuu44EHHsBms1FdXY1areamm27i5z//OVlZWWg0GrKysvjmN7/JlVdeyeHDh5VzZGdnk52dzbx589DpdIwYMYLbb7+dyy67jL1795Kbm0t6ejoVFRUkJiaydetWYmJiuO6667jzzjtZtWqV0pKkp6eTnp7O/PnzaWxsZP/+/YiiiE6n4/nnnycQCPCd73yHG2+8sdOwNbt372bjxo3cc889GI1GkpOTueuuu7jmmmv46quvEEURrVbLpk2bOH36NIcPH6akpIRbb72Va6+9Fr2Ulfu73/0u1113HYFAoF23WKfTce+993LDDTeQn58PQHJyMlu3bqW+vp5Dhw7h8XgYPXo03/jGN1iwYAHHjh3j6NGj3HXXXSxZsoThw4d3WffUajXx8fEcPHiwQ+vaFYNGnBqNBqvV2uFH6QpBEHA4HO2iv48ZM4ZNmzb1+ObPFbkL1ZvpH6TxItK1W61WDAYDJpMJo9GIwWDocN0ajUYpk48PBAJopRTxXq+X3/72t9x000384Ac/oLW1VTlWpVLh9/vRaDRoNBqCwSCCND8sb5Pd1WQHCKPR2G5MqdFolJeLIC0+NxqNaLVa5Tpkwd11112MHz8et9uNXq8nEAi0e3HJLyu15EZnsViYPXs2V1xxBQ8++CCCIGA2m9Hr9Z2+oFNSUsjLy1OMgPL16nQ6fJKTe0NDAz/72c/Izs4mIK1i0Wq1iuukRqPBZDJhMBgQpHT2Mmq1GpPJpFy72+1m1apV3HPPPVx11VW4XC5EUcRqtSrPIBgMotVqaWtrQ61Wd2vQ1Ov11NXV9bhrO2jEieTG11NUKhXZ2dlUVVUp24xGI1OmTMHr9Z71IfUFBoOh24eskpZsyZVUK/l1ajQapYLodDo0kkdQ+HSSwWBQKrNWWgKVlpbGY489xiuvvMJ3vvMdxowZw+rVq1m7dm27da1arZY77riDZ599lhdffBFBCv8ZFxfHE088wdtvv83tt9+OWq3GaDQq1xI6JIiNjSUvL4/nn38er9ervBS0kgfN2LFjycvL4+OPP+ajjz5Cp9NhNpv5xz/+wSeffMLVV1+tDFHkdI/PP/88Wimb+apVq/j0008pKipSvlt+DnKXVr6XlJQUfv7zn7Ny5UpKS0uV56qW/JsNBgMHDhxg5cqVNDU1YbFYmDNnDo8++ihPPvkkHo9H8b5Sq9VotVrld5HvSX4ZmUwmtJLb3qpVqzh69Gi730H+XfV6PVOmTGHdunU8/fTT+P3+di+kcILBoPK794QBX5USymuvvcaNN97YoZJ2RiAQ4MiRIzQ2NrJgwQJle35+Ptu2bePWW29Fp9O1O6andLcqJRAIUF9fT0NDA4mJieHFCj4pioBOp0On0+F0OpW3rcfjwWw243a7lVasrq6OmJgY5cdrampSWme/36+0ljU1NVgsFiwWC8FgkKqqKux2O4IgtDu+ubmZ2tpajEaj0mJ4PB5qamqwWq3YbDbUajWtra04HA7cbjdByc9XbmWbmpqUiilXSrlrrtfraWlpoa6uDrvdjt1ux+l0Ul9fj8lkUqaUkJ6ZPP1jNBrx+/1KK2i329u15uHPQe5+CoKgvHjlF10wGMTj8WA0GqmurlauKzo6GqfTSWNjI2q1moSEBFwulyJqn8+nfJ/f78fj8SjXILtXVlVV4XK5MBqN2O125YWv1+sVo5XP5+PkyZN4PB7++c9/8tJLL3XZyNTV1aHX6xWrfmc4B9OSsVA+++wz5s6dq6yLPBuiZCn8/PPPuemmm5TtHo+Hhx56iN/85jfY7fZ2x/SU7sSJtKB6w4YN5OTkYLPZwosvKKHdY/nvrp5X+L5dbTsfws8nd6G7O3/4cedLZ+frbFtvONuzRbIkf/DBBzQ1NbF48WJGjRrVqfBaW1vZv38/l1122VkNjaHiHFTd2qioKEpLS3vUJRUki2j43JRer+emm25S3qIXCo1Gw8KFC5XWu7Nx0oUivOKfrfKE79vVtvMh/HyqHi7iDj/ufOnsfJ1t6w3dHWsymbj55ptZvnw5I0eO7CDMYDCoGMAWL17cbtjQHYNKnA6Hg/z8/B6LShCETpPfZmRk8NZbb53zhHlPUEmxdRYuXEh5eTlFRUX9MtaNMLiQx7wmk0npwiO1uF6vl+LiYsrKyliyZAkGgwFVLxbD93zPfiAqKqrXE7WdiTMqKorU1FSqqqouqFgEqfWeOnUqKSkp7N27l4aGBvyRKHJfW4KSq2ZNTQ379+8nOTmZadOmoZfmvXvDoBJnb1tOJEteuEBVKhWXXXYZhw4d6jA90dcI0vq/2NhYFi5cCMChQ4coKipSDCcX8gURYeARQ0KJnjx5kmPHjqHT6Zg/fz4xMTGKFbq3DCpx6qVwjD1tdVQqFRkZGZ2OU+Pi4sjLy+vTbGTdYTAYlCxosbGxlJaWcvDgQRoaGghILmbh1xlhaCJKixr8fj/V1dUcOHCA0tJS0tLSmDFjBmlpab2aNumMQSVOQRBITU3tcQVWqVSMGDGi07QMer2epUuXcvTo0V61xH2BwWAgJSWFcePGMXPmTNra2jhx4gTHjh2jtLS0nVB7eq8RBhb5t5K7rUVFRRw7doyTJ08SCASYNWsWOTk5DBs27KzW2N4wqMSJ5AnS0worCAKZmZldhilJT0/nxIkTvV6N0VdoJI+UcePGMX36dCZNmoTZbGb//v0cPnyYwsJCqqurIy3qIEaU1uqWlZVRUFDAwYMHOXToELGxsUyePJkZM2YwevRoTCZTB0vt+TIoxdnTlk6QvEm6Wr9nNpuZMmUKe/fuHfDKLwt1+PDhLFq0iJkzZ5KVlYUgCGzbto1t27ZRVFREeXl5hyjsEfqPQCBAXV0d5eXlnDp1ik2bNrFr1y6ioqIYMWIEl1xyCYsWLSIpKQmj0djnggxl0InTbrdz5syZHgsU6YF2hiAIjB8/nuLiYpqamsKLBwRBCtmo1WqV1fNXXnkll19+OVlZWSQlJVFXV8e6detYu3Ytx48fV1InuFyuHo/HI5wdv99Pa2srDQ0N1NbWsm/fPtasWaMsHkhOTmbMmDEsXbqUyy+/nISEBMxms2LcOZ+xZE8ZVB5CAKWlpWzbto1vfOMbPeq7BwIBnnjiCX7+8593+hYLBoNs27aN5uZmli5d2qOH2hMPoQuBLDx5fCNKc2UBKbJ7YWGhsobUbDaTmZlJQkKCck+y32hP7vFiJyjlifFLYULkceKZM2cQRRGbzcbo0aOJj49XLO4aycc5/NOfDFr3PSR/0ieeeIIHHngAs9kcXtyBQCDASy+9xE033URUVFSnD7OpqYmVK1dyyy239Milb6DE2Rmh41HZIEFI7hDZ8cHj8VBeXk59fb1yjMlkIjY2toMvp9x6q4dQhHj53juzere0tFBVVUV1dTUejwe1Wq0E34qLi1Pu1yjlhpE9mELF11OvpgvNoBan3+/nBz/4AY8//niPhBQMBvniiy+Iiopi6tSpnVY2v9/PwYMHOX36NDfffHOn+4QymMTZFaGtq/wThluA/X4/LpeLtra2dpXZL0Wab2lpUZZCyedEEq/FYsEkpSQwm81K5Q71gjkfRCmSeiAQUJa6OZ1OPFK6QcJc5zTS8jmTtMRO7iEIIWErZYf90I/8W4f/PVgZ1OIEeOihh7j33nuJi4sLL+qAKIoUFhayc+dObr755i4rT0tLC++++y7XXHNNt+cdCuLsCbJQw8ep8rZwcYeWe6RsXkFp1YcodbFDu97niiw6uRWTvWfkZWOd+Z92JrjQstDWcCgz6MX52muvsXjxYpKTk8OLOsXr9fLkk0/ys5/9rNMfFqkbWFBQwNq1a7nnnnu63I+LSJznQ6hw5SpyIapKqKBCBfh1ZdCuSpHJzs7uldudvAD2bKjVapKTk0lNTaWkpCS8OEIYcmskr+XUhCQB6suPbMSSx79fZ2GGc/YaPUAkJyfT1NTUoTt2Nnpi2TUajcydO5fnn3++gz9uhAiDjUEpToPBQFFREf4ugiV1htls7nK+U0YQBGw2G/fccw8bNmzodv8IEQaSQSlOk8mkrOroCYIgkJiYSEFBQbetrU6KyF1cXKzMeUWIMBgZlOI0GAycOXNGCe7bE9LT0zl27Fi34kTq3t5555288MILSjDkCBEGG4NSnFqtlri4uC59ZjsjLS1NWSHQHfLc3fLly3njjTd61X2OEKG/GJTiRAo10hujjexN1NNuqkajYfjw4QwfPpzPPvusRy1uhAj9yaAVZ2ZmZq9aTqQ4q71Bq9WyZMkSysvL2b17d0SgEQYVg1acCQkJNDQ09EowMTExvdofSaDf+c532LZtGydPnuz18REiXCgGrTjlIMG9MQolJCT0OI2gjCAF6frhD3/Ihx9+eMGDgkWI0FMGrThNJhNVVVW9Cm+ZlJTEgQMHem3gEQQBo9HID3/4Q1544QXq6up6JfAIES4Eg1acer2etra2Drkaz0ZSUhKHDh3qkcU2HNlB4Sc/+Qlr1qxRgnJFiDBQDFpxqtVqUlJSehX/x2AwYLPZzrlbqlKpiI6O5pZbbuH111/n9OnTvW6FI0ToKwatOJHmLsPTLZwNQRBIT08/Z3EiCVSn0/Gtb32LrVu3sn379l51rSNE6CsGvTgbGhp6Jbbhw4f3SVoEu93OjTfeSGVlJWvXrqW1tfW8zxkhQm8Y1OI0m820trb22McWaa7zXMedoahUKmw2G1dddRUOh4M333yTioqK8z5vhAg9ZVCL02Qy0dra2iujUHx8PDt27OiVoLtCkDJQz5gxg6uuuor//Oc/HD9+HLfbfVG0oqKURsDv9+Pz+Tp83G63Es5EzhxdV1dHTU3NeX9qa2uVqILNzc20trbicrnwer0drsMnpbWQozd8XRiUkRBk/H4/L7zwAjfffHO3oUVkAoEAP/nJT/j73/9+zpEMOouEEAgEaGpqUpwVvv/972M2m7sMizKQBIPBdlNBohSWJLRyi6KoJACuqqpSEtvKZYCSZl6v12OxWBSf5L6657a2NgJSUt1gMEhrayutra34/f52i65lQ11iYiJxcXEYDAYIiwsUGkEhdNtQY9CHKQnlnXfeYezYseTk5IQXdcmKFSu47bbbusww3B2diROp0rrdbioqKvjggw+YOHEic+bMQa/XdxqW80IhhoUQkcWHlGm5rKyMM2fOKLF/9Ho9NpsNh8OBWq1GlBLChkY56Oz6wyt+6KcvCL/+0L/DkVt3v5TBTb6G0JYdScgxMTFkZGQoAeLCxTqYhTukxLl9+3ZcLheLFy8OL+qSbdu2kZ2dTUJCQnhRj+hKnDLBYJC2tjaOHDnC1q1bmTZtGrNnz0ar1Xao5HI68/DtPSVchKIUg7WgoIDy8nIEKeq97Pgf+rf8nXK4ETli3cVEUEomFNor8Hq9OJ1OxbvM5/MpEf50Oh1paWnExsZ2KtqBZkiJs7i4mO3bt3Prrbf2uGIVFBRQW1vL1KlTz0kU3YlTJhgM0tLSwq5duzh27BgjR45k4cKF7WKj5ufnU1VVxfTp09GeJaiYTLgQ6+rqlMS8KpVKEVpUVBRWqxVBagG155hm7uuAPK4OSnFvGxoaaG1tbSdGo9FIdnZ2u+fYl72EnjKkxFlbW8uaNWu4+eabexQnCKC+vp63336b7373uxiNxvDibumpOGVEUaSlpYX9+/ezb98+kpKSmD9/PomJidTW1vKLX/yCO++8kyVLlnT6spB/gkAgwJkzZxQjic/nw+FwkJiYqATDkqOSRzh/5FbX7/fjdrspLi5GFEUsFgt6vZ7k5GQcDkc7sV5oQsWpfvjhhx8O32EwIYoiJ06cIDMzUzEEdIdWq+Wtt95i3rx5PT4mlLKyMuLi4nr8MhAk5/n09HSmTJmC1Wrlgw8+YO/evajVavLy8nj//fdJTU0lIyND+ZFFUaS5uZkzZ85w9OhRjh8/jt1uJyYmhmHDhpGamkpsbCx6vV7pMvdHBfm6ENrrMBqNDBs2jMTERCwWCwaDgfz8fI4ePYrT6cTlcmG1Wi9419fn87F+/XqWLVs2uKdSkFzy1Gp1rxZeazQaRo0a1atj+gq9Xk9mZib33nsv3/72t9Hr9VRWVlJVVcX//M//sGHDBtra2igpKeGTTz7h8OHDWCwWxo0bxyWXXEJiYiImkynSTR0g5Bet2Wxm7NixzJ49m2HDhqHRaPj000/ZtWsX1dXV/eLWOejFqVariY+P73Ws2alTpypGgP5EkIwMXq+X0tJSnn76aQoLC1Gr1TidTv7617/y0UcfodfrmTNnDjk5OUqaA3mMExHlwBL6O6ikiPRWq5X58+eTmZmJy+Xio48+orCw8IK6dg76MSfAkSNHOHr0KLfcckt4UZeUl5dz8uRJ5s2b1+t5ud6OOcPx+XycPn0ao9GI3+/H4/Gwa9cuMjIyGD58ODabrZ0YIwwdxJA5Y4/Hw4kTJ5RwN72tZ50x6CO+hxMXF0dNTU2vXOcsFgsnTpy4oG+2rtBoNIwYMYKEhARaW1tpaWnh8ssvZ8KECURHR6PVahFDvHP8UsKhsrIyxTjUHaKUcbmzZxIMBikpKem0rDNEKQ/K+SBK+VUuNC6Xi9ra2m7vTbZ2y8jPOvz5ys4PPc3fGjpONZlMTJw4EZVKxYYNG3odVqc7hoQ4DQYDVqu1V258JpOJ+vr6ARl3yq3hnj17FBO9xWJBK6WN8Hg8PPLII/z3f/839957L7/73e949dVX+fjjj6muru5QgTrD4/Hw9NNPd7pqZ8eOHZw+fbpH5/F6vbz77rv86le/orq6ul1ZZ5U5lLq6OrZs2QLSeZ577rnwXfoclUrFmjVrKC4uDi9SEEWR/fv38+GHH3Lw4EGCwSBNTU288847HV5CTU1NPP/88z2a5gpHpVKh0WhwOBxMmjSJo0ePUlNTE77bOTPorbVIlf3MmTMkJib2KGcn0oOrq6vDZDL12PVPprfW2s44evQocXFxREdHo9FoOlj5pk6dSk5ODq+++iqPPfYY48ePx2Kx4HQ6UalUnD59ms2bN+P3+6mqqmL79u3ExMQo9+92u/n4448xmUwcPHiQmJgYLBYLpaWlrFu3jqioKNLT0ykrK2PDhg2UlpaSmJiITqeDEEvxhx9+iN/vJz8/n2uvvZaKigo+//xzTp8+zeHDh0lOTiYvL4/du3dTW1tLQkICGo2GQCDAli1bWLVqFXq9nmHDhvHBBx8gSHO76enpNDU1sW7dOvLz80lOTkaj0VBYWMi6detwOp3ExcUpU0s+n4/9+/eTm5tLUVER6enpBINBtmzZwoEDB2hubsZms9HU1ERRURGFhYUMHz6csrIydDodarWa/Px8RFHEaDTy5ptvUl9fz4EDB1Cr1ZjNZnbs2EF1dTX19fUkJCTQ1tbG+vXrQYr2qNfrOXDgAIcOHaK4uJjhw4cTDAbZvHmzcg12u71dvZDHpWq1GpvNxvHjx3E4HOc0S8BQs9YieXVERUVRWVkZXnRWJkyYQG1treLa1l+0trZSWVnZbmwZikajwWazERUVpcTodTgclJWVUVxcTGFhIc899xwpKSn86U9/Yt++fQiCwKpVq/CFOPT7fD7y8/Ox2+28+uqrBAIBHn30USZPnszRo0c5cuQIZWVlSjT89evXK8/C5XLxzDPPEBMTg9frxev1otVqeeyxx0hMTGTv3r3s3buX+vp6nnzySSwWC5988gknTpxQvl82ZMXHxyOKIidPnkSr1bJnzx727t3LY489hkajweVy8cknn1BbW8vLL79MfHw8GzZsIDc3VzmX1+vl73//O0ajkS1btpCbm8v+/fvZuHEjSUlJ/OMf/6CqqoqmpibS0tLQ6XS88MIL1NfXs27dOjweD0888YQyJqytrSU2Nhaj0UhMTAyiKJKbm4vdbmft2rUcPXqUtrY2YmNjGTZsGL/+9a9pa2vjb3/7G0ajkU2bNnH48GH27t3L5s2bGTZsGH/729869C5kBCk79pgxYzh9+nR48TkxJMQpCAIxMTHtKkZPsNvtVFZWdujKXGjq6+uZNGlSrw0EXq9XMSBNmDCBnJwc4uPjmTJlClOnTqWpqamdODUaDUuWLGHGjBkUFRXR1NSEx+Nh5syZLFiwgM8++4yWlha2bNnCsWPHOHnypDIF0NLSQm5uLjNnzuQb3/gGer1ecUCfMWMGV155JWazGb/fz6hRo5g8eTJjxoyhrKwMpJ5JfHw8iYmJjBs3DrVaTUZGBnPmzGHKlCns3buXjRs3UlRURFlZGYcPH6agoIC0tDSmTp3KrFmz2Lhxo3IvgUCAYcOGMXPmTCZPnszJkyfZt28fN998M+PHjyc5ORmfz4fH42Hnzp0cOHCAwsJC4uPjWbVqldKqOxwO8vPzSUlJITExkdTUVEaMGIFarWbcuHFMmzaNMWPGKBkF9u7dy/bt2yksLKStrY2kpCTlGvLy8ti3bx833XQTEyZMICkpqd3zD0cej5aXl4cXnRNDQpxI6zRPnz7dq1bQYrFQWVmJy+UKL7qghBsjzgWz2Yxer8dgMGAwGJSuVOj9q9VqTCaT8hIwGAx4PB68Xi+tra3Exsby97//nWXLlnHZZZfh8/mU4zWSt5HP56OtrQ2/34/BYFCWbbW2tpKcnIxKpcJkMqGXnPvl+5Irok9a0iV/v3zNgrTcbuHChVxzzTX88Ic/xOFw0NjYiM/no6mpiZiYGOVeVCpVu+P9fj8xMTHk5+fjcrmUCv/WW2+xYMECrrnmGnw+HxaLhcWLF/Pcc8+xdOlSBEFg/fr1LFq0CKPRiMfjwefzIYqich8ajQZRFNm2bRuTJ0/mlltuIRAIEAgEOr2GgoIC5RrCe0EXkiEjTqPRiM1m65VFUK/Xk5iY2Gdvsp4SExPD5s2bu7UoqtVqZbpGEASlYsjLtFTSEi0547PskCEfazAYFM8hm82GwWBgzpw5/PCHP+TFF1/klltu4Y477uCvf/0re/bsUdLII4n/vvvu4+677+af//wnMTEx6PV6pk2bxj333MPrr7/OTTfdhNlsVr439CWBdJ/V1dX84Ac/IBgMYrPZQHruDoeDBx54gP/93//lf/7nf9ixYwcJCQlERUXxgx/8gI0bN3LVVVcp5wp9FrI4FixYwJYtW7jvvvuIiopCpVKxaNEiHnvsMd5//32sVismk4mFCxeyefNmRo8eTTAYpLy8nNGjRzNmzBj27t3Lr3/9azQajfJM5fvIycnh6aef5oknnsBut6PT6Tpcw6JFi9i0aRM/+9nPiImJ6WA7CEXuUg8fPjy86JwYEvOcSAaQ9evXM3v27F5Fdj9+/DjFxcVcccUVPX7rne88pyiKFBcX4/P5iI2NVQQVTiAQwO12K0YeufstSku6tFqtsqoFqdWUjUvBYBCfz4daSjrrcrkwm8243W4aGhowGo1YrVY8Hg+tra2Ki5pOp1MqmMfjoampCa1Wq7wUPB6PcrzNZiMQCCCKotLKClJ6+NDr9/v9WCwW5V7klgqgubmZQCCAzWZDr9fjdrtpaWnBYDBgsViUZxMMBnG73ZhMpnarSbZt24bBYOCZZ57h2WefxWKx0NLSglqtxmg0EgwGWbNmDXq9nquvvppAIMDWrVtZuHAhouTzLFtV5X/l+0Dq3stGJJ1Oh8/n6/Qa9Ho9zzzzDM8//3y7Fl9GlKa2tm7dyqWXXnrOdWdIOb7LBINBDh48iFarZfz48eHFXVJTU8OGDRu4/vrrlUrVHecrTqQfNS8vD6/XS3p6OqpBvIZwsOKRnDecTic5OTkkJiZ2GMfX1tZy+PBhpkyZoqzf9Pv9HfY7V0KvYfz48Yq1OhRRmifevXs3M2fO7FXjEc6Qc0JAGpPY7XYOHToUXnRWrFYrTqez3135tFotI0eOxGKxcODAAdra2s57HPp1Q6/XM3/+fK688kpSUlI6iALJFrFo0SJFmEjj6b4i9Brk6SAZUXIkKS0tJT8/n3nz5p2XMMMZMuJEEtqRI0d6VckNBgPx8fEUFRWFF11wtFot2dnZijX12LFjOJ3OXl1/hMFJMBikqqqKI0eOoFarmTJlijLm7iuGlDgNBgMxMTG98hQCGDlyJHl5eeGb+wVBELBYLMyYMYNx48Zx/Phxjhw5EsnJMkTxer2UlJSwd+9e/H4/06dPZ9SoUT0eMvWGISfOKVOm0NzcHF50VmJjY/F6vf0+pRKKRqPBarUyb948pkyZgkqlYt26dZSUlNDY2BgR6iDG5/NRU1PDvn372LVrF0lJScybN4/Ro0ej1+svmC1hSIlT7ib2totqsViwWCyd+qH2J4IgoNFoMBgMpKenc91115Geno7L5eLjjz8mNzeXlpaWdtbOCP2PKIo4nU7q6upYv349W7duJTY2ltmzZ3PFFVfgcDgUq/eFEiZDTZzyXOC2bdvCi86KRspivW/fvvCiAUGewJdXNmRlZXHzzTczceJEdDodp06d4osvvuDw4cM4pUBVvXG+iNBz5CkQeQrq888/57PPPqO1tRWbzcbSpUtZunQpFil0iTwlcyFFKTOkxInUtT1y5Ei3E/yhCIJAWloaBQUFijfLYECQnKY1Gg06nQ6z2UxUVBRTpkzh6quvZuzYsfh8Purq6ti7dy9btmzh1KlTuFwuPB6P4ooXoWcEg0G8Xq8ixF27dvHFF19w5MgRXC4XarWaq666iuuvv57hw4crDuyyo0d/CDKUITPPKeN0Onn11Ve56aaberXaxOVy8fnnnzNv3rxOJ5FD6Yt5zr4gKC3qDf00Nzcraw/b2tqUSX673c6wYcMUw4T6Ig2F2R3BkFCZgBI02+12o9VqFcHpdDqio6MVryH5WQ30MxuSTggyfr+fgoICvF5vrwJNB4NBDh06RF1dHUuWLAkvbsdgEWdnBELSEgSlUI9Ini719fVKxfRLQZjln1ev12O327Fare08lkIr5EBWyrMh36t83zKyh1NTUxOi5FUlj+uR7k0OmKaV1tJ29hlMDGlxipJL1meffcatt94aXnxWampqeOGFF3jwwQfRnmVx7WAWZ1fIQpV/TtmRW/7b7XYruUnk7aHdak3I0jb5GEFy1ZMtkvK6ybM9u54SlNwP5a6m/K/sNof0/YTci/zikbcbDAaio6M7ONCHtn5DrQcxpMWJtF7yT3/6E3/5y1969dBdLhfr169nzpw5Z/XkGIri7I7QrnHoTy6LOnw7kkjl/CVBKcq9T0pwFL5vb5BbOIvFgiAISnR6i8XS6WJ6uYULF1lo69ebejCYGfLidDqd/OMf/+C+++7D4XCEF3dJMBiksLCQ/fv3c+ONN3b5g16M4jwXxLA8JkjPsC+qjCzQ8M9g62b2N0PStzYUrVbL4sWLex0uU6VSERcXx65du3rtZfR1RBaLRqNBq9Uqq1cM0hrT8/no9XplKZxGyiXzdRdmOEPyaWg0GiZOnHhOLnkGg4H/+q//6rWwI0Tob4akOAXJInfq1Kled7F0Oh3Dhw/nxRdfjMwTRhjUDElxIgnUJ4XY6C1Go5H58+dTUFAQXhQhwqBhyIpTrVYzb968Xgf9QprzW7RoEW+//TbBiFtchEHKkBWnRqNh+vTpHDt2LLyoWwQpWc2UKVPYvXt3eHGECIOCIStOQYqxU1FREV7UI7RaLYsWLVKcnCNEGGwMWXESYuo/l6VggrTC5Yc//CEvvPBCrxzpI0ToD4a0ONVqNQsWLGDPnj29ttoiHR8bG8sll1zCSy+9FLHeRhhUDGlxqlQqcnJyOHny5DmJE2nsOnnyZDIzM3nrrbciAo0waBjS4hQkZ+zzCZolG4fmzp1LTExMh3wkESIMFENanEjiSkpKori4+JwFijT3uWDBAiXRTSRUSISBZsiLU6VScckll7B58+bznrM0m83MmzePzMxMPvzww/NqkSNEOF+GvDgFKQRJdXX1eYsTKRjYmDFjGDFiBG+//TZNTU19ct4IEXrLkBcnUuvpcDjwer190tKpVCpGjx7N4sWLWbFiBdXV1RFDUYR+56IQpyAI5OTksG3btj5r5QwGAykpKXznO9/h3//+N0eOHOkz8UeI0BMuCnECTJo0iR07dvRpC6fRaBg2bBjf//73KSoq4tVXX8XtdvfZC2CwIS+slsOChH78fr8Sl6ivPvI5w79LjszQVwu7hypDMhJCV/zrX//izjvvxGg0hhf1is4iITidTk6cOMHGjRu54oorGDVqVIewGYMZOapB6N+h/7rdburq6qivr2+XdEkUxXbhQOR7lhdG97b6yM/L7/cjCEI7Qcrl8pJAOThXdHR0u+NDn3n430OdIR+mpCs2bdqEzWZj4sSJ57WqvjNxIgWaqq+vZ/369TQ2NnLbbbdht9vP67suBOHCE0WR2tpaKisr8UlTRLIgZNFqtVosFgtWqxV9SIJcQtwk5U+oOM8F+Tvl1lH+hBKUYha1tra2WxYoB+ySryUqKoqkpCQl6Fi4cIcaF6046+rqeOaZZ3jwwQcxGAzhxT2mK3HKeL1eysrKWLlyJSNHjuTyyy/HYrGE7zYgtLS0UF5ejt/vp6mpiba2NoLBIDExMUpuSbllkqOXDxXkl4rcFRZFkcbGRioqKggEAuiljNpyTNr4+PghJ9CLVpyiKPLMM8/wve99r9Mobj2lO3Eivdk9Hg95eXm8//77zJw5k0suuaRdnsgLTTAYpL6+npaWFiorK6mpqSEqKoqMjAwlhGVoyMtQOts2lAivtnJL7JPCbVZVVXHmzBmMRiMZGRkYjUYSEhJQd5FlfLBw0YoTSVhWq5VRo0adc6vQE3ES8iaX08K9/vrrjBs3jkWLFhEfH3/O33825BaxpKSEgoICRo4cSVxcnBIkSxZd+L9fF0K78rJg/VIulH379hEXF8eoUaOUFnawMeSj752NrKwsXnnlFTweT3hRnyN3D41GI1lZWfzmN7/h0ksvZc2aNfz0pz/l+PHjOJ3ODuMpGVEUqays7PZaRVHE4/GQm5vL6tWraWtrIzk5mUWLFpGSkoIhJJ9H6Ljw6yZMQgxEsvFKo9Gg1+ux2WwsXLiQ0aNHEwgEWLduHdu2bTvvGLwXkotOnA6Hg+TkZJxOZ3jRBUOQFn6bTCaio6O55ZZbePjhhxFFkZdeeolHHnmEgwcP0tbWplgl5eMcDgePP/44ubm5nVYSr9fL1q1bOXz4MDExMSxcuBCr1apEXyckMLQ8FvN4PB3OJUrZtCoqKli1alWH8u7w+Xztrh3p2k6dOtVheyjnmyGtJ8fL99bZdYQLVafTYTAYmD17NpmZmZw6dYr169d3+4IcCNQPP/zww+EbhzIqlQq73U5lZSWJiYnn1LUsKysjLi6ug9WyJ8hjPYPBgM1mY8KECYwdO5bW1lb27NnD2rVrqaysxOFwKJbHrKwsfvvb31JcXMykSZMUy2N9fT3Hjh0jLS1NuR7ZiCMIAn6/n7/97W+89957rFq1ik2bNnHkyBE2btzInDlz2o2vKioqePvtt2ltbWXevHkYjcZetayvvPIKZrNZSR4VDAbJzc0lLy8PvV7fbrojlH/+859MmDDhnJ4lwJ///GdmzpzZIQWEx+Phiy++ICUlhWAwyDPPPENGRka3Q5FwsVosFmJjY8nPz0cURaxWa6+eS1/j8/lYv349y5Ytu/jEiRT+8pVXXmHWrFnnNK44H3HKyF1evV6P2WwmJiaGjIwMJkyYgE6n48SJExw6dIhdu3ZRVVVFQkICL7/8Mjt37iQjIwO/309ZWZlizOjKsDNlyhSmTZvGu+++y2OPPcb06dN57733MJlM7N69m6ysLFQqFbm5uRQWFhIbG8uoUaNobm7m8OHDbNy4kebmZlJSUvD5fHz44Yfk5+dTW1tLUlKS8nJbt24dqampmEwmDhw4QExMDMePH+fUqVPYbDbS0tKU6/P7/axZs4bc3FwOHz7M3LlzEUWRzz77jEOHDpGUlIROp+P48eOsXbuW6upqkpOTOXbsGIWFhWzYsAGLxYLD4eCtt97CYrGwY8cOpQsvCALFxcW8+OKLeDweYmJi+Oqrr9BoNOzevZuYmBhsNhvbtm0jOTmZtrY28vLyiI2NbfeyFqQkThqNBpvNRkVFBR6Pp1dZBPqaUHH2vlkZAlitVkaPHk1tbW140YCgVqsxGAxYrVaio6MZPXo0CxcuZNmyZXzzm99k1KhRHDx4kIaGBvbt28dDDz3ECy+8QGpqKjopg3JnqNVq5ZxqtZq4uDiioqKora3F6/Wi1+v59NNPqa2t5bPPPmPGjBkcOHCA48ePU1ZWxrPPPsvIkSN54403KCkp4Z133qGhoQG73c4TTzzRLqlQIBCgvLycl19+GYvFwokTJ9iyZQuzZs3i7bffpqqqCqQu5pdffkleXh7Dhg3j6NGjBAIBXnjhBTweD0ajkf/7v//D7XbjcrkYMWIEhYWFHDhwgA0bNrBt2zZGjBjBihUrCAQCSsrD6OhoVq9ejU9aaytHnk9LS0Or1RIMBikrKyM9PZ2XXnoJURR555138Pv91NXV8eWXXyrHhqNSqdBqtaSlpXH69Gmam5vDdxkQOv/VhzgqlYpFixZx/PjxLn+QgUIen5rNZqxWK21tbbz//vs0NjaybNkyvvvd73Lttddyxx13dNladofdbmfevHlMmDCBo0ePkpeXx4QJE5g0aRJTpkxhz549+P1+xowZw+jRoxk3bhwVFRXs3r2bK664ghkzZmCxWNqN9QKBAE8++SQzZ84kIyODo0eP4vf7OXz4MLGxsUqFFkWRXbt2ce211zJlyhSGDx9OMBhk9+7dzJgxg+nTp9PU1ERLSwulpaVs3bqVyspK9u3bh8/nY9q0aUydOhWPx0MwGFTW2U6YMIGSkhLlhSH3RkaOHInFYkGlUjF37lwmT55MZWUlSAmvRFFUspedbewq93TGjx8/aLIBXJTiBIiKimLPnj20tLSEFw0a5LnS5cuX88QTT/DXv/6Vn/70p8yfPx+r1YpGyjPZW+Q8JAaDgWAwiM1mo7KyEq/XS01NjdK9C81ZEggEiImJoaSkhMbGxg69DkEQuO222/j8889pbm7G4XCQmprK5Zdfzre+9S3i4+OVfaOioigrK8PtdlNdXQ1Sb6a5uVlZI9va2sratWu57rrrmDBhAh6PB0HKOBY6vpTzs8hDDFlg8njd7XYTCARQqVSYTCa0Wq3yQtNoNLS1tVFZWdmpsagz/H5/u7H6QHLRitNkMrFgwQJOnTp11jfmQKJWq8nOziYjI4OUlBSioqIwm81kZGSwa9cu/H5/j6yqKpWKxMRE5e+4uDjUajU6na5dxuv77ruPwsJC5s+fj8FgwOFwoFKpsFqtWCwW7r77bt566y2eeOIJEhIS2n1HTEwMkyZN4vbbb+ell15ixowZ1NTU8Ne//pV//vOfyjMWBIFvfvObvP766/z2t79l9OjR6PV67r//fp588kkeeughrrzySqKjo5kwYQL/+Mc/aGxsJCYmBrvdrnh2xcXFoVKpiI2NVe7FZrMpwtHpdMyYMYPf//73VFVV4XA40EtZqmWj1aJFi/jFL37BunXrlDSDZ8Pv97Nnzx4yMjLCiwaEi84JIZSamho++eQTbr311l45w/fUCeFCUltby5dffsnixYvbtQadEQwGcTqdigthW1sbRqORoOSzKrcwTqcTg8GA2WwmKE3O6/V6pevf2NjIoUOHaGxsZOvWrfztb39TxOJ2u5XKLbdUPp+P1tZW9Ho91pCM2aIo0tDQgCiK6HQ6TCYTwWCQlpYWRFHEYrGg1WpxuVzKNamkbGby+K+trQ2TyYTL5UKv1yNKDgVyiyl3Vz0ej+KAIX+cTidmsxm3201zc7PSQ9BK2a3Dkaditm7dyowZMxg2bFj4Lv3GRe0hFIrP5+P1119n9uzZjB49Ory4SwaDOOUKfuDAATIzM5VW7mwiPR9EUcTlcrF//34AxowZQ1RUVKeV+WJBFrzL5eLAgQNMnz69g0W3v7moPYRC0Wq1zJ8/n0OHDuHvw3We/YEgCERHRzNnzhzcbjcHDx6kpqaG4AVa4ygIAiaTiblz5yqRCAeykl5IZFG2tLSwb98+GhoaWLhwodKVHiwMniu5QCQmJtLa2trBwDFUMBqNjBo1ipkzZ+J2uzly5AgnTpxQojJcCKFejMjPKhAIkJ+fz5EjR6ipqWH27NmMGTMGs9l8wXol58pFL06z2czEiRPZunXrkK3IsiVy3LhxzJgxg6ysLI4cOcKBAwfIz8+nrq4u/JAIITidTgoKCjh8+DD79+8nISGB6dOnM2nSJMxm86BqLUMZnFfVx2RnZytza0MZQQqiHRMTw/z585kzZw4jRoygtbWVjRs3cvDgQcrKyr7WAclEaY1nWVkZp06dYtOmTZw6dYrMzEymTZvGwoULFQ+lwdZShnNRG4RkAoEAO3bsoKmpiWXLloUXd2AwGIR6gtxVkz9+KcZPc3MzBw4cwOl0Eh8fT1pamjIdYTAYup1SGAqIkrVWnuesr6+nsLAQURQZPXo0w4cPRy35OcuGNPkzmPnaWGtDaWho4PXXX+/RQuyhIs5wZEMH0vSKPMby+/0EJfe2kydP0tbWhkajIS0tjbS0NHQ6HaIUK0iejhjoShyQgnzJzgOiKFJTU0NxcTGNjY2oVCrS0tIYOXJkh6mYUCEO1i5rV3wtxenz+dizZw8ej4dFixaFF7djqIqzM2SRyp9Q8crzhPI2p9OpBPlyuVwgiQLAZrMpH9lRPLS8J8iCcbvdeDwe2traaGlpoampSVmyJQsqKiqKqKgooqOjFcHJ3kLyy0Ped6gKsTO+luJEijH00ksv8ZOf/OSsrefFJM6uCBervC1UzKH4fD68Xq8SBqQzn2VRFDu0uJ1tk1tnjUaDVqtFKy0UDyW8BSREuOHnu5j42orT6/Vy5MgR6urqWLJkSZc/8tdBnL0ltPXtTLy9IVRs4QL8uvO1cUIIR6fTkZWVxbZt24a85ba/kVut8BbvXD4aKfKfWgqrEhFm53ytxInkEH/nnXeyYcOGdl26CBEGG187cWq1WhITEzl8+LCy7i9ChMHI106cSEmKfvzjH/Puu+9+bSfrIwx+vpbiVKvVmEwmJYxGhAiDka+lOJGiBSxbtoxVq1Z1MA6pVCoCUrj/CBH6k9Cpp6/VVEo4fr+fgoICtm7dyne+8x1lEjsvL4/c3FyWLVt2zqFCIkToLaIocvz4cfbs2cNdd9319RYn0uT6G2+8wZgxY5gxYwaCIOD1elm7di0FBQXhu0eIcEFJTEzkyiuvxOFwRMQpSqkOHnvsMe6++25iY2MRBCHSpY0wYES6tSGIokhVVRUvvvgiDzzwgBI3J0KEgeRraxAKRRAE4uPjueKKK/jPf/7Tqd9ohAj9TaTlDMHr9bJx40ZUKhULFixAG5afI0KE/iTScoag0+mYM2cOdXV1FBQURBwUIgwoEXGGYTabufzyy1mzZg1lZWU9jhQeIUJfExFnGIKUM/POO+9k1apVlJSURAQaYUCIiLMTZIF+61vfYvXq1ZSUlERWsETodyLi7AK1Wk10dDS33347q1ev5syZM5EWNEK/EhHnWVCr1cTExHDbbbfx7rvvRgQaoV+JTKX0ADn04uuvv861117L8OHDIz63ES44EXH2kGAwSF1dHR9//DGTJ08mJyfngs6D+nw+JaRlhP5DEAQlwt9AExFnLxClaOJfffUVHo+HG2+88YIJ9JVXXiEqKgqj0Rjx8+1H6urqGDduHJMnTw4v6nci4jwH2tra2L17N4cOHeLuu+/GaDT2eZCq7373uzz55JNYrVbFEV+U1voJgqC0qPIyN1EKumyz2br1DQ79yeVQmAPZTZdfehqNpl3EQ7/fj0ql6jQerRgS1lOlUim5P2022zn/FqKUBvHjjz/mlltuCS/udzredYRuMZvNXHLJJSxZsoSnnnqKsrKy8F3OGznanVzRKioqeOKJJzh8+DAej4fXX3+dl156iaCUIPfIkSM89NBD3XaD/X4/O3bsYO/evXg8Hh566CH+9re/he/WrwSDQerr6/nJT37SbuH7D37wA1auXNmpp5bb7eaRRx7hH//4B6Io0tLSwg9/+EMaGxvDd+0xgiCgVqu7fYb9hfrhhx9+OHxjhO6Rp1rGjRvH//3f/+H3+0lLSzvnt3Y4q1ev5qqrrkKn04FUgd9++23ee+89TCYT//u//8u3vvUt0tLSOHToENu2bWPu3LlkZ2ejUqnwer0cPHiQ/Px8TCYTJpMJQRAoLi7m17/+NTt37iQjI4P33nuPmpoaRo4cSVVVFQkJCdTV1VFYWEhsbCynT5+msLCQ6upqdDodhw4doqysDIfDoVxbIBAgNzcXv99Pbm4uBoMBk8mE0+lk7969BINBiouLMZlMVFdXU11djc1mIz8/n4KCAlpaWrDZbPj9furr67HZbGzevBlBEBg9ejSpqalK6+n3+zl06BBnzpxh9erV1NfXc/XVV3P69GmuvPJKamtrqampISEhgcOHD+N2uzl+/DgejweHw6FcY319PQ0NDbS1teFwOJTnHggEOH78OOPHj1e2DRhihPMiEAiIbW1t4vvvvy+uWLFCbGxsFIPBYPhuvea73/2u2NLSovwdCATEY8eOiRMnThSjo6PFH/7wh2JbW5vY0tIi3n777eK3vvUtccSIEeJTTz0ler1e8Z577hHHjh0rLlu2THz99ddFr9criqIovv/++2JqaqqYnJwsXn/99eKiRYvEYcOGiYsXLxaTkpLErVu3iv/+97/FefPmKedOTk4W33zzTXHJkiXitGnTxOuvv17cvHmzcm319fXi8OHDxVmzZok5OTnismXLRJfLJd56663i+PHjxQULFojDhw8XN2zYID744IPiLbfcIpaVlYk333yzmJWVJX7xxRfi5MmTxUsuuUQcM2aMmJaWJv7nP/8Rc3JyxL///e+i2+0WRVEUg8Gg+PTTT4ujR48W58+fL6alpYm33367ePr0aTErK0s8duyY+Mwzz4iTJk0Sg8GgOHHiRHHKlCni7NmzxVGjRolFRUXi3//+d3HMmDHiokWLxNGjR4s/+9nPlPsQRVF0u93im2++2W7bQBHp1p4nKpUKo9HI0qVLWbp0KX/96185fvx4p12x80GlUuFwOLDb7fh8PtLT09Hr9QSDQaKjo8nPz6e1tZUtW7ZQWlrKqlWr+OMf/8irr77KDTfcoFgf582bx5QpU1iwYAErVqzAYDAwYsQIXnvtNex2O7m5ubjdbtra2ggGgzidTiZNmoTb7aaoqIjHH3+cV199lenTpyvX5vf7cblcPPDAA9x3333s3buXiooK1q1bx5///Of/P7WAIODz+XC73TidTnw+Hx6Ph8mTJ1NfX8+ZM2d44YUXuO+++6isrOTaa69V0j/IeL1ePv/8cy699FL+9a9/MXLkSOX7W1paCEppIpqbmwFoaWlh8eLFPP744zQ3N1NVVcWaNWu4+uqree655xg2bJiSE2YwEhFnHyCb35OTk3nwwQcpKyvjr3/9K62trX02fvH5fLz88su0trbym9/8hldffZXy8nK2b9/OypUr+cc//kFOTg4ejwedToff7+fUqVMgVWoZnU6H0WhUXh5qtZrY2FglQZHX60Wn09Ha2kp9fT25ublotVpiYmIIBALU1dUpQgtFEASio6OxWq14PB6MRiPBYJBjx45RV1eHy+VCFEV0Oh3Nzc3U1NSQl5eHTqcjKSkJv9+Px+Ohrq4Oi8WCwWDo1EqtVqupr69XrkX+blEUqa+v5+DBg8pxwWCQ+Ph4rFarsk2r1VJcXExLSwvl5eWdfsdgISLOPkSr1WKz2ZgzZw633347L7zwAhs2bMDtdp93JTh06BCffPIJv/zlL7ntttuYPn06P/nJTxg9ejTR0dH893//N0jGqpiYGJ588klef/11rrvuOj777DPlJaHX67n66qs5fPgwd911F3q9HpvNhlqtxm63YzAYmDNnDmq1mm9/+9ukpaVhNpuZPHkyt99+O//zP//D9ddf3y6kqEajwW63YzQa0ev1REVFYbfbeeKJJ3j77bf5z3/+o6ReuOaaa2hoaOCBBx4gISEBq9XK2LFjuf7667nrrrtYuXIljz76qHI9er1eGcdrtVruvfdeTp48yU9/+lOioqIwm81ERUUxZswYfvSjH9Ha2ordbgfAbrdjMpmUezQajTz00ENUVFTwpz/9CavVOqBW6u6ITKVcILxeL06nk6NHj7Jr1y6uuuoqsrOzezwv+r3vfY+nnnoKi8UCUoKbtrY2DAYDBoOB1tZW/H4/VquV6upqgsGgkhg3JiaGtrY2GhoacLvdDBs2TEmvLooira2tNDc3o1ar0ev1BAIBoqKiqKmpwWw2o9frycvL4/e//z2/+tWvGD16NCaTiba2NhobG5XvkK/N6/VSV1eHw+FQWrCkpCReeeUViouLycvL48CBA3z00UekpqZSV1eHKIro9Xp0Oh02m42mpibq6urQarXExcVhNpuprKzEYrG0Sw3f1tamHK/T6dDr9VitVhoaGmhubsZisRAMBklKSqK8vFx58TQ1NWG329m+fTtffPEF9fX1fPnllzz22GNcd911ynP3eDy8//773Hbbbcq2gSIizguIKIq43W6amprYunUrLS0tXHrppSQnJ3f7xg4X59mQf8JwS3FX23tCa2sr//73v7nxxhtJTExUztGbc+7Zs4e9e/fi8/m45JJLGDNmDCaTqctzdLU9nK72EztJNxhOYWEhX331FS0tLYwaNYpZs2a1s9ZGxPk1IxAI4HQ6qampYePGjVitVubPn09MTEyXIu2NOC8EwWAQl8uFXq/v8hq7w+v1KuNdg8FwzufpS+Q8o6IootVq0el07QQ9mMQZGXP2A2q1GqvVSlpaGjfccAOTJk3iP//5D2vXrqWioqLPLbt9gUqlwmw2n5egdDodFosFi8VyXufpS7RaLWazGYvF0m48OxiJiLMfkQ0nGRkZ3HXXXYwfP55XX32VTz75hKqqKuWNHiECEXEODBqNBofDQUpKCj/60Y+YPHkyK1eu5Nlnn6Wurg6PxxMRaYSIOAcSebogLS2N5cuXc80117BlyxYeeeQRPB4PXq8Xv98fEerXlIg4BwGCIGA2m8nKymLZsmXcfffd1NXV8fLLL7Ny5UqamprwR9Z2fu2IiHOQodPpSE5OJikpiTvuuIPRo0fzwQcf8Nxzz7F161bcbjdBaZnX2eiuPMLgJyLOQYogCNhsNqZOncodd9zBbbfdhtPp5LnnnuP//u//OHDgQJdWXq/Xy759+yLxjoY4kXnOQUr4PKcoLS72er00NTWxa9cuDhw4wMiRI8nJyWHEiBEYjUbl+M2bN1NYWMitt96KXq8POfO5IUoOFfLH4/H0WvyCIKDVajEYDOj1egwGg7LsbLAwmOY5I+IcpISLU0YWqbwCw+l0sm/fPjZu3EhGRgYzZ84kNTUVvV7P3XffTVZWFr/85S+x2WztzhNKIBCgtbUVp9MJgMvloqamhurq6nYCtFqtWK1WbDYbVqv1nOLsOJ1OWlpaaGtro6WlBafTiSBFdzAajSQkJBATE6P44losFmUtan8QEWeEbulKnKGIokggEFA+breb8vJyPv30UyorK8nMzOSll15i7NixPP3008TExOD3+5WW79ixY1RUVKDRaMjMzFTc9AQpCkNoJAYZ+e/w7b1BrnLhVU++H9nw5ff7KSwspKysDJVKxYgRI0hPT0en0yl+xH1NRJwRuqUn4gwlVKg+n4+SkhJ++tOfcvr0aUV8N954I2lpaYwZMwaNRoNGo0GtViuCDBVe6N/9hSjFSQqtkqHb/H4/fr8fp9PJiRMnUKlUzJo1C5vNhlar7ZPrjYgzQrf0VpwywWCQN954gw8++ACv14tarWby5MlkZmYyfvx4UlJS2gmys+BZ/Ylc/XoiLNlKLf8bCARoa2vD5XJRUlLC1KlTiY6OPi9XwYg4I3TLuYrT5/ORm5vLmTNniI2NJTExUXFe1+l0aDQaRQher5eSkhJEUSQ6OlppgURRZMuWLWRlZSnjy/PF7XaTl5fH2LFjFfEEg0HKy8t5++23+elPf9pr45AsVLkrXFdXR1NTEwkJCQwfPvycXjyDSZy9v/oIg5ZAIMCBAwfQ6/XMmTOHsWPHEhcXh91ux2w2d+j61dfX8+CDD7J7927efPNNHn30USViQW1tLWvWrFHGdYFAAI/Hg9vtVqZw5HGux+PpEBlBDkMiz8u2trayceNGWltbFR9in8/Hjh07mDVrFrW1tYiiiNfrVSzC3bUbghQtT17XmZCQQGZmJk6nk/3793c51TRUiETfG6SER9/rDlEU2bt3L/Hx8cTGxqLT6To16MgEg0Fqamr47LPPuP/++8nJyWH//v24XC7MZjNbt26lvr4eURRJS0vj3XffZceOHWzevJmGhgbS09PZs2cPK1eu5NSpUxw4cICpU6cq53/iiSc4efIk69evJz09HVEU+fzzzzl9+jQ7duwgKysLr9fLzp07KSwspLm5mZEjR/LEE09w7NgxvvzyS0aMGIHFYunyHkKRu+gajQaz2YxarSYvL4+kpKQeHS8TGETR9yIt50WCKM1DOhyOHo25gsEgq1ator6+npUrV2K1Wpk0aRJ5eXmYzWbmzJnD1KlTeeyxx2hra+PUqVMkJyfzzW9+k/3791NdXc0rr7zCrbfeysKFCzl48GC78+/du5crrriCK6+8klWrVuHz+XC5XFx33XWkpqayefNmjEYjM2fOZNy4cfz73/+mqamJbdu2cf311zN79mxeffXVc2r9NBoNUVFRCCHBt4ciEXFeRASDwR63EoIgcN111+FwOLj99tsBKCsrIyoqil27drF7924cDgdOpxOPx4MgCAwbNoy4uDgMBoMSZCs+Pp6YmJgO4zuLxUJsbCyxsbE0NTURCATIyMggPj4eh8NBa2srBQUFrF+/HrPZTDAYpK2tjbi4OKV7Wl5e3m6etbecz7GDgYg4LyK0Wi2NjY09ai3UajUmkwmtVktdXR1r167liy++YOnSpZSWljJy5EgsFoti2dVqtYpjgFqtxmazkZ6ezqFDh3j77bfxeDztzi93q+Vj5C6n/H+VSkVjYyNJSUkkJyfj8/kQRZETJ06Qn5/P9u3bmT17dgfR94RgMEhjYyN+v7/HL6vBSGTMOUjp7ZhTEAQSExMpKCigsbERh8OB0IO5yrS0NFpbW3E4HNxwww0kJiaSmppKRUUFwWCQyy67jJSUFFJTU0lMTMRgMJCenk5UVBQTJ06koqKCpKQkmpqamD9/vnLepKQkEhMTUalUitCzs7Ox2WzYbDbS0tJISUlRAntdffXVJCUlkZubS2pqKlqtliuuuAKDwdDtPcjI1ls5ivy0adPaWad7wmAac0amUgYp5zOVUlZWRkFBAWlpacTGxvZIpOHIXeSujgsEAhw8eJCPPvqIYDDIbbfdxtixY8N365bKykry8vKYP38+Ho+HP/7xj/zhD38463eHIlffYDBIWVkZ9fX1DB8+nKSkpB5HOgxlME2lRMQ5SDlXcco4nU6Ki4tpbGzE5/MxYsQITCYT9HDCvztEUcTj8eB0OtFoNFgslnPqgspeTTqdThl39mReVa62TU1NFBYWYjAYiImJISUlhe6yrJ2NiDgjdMv5ilNGnjeUk/nodDrMZvM5tywDTVtbG5WVlbjdbrxeL1arlZEjR6LX6/vkfiLijNAtfSVOQvxT/X6/kkvk+PHjeL1eJWq6HDKlL76vLwgEAjQ1NdHW1oYoijQ0NChjY7kXIBupetoF7gkRcUbolr4Up4ws0tCP7Ezu8/koKCigvLycYDCIyWQiPj4eu92udCFVKhVarVb59HZVSOgLQo6PJBMIBKitraW2tpZAIIBerycjI4OkpCTF0itbfmUx9pUgQ4mIM0K3XAhxdkYwJOSJGJItWgxZviWXu91uJa9lU1OTks1LLg8XS/h2tVqNw+EgOjqa6OhoxaIs76NWqxXBhwrwQooxnIg4I3RLf4mzK8Jb2M62nwtdCU3edi5Gpb5kMIlzYJ9EhEGLLBS1Wq2s/dRoNGilFAZ6vf6cPjqdDq1W2+6coV3WCP+PyNOIEGGQEhFnhAiDlIg4I0QYpETEGSHCICUizggRBimRqZRByu9+9zt+8YtfYDabw4siXCBEUaSqqopDhw5xzTXXhBf3OxFxDlJOnTrFu+++S0NDQ4c5wQgXBtkz6sc//jEJCQnhxf3O/we6C55VIY34/wAAAABJRU5ErkJggg==;" vertex="1" parent="1">
          <mxGeometry x="300" y="10" width="306.75" height="1150" as="geometry" />
        </mxCell>
      </root>
    </mxGraphModel>
  </diagram>
</mxfile>
